<svg width="130" height="28" viewBox="0 0 130 28" fill="none" xmlns="http://www.w3.org/2000/svg">
<path d="M123.271 21.8427H112.221L110.322 27.2351H105.803L115.259 0.804688H120.271L129.727 27.2351H125.17L123.271 21.8427ZM122.056 18.311L117.765 6.04519L113.436 18.311H122.056Z" fill="white"/>
<path d="M89.6191 27.5C87.1634 27.5 84.8976 26.9304 82.8216 25.7911C80.771 24.6266 79.1381 23.019 77.9229 20.9684C76.733 18.8924 76.1381 16.5633 76.1381 13.981C76.1381 11.3987 76.733 9.08228 77.9229 7.03165C79.1381 4.98101 80.771 3.38608 82.8216 2.24684C84.8976 1.08228 87.1634 0.5 89.6191 0.5C92.1001 0.5 94.3659 1.08228 96.4165 2.24684C98.4925 3.38608 100.125 4.98101 101.315 7.03165C102.505 9.08228 103.1 11.3987 103.1 13.981C103.1 16.5633 102.505 18.8924 101.315 20.9684C100.125 23.019 98.4925 24.6266 96.4165 25.7911C94.3659 26.9304 92.1001 27.5 89.6191 27.5ZM89.6191 23.7405C91.3659 23.7405 92.9229 23.3481 94.29 22.5633C95.6571 21.7532 96.7203 20.6139 97.4798 19.1456C98.2646 17.6519 98.657 15.9304 98.657 13.981C98.657 12.0316 98.2646 10.3228 97.4798 8.85443C96.7203 7.38608 95.6571 6.25949 94.29 5.47468C92.9229 4.68987 91.3659 4.29747 89.6191 4.29747C87.8722 4.29747 86.3153 4.68987 84.9482 5.47468C83.5811 6.25949 82.5052 7.38608 81.7203 8.85443C80.9609 10.3228 80.5811 12.0316 80.5811 13.981C80.5811 15.9304 80.9609 17.6519 81.7203 19.1456C82.5052 20.6139 83.5811 21.7532 84.9482 22.5633C86.3153 23.3481 87.8722 23.7405 89.6191 23.7405Z" fill="white"/>
<path d="M65.0366 23.7386H73.9607V27.2323H60.7075V0.839844H65.0366V23.7386Z" fill="white"/>
<path d="M48.1632 23.7386H57.0873V27.2323H43.8341V0.839844H48.1632V23.7386Z" fill="white"/>
<path d="M28.2487 4.33633V12.0832H37.3626V15.6148H28.2487V23.7034H38.5018V27.2351H23.9196V0.804688H38.5018V4.33633H28.2487Z" fill="white"/>
<path d="M14.1266 13.6753C15.5443 13.9285 16.7468 14.6753 17.7342 15.9158C18.7215 17.1563 19.2152 18.5614 19.2152 20.131C19.2152 21.4728 18.8608 22.6879 18.1519 23.7766C17.4684 24.8398 16.4684 25.6879 15.1519 26.3209C13.8354 26.9285 12.3038 27.2323 10.557 27.2323H0V0.839844H10.0633C11.8608 0.839844 13.4051 1.14364 14.6962 1.75124C15.9873 2.35883 16.962 3.18162 17.6203 4.21959C18.2785 5.23225 18.6076 6.37149 18.6076 7.63731C18.6076 9.1563 18.2025 10.4221 17.3924 11.4348C16.5823 12.4474 15.4937 13.1943 14.1266 13.6753ZM4.32911 11.9285H9.68354C11.1013 11.9285 12.2025 11.612 12.9873 10.9791C13.7975 10.3209 14.2025 9.38415 14.2025 8.16896C14.2025 6.97908 13.7975 6.05503 12.9873 5.3968C12.2025 4.71326 11.1013 4.37149 9.68354 4.37149H4.32911V11.9285ZM10.1772 23.7006C11.6456 23.7006 12.7975 23.3462 13.6329 22.6373C14.4684 21.9285 14.8861 20.9411 14.8861 19.6753C14.8861 18.3841 14.443 17.3588 13.557 16.5993C12.6709 15.8398 11.4937 15.4601 10.0253 15.4601H4.32911V23.7006H10.1772Z" fill="white"/>
</svg>
