<svg width="234" height="82" viewBox="0 0 234 82" fill="none" xmlns="http://www.w3.org/2000/svg">
<path d="M43.6612 21.0715C43.2537 21.5323 42.8639 22.2826 42.6603 23.2249C42.5128 24.1347 42.6401 25.2601 42.9682 26.344C43.3287 27.4841 43.8341 28.6153 44.4044 29.8587C44.6733 30.4523 44.9747 31.1021 45.2761 31.7518C45.5775 32.4016 45.9675 33.0749 46.3251 33.6922C47.7966 36.3621 49.655 39.1825 51.8266 41.8966C52.3613 42.5611 52.9286 43.2817 53.5195 43.9136C54.0542 44.5781 54.6451 45.2101 55.2035 45.786C56.3527 46.9938 57.5256 48.1131 58.6334 49.1201C59.7088 50.0709 60.7191 50.9096 61.6969 51.6921C60.6277 51.7869 59.5349 51.9702 58.4509 52.2983C56.9297 52.1302 55.4085 51.9622 53.9995 51.7291C51.4474 51.3338 48.9928 51.1069 46.7302 50.6938C46.6416 50.6702 46.5854 50.7027 46.4968 50.6791C46.4082 50.6555 46.3196 50.6319 46.231 50.6083C46.0863 50.6171 45.9651 50.5374 45.8204 50.5463L45.7318 50.5227C45.8765 50.5138 46.0213 50.5049 45.9887 50.4488C45.9887 50.4488 45.9001 50.4252 45.779 50.3455C45.7465 50.2893 45.8026 50.2569 45.7701 50.2008L45.714 50.2333L45.6579 50.2658C45.6018 50.2983 45.5693 50.2421 45.4807 50.2185C45.2148 50.1477 44.8042 50.0857 44.3936 50.0238C44.2164 49.9766 44.0717 49.9854 43.8944 49.9382C43.8619 49.8821 43.8294 49.826 43.7969 49.7699C43.8767 49.6488 43.8678 49.5041 43.9475 49.3829C44.1925 48.6415 44.3725 47.7878 44.5437 46.7894C44.6587 45.8235 44.7647 44.7129 44.605 43.5314C44.4453 42.35 44.0522 41.1538 43.6591 39.9576C43.5527 39.6445 43.4463 39.3315 43.2838 39.0509C43.2188 38.9387 43.1774 38.7378 43.0799 38.5695C42.9824 38.4011 42.8849 38.2328 42.7874 38.0645C42.3412 37.4236 41.7917 36.9924 41.2098 36.5052C40.0783 35.5868 38.8435 34.8781 37.5201 34.1459C34.9057 32.7375 32.3092 31.6185 29.9549 30.659C27.6005 29.6995 25.4323 28.932 23.5389 28.38C22.9186 28.2148 22.3544 28.017 21.8788 27.8428C21.7016 27.7956 21.5243 27.7483 21.4357 27.7247C21.4771 27.9256 21.4624 28.1589 21.5038 28.3598C21.4802 28.4484 21.5127 28.5045 21.5216 28.6493C21.5541 28.7054 21.5304 28.794 21.5629 28.8501C21.6488 29.7746 21.7997 30.8113 22.0716 31.9278C22.3111 32.9881 22.6155 34.1607 23.0086 35.3569C23.8509 37.7168 25.1127 40.2833 27.0803 42.5159C27.8337 43.4285 28.6668 44.2199 29.6122 44.9463C30.8972 46.0006 32.2857 46.845 33.6091 47.5773C33.6091 47.5773 33.6416 47.6334 33.6977 47.6009C33.9074 47.7042 34.0847 47.7515 34.2383 47.8873C35.1659 48.3243 36.0609 48.7052 36.9471 48.9413C36.9471 48.9413 36.9471 48.9413 37.0357 48.9649C35.7714 48.7229 34.5958 48.5046 33.5088 48.3099C33.4202 48.2863 33.3641 48.3188 33.2755 48.2951C33.1307 48.304 33.0096 48.2243 32.8649 48.2332C32.7762 48.2096 32.6315 48.2185 32.5104 48.1388C32.4218 48.1151 32.3332 48.0915 32.1884 48.1004C31.9934 47.7637 31.7098 47.4034 31.4262 47.0431C30.9239 46.4347 30.2444 45.7791 29.5088 45.1561C29.2341 44.9405 28.9918 44.7811 28.7171 44.5655C27.5945 43.7918 26.2711 43.0596 24.8354 42.3923C23.3437 41.7576 21.7722 41.2439 19.9999 40.7717C18.2837 40.2669 16.4316 39.9158 14.5234 39.5972C14.2901 39.5825 14.0242 39.5117 13.7909 39.4969C13.5575 39.4822 13.2917 39.4114 13.0583 39.3966C12.5591 39.3111 12.0363 39.3141 11.5135 39.3172C10.524 39.2908 9.45477 39.3855 8.44165 39.4478C6.3918 39.6609 4.40696 39.9862 2.48712 40.4237C2.02931 40.539 1.62761 40.6218 1.16981 40.737C0.912845 40.8109 0.712 40.8523 0.45504 40.9262C0.706169 41.2304 0.98091 41.446 1.23204 41.7502C2.31628 42.8458 3.48915 43.965 4.86285 45.0429C7.18189 46.8471 9.92624 48.48 13.1903 49.587C13.9643 49.8881 14.8179 50.0681 15.6155 50.2806C16.0024 50.4312 16.4366 50.4045 16.7911 50.499C17.2017 50.5609 17.5562 50.6553 17.9667 50.7173C18.3773 50.7792 18.7554 50.7851 19.166 50.847C19.3432 50.8943 19.5766 50.909 19.7213 50.9001C19.9546 50.9148 20.0994 50.9059 20.3327 50.9206C20.7108 50.9265 21.0889 50.9323 21.467 50.9381C21.845 50.944 22.2231 50.9498 22.5687 50.8995C25.4958 50.7778 28.1068 50.2397 30.2186 49.6161C31.0456 49.3619 31.7279 49.1166 32.3776 48.8152C32.4337 48.7827 32.4899 48.7502 32.546 48.7177C32.7704 48.5877 32.9713 48.5463 33.1957 48.4162C34.8705 48.7201 36.6665 49.1038 38.6958 49.5021C38.9616 49.573 39.2836 49.6113 39.6056 49.6496C39.6942 49.6733 39.7828 49.6969 39.9275 49.688C40.8698 49.8916 41.7796 50.0391 42.5121 50.1394C42.7455 50.1541 43.0113 50.2249 43.2447 50.2396C43.3333 50.2633 43.4219 50.2869 43.478 50.2544C43.7114 50.2691 43.8886 50.3163 44.1545 50.3872C44.2431 50.4108 44.2431 50.4107 44.3317 50.4344C44.5089 50.4816 44.7423 50.4963 44.9756 50.5111C44.9195 50.5436 44.9195 50.5435 44.8634 50.576C44.7512 50.6411 44.6064 50.6499 44.4617 50.6588L44.4056 50.6913C44.1486 50.7652 43.9478 50.8066 43.6908 50.8805C43.3778 50.9869 43.0322 51.0372 42.7191 51.1436C42.5744 51.1525 42.406 51.25 42.2613 51.2589C42.1491 51.3239 42.0043 51.3328 41.8921 51.3978C41.836 51.4303 41.7799 51.4628 41.7474 51.4067C40.4951 51.8323 39.1305 52.3228 37.7424 52.9021C35.5598 53.7916 33.2177 54.9233 30.8048 56.3209C28.448 57.686 26.2684 59.0983 24.3547 60.5815C22.4971 62.0322 20.8728 63.4975 19.7389 64.9037C19.3639 65.4207 18.9888 65.9377 18.726 66.3897C18.7024 66.4783 18.6463 66.5108 18.6227 66.5994C18.543 66.7205 18.4632 66.8416 18.4396 66.9302C18.5282 66.9539 18.673 66.945 18.7941 67.0247C19.825 67.2519 21.3226 67.5086 23.2544 67.7386C25.1301 68.0011 27.3513 68.2134 29.8531 68.2631C31.1321 68.2717 32.4111 68.2803 33.8259 68.1352C35.1846 68.0227 36.7263 67.5794 38.0081 66.6871C39.2898 65.7948 40.2318 64.5747 40.8518 63.3163C41.5044 62.114 42.1008 60.9442 42.6411 59.8069C43.6331 57.5087 44.4331 55.3966 44.9615 53.5918C45.1031 53.0601 45.2773 52.5845 45.3629 52.0853C45.4101 51.9081 45.4573 51.7308 45.4809 51.6422C45.5282 51.465 45.5754 51.2878 45.6226 51.1105C45.7348 51.0455 45.8471 50.9805 45.9268 50.8594C46.0154 50.883 46.104 50.9066 46.2488 50.8977C46.3374 50.9213 46.426 50.945 46.4821 50.9125C48.8334 51.3491 51.3205 51.6322 53.9612 52.0511C55.1043 52.2133 56.2474 52.3755 57.4792 52.5614C56.2033 53.0756 54.9363 53.7345 53.7668 54.5618C50.7071 56.7836 48.6017 59.8766 47.6306 62.9871C47.4181 63.7846 47.2617 64.5497 47.1053 65.3147C47.0433 65.7253 47.0375 66.1034 47.0317 66.4815C47.0258 66.8595 47.02 67.2376 47.0142 67.6157C47.1031 69.063 47.3603 70.4128 47.8656 71.544C48.2321 72.306 48.6546 73.0355 49.1805 73.5552C49.213 73.6113 49.2455 73.6675 49.3016 73.635L49.3577 73.6025C49.526 73.505 49.6383 73.44 49.8066 73.3424L49.8627 73.3099C50.1433 73.1474 50.48 72.9524 50.8492 72.8135C51.4103 72.4885 52.0601 72.1871 52.7896 71.7645C53.519 71.342 54.2485 70.9195 55.0578 70.3758C55.8995 69.8883 56.7648 69.3121 57.5976 68.6799C59.3519 67.439 61.2981 66.0119 63.2355 64.4402C65.1403 62.8123 66.9329 61.2494 68.436 59.7043C69.2038 58.9598 69.9717 58.2153 70.5948 57.4797C70.9787 57.1074 71.3301 56.679 71.6579 56.3393C71.714 56.3068 71.7376 56.2182 71.7937 56.1857C72.0093 55.911 72.2012 55.7248 72.4168 55.4501C72.7121 55.0542 73.096 54.682 73.3677 54.3747C73.4238 54.3422 73.4474 54.2536 73.5035 54.2211C74.8475 54.342 76.1915 54.4628 77.503 54.5275C77.881 54.5333 78.203 54.5717 78.6136 54.6336C79.8689 54.7308 81.1804 54.7955 82.4682 54.9489C82.5569 54.9725 82.613 54.94 82.7016 54.9636C82.7902 54.9872 82.9349 54.9783 83.0236 55.0019C83.1122 55.0255 83.2569 55.0167 83.3455 55.0403C83.4342 55.0639 83.5228 55.0875 83.5789 55.055C83.7236 55.0461 83.9008 55.0933 84.0456 55.0845C84.1017 55.052 84.1342 55.108 84.1903 55.0755C86.1132 55.1608 88.0361 55.2461 90.0476 55.355C90.9485 55.3578 91.8258 55.4492 92.7267 55.4519C91.6899 55.6028 90.5971 55.7861 89.5043 55.9695C88.5886 56.2001 87.5844 56.407 86.5891 56.7587C86.3321 56.8326 86.0752 56.9065 85.8182 56.9804C85.5612 57.0543 85.3043 57.1282 85.0798 57.2582C84.5984 57.4621 84.117 57.666 83.603 57.8138C83.29 57.9202 83.0094 58.0827 82.6963 58.1891C82.6402 58.2216 82.5841 58.2541 82.5841 58.2541C81.004 59.0194 79.3767 59.962 77.903 61.0404C77.0466 61.7613 76.1015 62.4586 75.3662 63.2592C74.5423 64.0362 73.8394 64.8929 73.2577 65.8293C72.676 66.7658 72.183 67.7259 71.8996 68.7893C71.6163 69.8527 71.5338 70.8747 71.5635 71.8317C71.5994 73.8343 72.0369 75.7541 72.8022 77.3342C73.5676 78.9143 74.7257 80.2669 76.0255 81.0878C76.058 81.1439 76.1141 81.1114 76.1466 81.1675C76.3564 81.2709 76.5661 81.3742 76.7758 81.4775C76.888 81.4125 77.0003 81.3475 77.1686 81.25C77.2809 81.185 77.4492 81.0875 77.5614 81.0225C77.8981 80.8275 78.2909 80.6 78.5951 80.3488C78.9879 80.1213 79.4043 79.8052 79.8532 79.5452C80.2696 79.229 80.7186 78.969 81.1911 78.6204C82.1125 78.0117 83.0812 77.2258 84.0824 76.496C86.0758 74.8918 88.1726 73.0778 90.2841 71.0304C92.3956 68.983 94.2413 66.8649 95.8064 64.9092C96.5889 63.9313 97.3153 62.986 97.9856 62.0731C98.3045 61.5887 98.6559 61.1603 98.9512 60.7644C99.2465 60.3686 99.5093 59.9166 99.8046 59.5207C100.203 58.9151 100.578 58.3982 100.865 57.8576C100.888 57.769 100.944 57.7365 100.968 57.6479C101.048 57.5267 101.127 57.4056 101.151 57.317C101.334 56.9862 101.55 56.7114 101.677 56.4131C101.804 56.1147 101.963 55.8725 102.123 55.6302C102.179 55.5977 102.146 55.5416 102.146 55.5416C103.425 55.5502 104.76 55.5263 106.039 55.5349C106.562 55.5318 107.085 55.5288 107.551 55.5582C107.841 55.5405 108.163 55.5788 108.452 55.561C110.632 55.5724 112.747 55.4716 114.983 55.4504C117.187 55.3732 119.422 55.3521 121.65 55.1862C122.663 55.124 123.676 55.0617 124.633 55.032C123.484 55.2479 122.246 55.4401 120.961 55.8096C118.929 56.3121 116.753 56.8236 114.393 57.6659C112.089 58.4756 109.626 59.5276 107.343 61.1497C106.173 61.977 105.157 62.9401 104.15 64.048C103.2 65.1233 102.323 66.4556 101.679 67.8026C101.068 69.2058 100.61 70.7448 100.507 72.3782C100.472 73.223 100.549 74.0028 100.658 74.8387C100.824 75.642 101.078 76.469 101.445 77.231C101.811 77.993 102.346 78.6575 102.937 79.2895C103.551 79.8328 104.334 80.2787 105.164 80.5473C105.962 80.7598 106.806 80.7951 107.642 80.6856C108.446 80.5201 109.216 80.2984 109.922 79.9645C110.628 79.6306 111.302 79.2405 111.919 78.883C112.592 78.493 113.144 78.0232 113.729 77.6096C114.866 76.7262 116.003 75.8428 117.019 74.8797C119.083 73.0096 120.793 71.045 122.302 69.1218C123.811 67.1986 125.087 65.2607 126.049 63.4292C126.153 63.2195 126.312 62.9772 126.415 62.7675C126.519 62.5578 126.678 62.3155 126.782 62.1058C126.988 61.6863 127.251 61.2343 127.458 60.8149C127.664 60.3954 127.871 59.9759 127.989 59.5328C128.093 59.3231 128.14 59.1459 128.243 58.9361C128.346 58.7264 128.394 58.5492 128.497 58.3394C128.798 57.5655 129.076 56.8802 129.264 56.1712C129.415 55.7843 129.509 55.4298 129.604 55.0753C129.772 54.9778 129.828 54.9453 129.885 54.9128C130.753 54.8595 131.677 54.7736 132.546 54.7203C132.691 54.7114 132.779 54.735 132.891 54.67C133.036 54.6611 133.181 54.6522 133.269 54.6758C133.326 54.6433 133.358 54.6994 133.414 54.6669C134.049 54.5989 134.628 54.5633 135.296 54.5514C140.208 54.1044 145.232 53.5924 150.28 52.9918C150.079 53.0332 149.91 53.1307 149.71 53.1721C149.252 53.2873 148.827 53.4587 148.369 53.574C146.546 54.1799 144.588 54.9394 142.592 56.0209C141.582 56.6059 140.572 57.191 139.627 57.8882C138.625 58.618 137.689 59.46 136.818 60.4142C136.602 60.689 136.354 60.9076 136.195 61.1498C135.979 61.4246 135.82 61.6668 135.604 61.9416C135.389 62.2163 135.229 62.4585 135.046 62.7894C134.831 63.0641 134.704 63.3625 134.521 63.6933C133.868 64.8956 133.337 66.1777 133.015 67.563C132.693 68.9484 132.549 70.381 132.582 71.8608C132.671 73.3081 132.937 74.8026 133.548 76.2469C133.646 76.4152 133.687 76.6161 133.785 76.7844L134.077 77.2895L134.37 77.7945L134.719 78.267L135.067 78.7395C135.165 78.9079 135.318 79.0437 135.472 79.1796C135.723 79.4838 135.942 79.7318 136.249 80.0035C136.556 80.2752 136.863 80.5469 137.306 80.6649C137.516 80.7683 137.75 80.783 137.983 80.7977C138.216 80.8124 138.417 80.7711 138.674 80.6972C139.132 80.5819 139.469 80.3868 139.773 80.1357C140.077 79.8846 140.381 79.6334 140.597 79.3587C142.386 77.273 143.966 75.084 145.345 72.9364C146.724 70.7887 147.902 68.6825 148.912 66.6737C149.922 64.665 150.731 62.6976 151.348 60.9164C152.543 57.6759 153.243 54.8727 153.697 52.8109C153.753 52.7784 153.753 52.7784 153.777 52.6898C156.196 52.3378 158.647 52.0419 161.123 51.6574C161.267 51.6486 161.323 51.6161 161.468 51.6072C162.416 51.4327 163.397 51.3143 164.345 51.1399C164.49 51.131 164.602 51.066 164.747 51.0571C164.803 51.0246 164.891 51.0482 164.947 51.0157C171.248 49.9895 177.418 48.7388 183.411 47.4409C183.354 47.4734 183.331 47.5621 183.219 47.6271C183.106 47.6921 182.994 47.7571 182.882 47.8221C181.503 48.546 179.866 49.3439 178.118 50.2067C176.37 51.0696 174.364 52.0063 172.377 53.2325C170.389 54.4587 168.298 55.8946 166.443 57.8681C165.516 58.8548 164.71 59.9213 164.001 61.1561C163.293 62.3909 162.826 63.7851 162.537 65.2266C162.248 66.6681 162.169 68.2129 162.435 69.7074C162.568 70.4547 162.789 71.2256 163.067 71.9639L163.304 72.5015L163.466 72.7821L163.629 73.0627L163.921 73.5677C164.019 73.736 164.172 73.8718 164.27 74.0402C164.716 74.6811 165.274 75.257 165.945 75.7678C166.583 76.2226 167.333 76.6123 168.131 76.8248C168.541 76.8867 168.952 76.9487 169.33 76.9545C169.708 76.9603 170.142 76.9337 170.512 76.7948C171.315 76.6292 171.965 76.3278 172.671 75.9939C173.994 75.3025 175.066 74.3068 176.082 73.3437C177.098 72.3806 177.96 71.2816 178.733 70.159C180.257 68.0025 181.361 65.6393 182.185 63.4386C183.009 61.2379 183.487 59.0875 183.861 57.1469C184.236 55.2062 184.443 53.363 184.611 51.8418C184.746 50.2645 184.867 48.9205 184.885 47.7862C184.876 47.6415 184.923 47.4643 184.914 47.3195C184.881 47.2634 184.938 47.2309 184.905 47.1748C187.082 46.6634 189.203 46.1845 191.323 45.7055C191.379 45.673 191.468 45.6966 191.524 45.6641C191.58 45.6316 191.669 45.6552 191.725 45.6227C191.781 45.5902 191.781 45.5902 191.87 45.6139C192.215 45.5636 192.528 45.4572 192.874 45.4069L192.93 45.3744C192.986 45.3419 193.131 45.333 193.187 45.3005C195.331 44.7329 197.508 44.2215 199.596 43.6865C201.797 43.0864 203.997 42.4864 206.165 41.8302C208.309 41.2627 210.445 40.5504 212.556 39.9267C214.668 39.303 216.78 38.6794 218.771 37.976C220.794 37.3287 222.785 36.6254 224.808 35.9781C226.798 35.2747 228.733 34.6038 230.635 33.8768C231.574 33.5576 232.57 33.2059 233.476 32.8306C234.416 32.5114 235.322 32.1361 236.229 31.7608C238.075 31.0663 239.888 30.3157 241.678 29.6537C243.436 28.9356 245.193 28.2175 246.894 27.5319C248.595 26.8463 250.297 26.1606 251.877 25.3953C253.489 24.6861 255.102 23.9769 256.626 23.2441C257.388 22.8777 258.182 22.5673 258.944 22.2009C259.706 21.8345 260.412 21.5006 261.174 21.1342C264.11 19.7335 266.933 18.3979 269.524 17.0475C272.114 15.6971 274.624 14.4679 276.845 13.2564C279.122 12.0124 281.231 10.8659 283.171 9.81698C285.079 8.7119 286.819 7.70433 288.39 6.79427C289.175 6.33923 289.905 5.9167 290.634 5.49417C291.308 5.10415 291.949 4.65802 292.566 4.30049C293.768 3.52933 294.778 2.94428 295.587 2.40063C296.396 1.85698 297.014 1.49943 297.463 1.23941C297.855 1.01189 298.047 0.825789 298.047 0.825789C298.047 0.825789 297.79 0.899689 297.398 1.12721C296.949 1.38722 296.331 1.74476 295.49 2.23229C294.648 2.71983 293.638 3.30487 292.403 4.01992C291.786 4.37744 291.169 4.73497 290.439 5.1575C289.766 5.54753 288.98 6.00254 288.162 6.40146C286.591 7.31152 284.819 8.26297 282.879 9.31193C280.938 10.3609 278.797 11.4513 276.52 12.6953C274.243 13.9392 271.756 15.0799 269.166 16.4302C266.576 17.7806 263.776 19.0277 260.84 20.4283C260.134 20.7622 259.372 21.1286 258.61 21.495C257.848 21.8615 257.054 22.1718 256.292 22.5382C254.735 23.2149 253.123 23.9241 251.51 24.6333C249.898 25.3426 248.196 26.0282 246.495 26.7138C244.794 27.3994 243.037 28.1175 241.279 28.8356C239.489 29.4976 237.676 30.2482 235.83 30.9427C234.923 31.318 233.984 31.6372 233.077 32.0125C232.138 32.3317 231.199 32.6509 230.204 33.0026C228.269 33.6735 226.367 34.4005 224.344 35.0477C222.321 35.695 220.386 36.3659 218.307 37.0457C216.316 37.7491 214.172 38.3166 212.093 38.9964C209.981 39.6201 207.901 40.2998 205.701 40.8999C203.557 41.4674 201.356 42.0675 199.156 42.6675C196.923 43.2115 194.69 43.7554 192.401 44.3318C192.256 44.3407 192.144 44.4057 191.999 44.4146C191.887 44.4796 191.799 44.456 191.686 44.521C191.485 44.5624 191.285 44.6038 191.084 44.6452C191.01 44.3882 190.847 44.1077 190.773 43.8507C190.676 43.6824 190.635 43.4815 190.537 43.3131C189.721 41.3875 188.767 39.0926 187.585 36.405C186.737 34.4232 185.791 32.273 184.524 30.0846C183.312 27.8636 181.779 25.6044 179.764 23.549C178.745 22.5656 177.637 21.5585 176.393 20.7052C175.149 19.8518 173.77 19.152 172.254 18.6059C171.513 18.3609 170.715 18.1484 169.95 17.992C169.451 17.9064 168.984 17.877 168.518 17.8475C168.14 17.8417 167.85 17.8595 167.505 17.9098C166.669 18.0192 165.865 18.1848 165.071 18.4951C164.276 18.8054 163.491 19.2604 162.891 19.9074C162.292 20.5544 161.822 21.4258 161.642 22.2795C161.495 23.1893 161.637 24.0813 161.891 24.9083C162.201 25.7028 162.624 26.4323 163.014 27.1056C163.46 27.7465 163.962 28.3549 164.465 28.9632C166.53 31.3642 168.881 33.2246 171.271 34.763C173.661 36.3014 176.009 37.639 178.26 38.8082C180.511 39.9774 182.553 41.0433 184.417 42.062C185.917 42.8415 187.241 43.5738 188.499 44.1938C188.499 44.1938 188.499 44.1938 188.532 44.2499C189.04 44.4802 189.492 44.743 189.944 45.0058C188.883 45.2453 187.823 45.4847 186.707 45.7567C186.562 45.7656 186.45 45.8306 186.305 45.8395C185.959 45.8897 185.646 45.9961 185.245 46.0789C185.1 46.0878 185.044 46.1203 184.899 46.1292C184.843 46.1617 184.754 46.1381 184.698 46.1706C184.586 46.2356 184.497 46.212 184.385 46.277C177.79 47.699 171.017 49.0739 164.114 50.2243C163.222 50.3663 162.274 50.5407 161.382 50.6827C161.205 50.6355 161.028 50.5882 160.762 50.5174C159.639 48.32 157.778 44.9768 155.26 40.8893C154.261 39.2945 153.198 37.5875 151.924 35.7771C150.74 33.9903 149.345 32.1002 147.726 30.3401C146.917 29.46 146.018 28.5564 145.041 27.7738C144.524 27.3988 144.063 26.9913 143.49 26.6488C142.917 26.3062 142.343 25.9637 141.691 25.7423C140.441 25.267 139.056 24.9454 137.585 25.1229C136.894 25.2235 136.123 25.4451 135.514 25.9474C134.874 26.3935 134.386 26.9755 134.053 27.6933C133.663 28.4436 133.628 29.2884 133.616 30.0446C133.637 30.8569 133.826 31.5716 134.048 32.3425C134.515 33.7956 135.262 35.0863 136.113 36.1672C137.735 38.4501 139.573 40.4583 141.481 42.2006C143.39 43.9429 145.449 45.2982 147.41 46.4852C147.653 46.6447 147.895 46.8041 148.161 46.875C148.403 47.0344 148.613 47.1378 148.911 47.2648C149.419 47.495 149.871 47.7578 150.379 47.9881C150.887 48.2184 151.363 48.3926 151.782 48.5992C151.992 48.7026 152.258 48.7734 152.468 48.8768C152.677 48.9801 152.943 49.0509 153.153 49.1543C153.451 49.2812 153.717 49.3521 154.072 49.4465C154.16 49.4701 154.16 49.4701 154.249 49.4937C154.99 49.7387 155.699 49.9276 156.352 50.149L156.441 50.1727C156.706 50.2435 156.972 50.3143 157.294 50.3526C157.383 50.3763 157.383 50.3763 157.471 50.3999C158.502 50.6271 159.412 50.7746 160.266 50.9546C158.972 51.1794 157.702 51.3155 156.464 51.5077C156.32 51.5166 156.175 51.5255 155.974 51.5669C155.629 51.6172 155.283 51.6675 154.937 51.7177C154.793 51.7266 154.737 51.7591 154.592 51.768C154.391 51.8094 154.102 51.8272 153.901 51.8686C153.756 51.8775 153.611 51.8864 153.499 51.9514C147.391 52.7915 141.33 53.4543 135.461 53.9311C134.737 53.9755 134.046 54.0761 133.379 54.088C133.178 54.1294 133.033 54.1383 132.8 54.1236L132.767 54.0675C132.735 54.0113 132.702 53.9552 132.67 53.8991C132.572 53.7308 132.419 53.5949 132.321 53.4266C131.624 52.4815 130.82 51.2234 129.975 49.7644C129.13 48.3055 128.211 46.5895 127.283 44.7288C126.323 42.8121 125.209 40.7595 123.941 38.571C122.674 36.3825 121.14 34.1233 119.238 32.0029C118.242 30.9308 117.223 29.9475 116.003 29.0055C115.728 28.7899 115.365 28.5507 115.09 28.3351C114.759 28.1521 114.452 27.8804 114.121 27.6973C113.79 27.5143 113.459 27.3312 113.096 27.092C112.765 26.9089 112.378 26.7584 111.991 26.6078C111.217 26.3067 110.476 26.0617 109.655 25.9378C108.833 25.8139 107.989 25.7786 107.153 25.8881C106.317 25.9975 105.466 26.3403 104.713 26.8515C104.601 26.9165 104.545 26.949 104.465 27.0701L104.217 27.2887C104.081 27.4423 103.889 27.6285 103.753 27.7821C103.458 28.1779 103.275 28.5088 103.101 28.9844C102.95 29.3714 102.832 29.8144 102.77 30.225C102.723 30.4023 102.708 30.6356 102.694 30.8689C102.679 31.1023 102.632 31.2796 102.617 31.5129C102.493 32.3341 102.514 33.1463 102.567 34.0147C102.697 35.6629 103.085 37.2371 103.64 38.7139C104.196 40.1906 104.92 41.5699 105.724 42.828C105.919 43.1647 106.17 43.4689 106.332 43.7495C106.583 44.0536 106.746 44.3342 106.997 44.6384C107.248 44.9426 107.467 45.1907 107.718 45.4948C107.936 45.7429 108.188 46.0471 108.406 46.2952C109.369 47.311 110.389 48.2944 111.431 49.1892C111.925 49.6528 112.498 49.9954 112.991 50.459C113.508 50.834 114.025 51.2091 114.598 51.5516C115.656 52.213 116.713 52.8744 117.818 53.3586C118.867 53.8753 119.939 54.3034 121.003 54.5867C121.301 54.7137 121.623 54.752 121.889 54.8229C121.833 54.8554 121.8 54.7992 121.744 54.8317C119.517 54.9976 117.281 55.0187 115.077 55.096C112.874 55.1732 110.703 55.3066 108.579 55.2627C106.81 55.3132 105.064 55.2752 103.351 55.2933C103.263 55.2696 103.118 55.2785 103.062 55.311C102.917 55.3199 102.828 55.2963 102.684 55.3052C102.684 55.3052 102.628 55.3377 102.595 55.2816C102.45 55.2905 102.306 55.2994 102.217 55.2757C101.227 55.2494 100.27 55.2791 99.281 55.2527C99.2485 55.1966 99.3046 55.1641 99.2721 55.108C99.2865 53.4509 99.2507 51.4483 99.1409 49.1887C99.0162 45.7388 98.7909 41.5977 98.3055 37.0077C98.1072 34.7245 97.7877 32.3616 97.4593 29.8539C97.3913 29.2189 97.2346 28.5602 97.0218 27.9341C96.809 27.3079 96.5076 26.6582 95.9492 26.0823C95.4233 25.5626 94.7055 25.2289 93.9404 25.0725C93.5299 25.0106 93.1518 25.0048 92.7265 25.1762C92.3573 25.3151 91.9645 25.5426 91.6928 25.8498C91.4211 26.1571 91.2145 26.5765 91.12 26.931C91.0256 27.2855 90.9636 27.696 91.0139 28.0416C90.9697 28.7417 91.1264 29.4003 91.1945 30.0353C91.3306 31.3054 91.4667 32.5755 91.659 33.8131C91.9874 36.3207 92.3068 38.6837 92.7947 40.9491C93.2825 43.2145 93.85 45.3588 94.5209 47.2934C95.1918 49.2279 95.9985 51.0089 96.82 52.5565C97.3164 53.5429 97.925 54.4644 98.4687 55.2736C97.7125 55.2619 96.9564 55.2502 96.2002 55.2385C95.2107 55.2122 94.1651 55.2183 93.1756 55.1919C92.1861 55.1655 91.1966 55.1391 90.2071 55.1127C88.2281 55.06 86.3052 54.9747 84.3823 54.8894C84.2375 54.8983 84.0603 54.8511 83.9156 54.86C83.9864 54.5941 84.0808 54.2397 84.1192 53.9177C84.4881 52.3551 84.7831 50.5356 84.9806 48.5477C85.1781 46.5598 85.3017 44.3149 85.127 41.9431C85.0233 40.7291 84.9197 39.5152 84.6388 38.254C84.5147 37.6514 84.358 36.9928 84.2013 36.3341C84.0949 36.021 83.9885 35.708 83.9382 35.3624C83.8318 35.0493 83.7254 34.7362 83.619 34.4232C83.1934 33.1709 82.6467 31.8388 82.0203 30.6279C81.3614 29.3609 80.5902 28.1589 79.6743 26.9658C78.7584 25.7727 77.7628 24.7006 76.5102 23.7025C76.2355 23.487 75.9282 23.2153 75.5974 23.0322C75.3226 22.8167 74.9593 22.5775 74.6284 22.3944C73.9903 21.9397 73.24 21.5499 72.4986 21.3049C71.7246 21.0038 70.9035 20.8799 70.0351 20.9332C69.6009 20.9599 69.1992 21.0427 68.7739 21.2141C68.3486 21.3855 67.9883 21.6691 67.6841 21.9202C67.0846 22.5672 66.7274 23.3737 66.6035 24.1948C66.4796 25.016 66.5565 25.7958 66.601 26.5195C66.7341 27.2667 66.9232 27.9815 67.1124 28.6962C67.3016 29.411 67.5144 30.0372 67.7597 30.7194C68.1617 32.0603 68.6198 33.3687 69.1015 34.5885C70.9486 39.5888 73.1618 43.9274 75.2331 47.374C76.2406 49.1136 77.2068 50.6523 78.2999 51.8926C78.8022 52.501 79.3606 53.0769 79.8539 53.5405C80.3473 54.0041 80.8643 54.3792 81.3488 54.6981C81.3488 54.6981 81.3487 54.6981 81.3812 54.7542C80.7698 54.7336 80.2145 54.6806 79.6031 54.66C79.3136 54.6778 79.0477 54.6069 78.7583 54.6247C77.1249 54.5217 75.5801 54.4422 74.0027 54.3067C73.7694 54.292 73.536 54.2772 73.3027 54.2625C72.6912 54.242 72.0473 54.1653 71.492 54.1122C71.4034 54.0886 71.3148 54.065 71.2262 54.0414C71.1051 53.9617 70.9603 53.9706 70.8392 53.8908C70.0416 53.6783 69.2116 53.4097 68.2929 53.1175C67.1409 52.8105 65.9003 52.4799 64.5799 52.2705C64.5621 51.981 64.5443 51.6916 64.5266 51.4021C64.4229 50.1881 64.2307 48.9506 63.8848 47.5772C63.539 46.2037 63.0484 44.8392 62.4367 43.395C61.825 41.9507 61.1246 40.4828 60.3357 38.9914C59.5467 37.4999 58.6692 35.9848 57.7916 34.4697C55.9479 31.4159 53.8886 28.6369 51.6315 26.422C49.4305 24.1747 47.0967 22.6037 44.9668 21.5142C44.7246 21.3548 44.4588 21.284 44.2165 21.1245C44.184 21.0684 44.1279 21.1009 44.0954 21.0448C43.8768 20.7967 43.7971 20.9178 43.6612 21.0715ZM29.9822 49.0785C27.9265 49.6697 25.3953 50.0867 22.5804 50.1434C22.2023 50.1375 21.8567 50.1878 21.5347 50.1495C21.1566 50.1436 20.8347 50.1053 20.4566 50.0995C20.2794 50.0523 20.0785 50.0937 19.9013 50.0464C19.7241 49.9992 19.5232 50.0406 19.346 49.9934C18.9679 49.9875 18.6135 49.8931 18.2354 49.8873C17.8248 49.8253 17.4703 49.7309 17.0597 49.6689C16.7053 49.5745 16.2947 49.5125 15.8841 49.4506C15.0865 49.2381 14.3215 49.0817 13.5475 48.7805C10.4607 47.7208 7.69273 46.1765 5.43869 44.4845C4.1625 43.575 3.08715 42.6241 2.04431 41.7293C2.24515 41.6879 2.50211 41.614 2.70295 41.5726C4.56668 41.1676 6.55152 40.8423 8.51276 40.6056C9.52587 40.5434 10.5065 40.4251 11.496 40.4514C12.4855 40.4778 13.4189 40.5367 14.3287 40.6842C16.2369 41.0028 18.0328 41.3865 19.7401 41.7465C21.48 42.1626 23.0189 42.6201 24.4782 43.1987C25.9375 43.7774 27.1959 44.3974 28.3746 45.1386C29.4646 45.8561 30.4425 46.6387 31.0984 47.3829C31.317 47.6309 31.5356 47.879 31.7542 48.1271C31.255 48.0415 30.7558 47.956 30.2566 47.8704C29.4916 47.714 28.7266 47.5576 28.0501 47.4248C26.6973 47.1593 25.4891 46.8848 24.5468 46.6812C25.4891 46.8848 26.6086 47.1357 27.994 47.4573C28.6704 47.5901 29.3794 47.779 30.2331 47.959C30.7648 48.1007 31.32 48.1537 31.8517 48.2954C31.8842 48.3515 31.9168 48.4076 31.9168 48.4076C31.3792 48.644 30.697 48.8894 29.9822 49.0785ZM40.1017 49.2124C39.6586 49.0943 39.183 48.9201 38.6838 48.8346C38.2082 48.6604 37.6766 48.5187 37.201 48.3445C36.5482 48.1232 35.8628 47.8456 35.145 47.512C35.0239 47.4323 34.8467 47.3851 34.7255 47.3053C34.5158 47.202 34.2174 47.0751 34.0077 46.9717C31.8453 45.8261 29.6563 44.2463 27.8423 42.1495C26.0283 40.0527 24.7193 37.6634 23.8534 35.3922C23.4042 34.2285 23.0761 33.1445 22.7805 32.1167C22.485 31.0888 22.278 30.0846 22.1035 29.1365C22.071 29.0804 22.0946 28.9918 22.0946 28.9918C22.4816 29.1423 22.9572 29.3165 23.4328 29.4907C25.2465 30.1638 27.3586 30.9638 29.6893 32.0119C32.0436 32.9714 34.5841 34.1228 37.1659 35.4751C38.4568 36.1513 39.6916 36.8599 40.7581 37.6661C41.2751 38.0411 41.7684 38.5047 42.117 38.9773C42.1821 39.0895 42.2471 39.2018 42.3121 39.314C42.3771 39.4262 42.4746 39.5946 42.4835 39.7393C42.646 40.0199 42.7524 40.3329 42.8588 40.646C43.308 41.8097 43.7247 42.9172 43.9641 43.9776C44.2036 45.0379 44.1536 46.1161 44.0947 47.0495C44.0358 47.9829 43.8558 48.8365 43.6994 49.6016C43.6758 49.6902 43.6758 49.6902 43.6522 49.7788C43.5547 49.6104 43.4011 49.4746 43.3036 49.3062C42.8899 48.7215 42.4438 48.0806 41.844 47.3039C41.2768 46.5833 40.6445 45.7505 39.9 44.9827C39.1555 44.2149 38.3874 43.5356 37.6843 42.9687C36.9251 42.4342 36.1984 41.9558 35.6253 41.6133C35.0522 41.2708 34.5116 40.9844 34.1807 40.8013C33.8824 40.6744 33.6726 40.571 33.6401 40.5149C33.6726 40.571 33.8499 40.6183 34.1246 40.8338C34.4555 41.0169 34.94 41.3358 35.5456 41.7344C36.1512 42.1331 36.7892 42.5878 37.4923 43.1548C38.1954 43.7218 38.9636 44.401 39.6519 45.2013C41.0848 46.7694 42.2282 48.3554 43.0791 49.4363C43.2652 49.6282 43.3953 49.8527 43.5489 49.9885L43.5253 50.0771C42.5505 49.8174 41.431 49.5666 40.1017 49.2124ZM44.9376 52.2567C44.7456 52.4428 44.5212 52.5729 44.3292 52.759C43.4403 53.4237 42.4391 54.1535 41.3818 54.9158C40.3245 55.678 39.2909 56.3517 38.3694 56.9604C37.448 57.569 36.5502 58.0891 35.8532 58.5677C35.1237 58.9902 34.5064 59.3478 34.1461 59.6314C33.7533 59.8589 33.5288 59.9889 33.5614 60.045C33.5614 60.045 33.8183 59.9711 34.2111 59.7436C34.6039 59.5161 35.2537 59.2147 35.9832 58.7922C37.4421 57.9471 39.5184 56.7445 41.633 55.22C42.6902 54.4577 43.6914 53.7279 44.5803 53.0631C44.6364 53.0306 44.7487 52.9657 44.7723 52.877C44.7015 53.1429 44.542 53.3851 44.4712 53.651C43.8217 55.3761 42.933 57.4645 41.8199 59.683C41.2471 60.7642 40.6507 61.934 39.9657 63.0802C39.6231 63.6533 39.2806 64.2264 38.8731 64.6872C38.442 65.2367 38.0019 65.6415 37.4172 66.0551C36.3038 66.8499 35.019 67.2194 33.7489 67.3555C32.4227 67.5241 31.1763 67.5716 29.8973 67.563C27.428 67.5694 25.1831 67.4458 23.3399 67.2394C21.5293 67.0891 20.0967 66.9447 19.0747 66.8622C19.4261 66.4338 19.745 65.9493 20.2411 65.5121C21.4401 64.2181 23.0732 62.8975 24.9959 61.5591C26.6379 60.3831 28.5369 59.1333 30.557 57.9632C30.8376 57.8007 31.1181 57.6382 31.3987 57.4757C33.7555 56.1106 36.0415 55.0114 38.1916 54.0657C40.3418 53.1201 42.2999 52.3606 43.9864 51.9083C44.4442 51.7931 44.8134 51.6542 45.2387 51.4828L45.2948 51.4503C45.1029 51.6364 44.9759 51.9347 44.9376 52.2567ZM153.334 52.5717C152.486 53.4373 151.47 54.4004 150.431 55.4522C149.527 56.3503 148.712 57.272 148.009 58.1287C147.306 58.9855 146.716 59.7772 146.237 60.5039C145.815 61.1981 145.505 61.8273 145.299 62.2468C145.092 62.6663 145.021 62.9321 145.021 62.9321C145.11 62.9557 145.458 62.0045 146.391 60.6397C146.902 59.9691 147.493 59.1774 148.195 58.3207C148.898 57.464 149.746 56.5984 150.649 55.7002C151.553 54.8021 152.344 53.969 153.08 53.1684C152.56 55.118 151.778 57.5195 150.701 60.3169C149.995 62.0745 149.154 63.9858 148.144 65.9945C147.134 68.0032 145.923 70.0534 144.568 72.1124C143.213 74.1714 141.6 76.3044 139.867 78.3576C139.459 78.8184 138.963 79.2557 138.449 79.4035C138.192 79.4774 137.959 79.4626 137.749 79.3593C137.54 79.256 137.297 79.0965 137.023 78.8809C136.748 78.6654 136.585 78.3848 136.367 78.1367C136.269 77.9684 136.148 77.8887 136.051 77.7203L135.734 77.3039L135.418 76.8875L135.158 76.4386L134.898 75.9897L134.694 75.5082C134.18 74.2323 133.834 72.8589 133.81 71.5238C133.787 70.1887 133.875 68.7886 134.173 67.4919C134.769 64.8984 136.05 62.5824 137.713 60.7951C138.528 59.8733 139.408 59.0639 140.321 58.3105C141.266 57.6132 142.211 56.9159 143.165 56.3634C145.073 55.2583 146.998 54.4427 148.788 53.7807C149.213 53.6093 149.671 53.494 150.097 53.3226C150.297 53.2812 150.466 53.1837 150.667 53.1423C150.924 53.0684 151.124 53.027 151.381 52.9531C152.105 52.9087 152.731 52.6959 153.334 52.5717ZM130.23 54.8625C130.174 54.895 130.118 54.9275 129.973 54.9364L129.997 54.8478C130.085 54.8714 130.141 54.8389 130.23 54.8625ZM128.727 54.9839C129.016 54.9662 129.217 54.9248 129.506 54.907C129.483 54.9956 129.459 55.0842 129.38 55.2053C129.066 55.3117 128.73 55.5068 128.304 55.6782C127.061 56.2485 125.49 57.1585 123.792 58.3669C122.15 59.5428 120.717 60.8221 119.758 61.7527C118.798 62.6834 118.287 63.3539 118.319 63.4101C118.352 63.4662 118.984 62.8753 119.944 61.9447C120.936 61.0702 122.345 59.8796 123.987 58.7036C125.629 57.5277 127.224 56.529 128.346 55.879C128.682 55.684 129.019 55.489 129.3 55.3264C129.196 55.5362 129.149 55.7134 129.078 55.9793C128.857 56.6321 128.523 57.3499 128.222 58.1239C128.119 58.3336 128.072 58.5108 127.968 58.7206C127.865 58.9303 127.818 59.1075 127.714 59.3173C127.508 59.7367 127.357 60.1237 127.15 60.5432C126.944 60.9626 126.737 61.3821 126.474 61.8341C126.371 62.0438 126.268 62.2536 126.108 62.4958C126.005 62.7055 125.845 62.9478 125.742 63.1575C124.747 64.9329 123.439 66.8147 121.986 68.7054C120.477 70.6286 118.702 72.4809 116.694 74.3185C115.702 75.193 114.597 76.1326 113.484 76.9273C112.899 77.341 112.314 77.7546 111.73 78.1682C111.112 78.5258 110.495 78.8833 109.845 79.1847C109.196 79.4861 108.513 79.7314 107.822 79.832C107.131 79.9326 106.431 79.8884 105.755 79.7556C105.102 79.5342 104.473 79.2242 103.979 78.7605C103.486 78.2969 103.04 77.656 102.682 77.0388C102.381 76.389 102.103 75.6506 102.002 74.9595C101.869 74.2122 101.825 73.4886 101.869 72.7885C101.925 71.3323 102.303 69.9144 102.89 68.5999C103.478 67.2854 104.275 66.0742 105.17 65.0313C106.064 63.9885 107.08 63.0254 108.138 62.2631C110.276 60.6499 112.65 59.5743 114.922 58.7084C117.193 57.8425 119.393 57.2425 121.337 56.7163C122.622 56.3468 123.794 56.0423 124.943 55.8265C125.546 55.7023 126.148 55.5781 126.783 55.5101C127.185 55.4273 127.619 55.4006 128.021 55.3178C128.292 55.0106 128.493 54.9692 128.727 54.9839ZM190.109 44.3855C189.746 44.1463 189.326 43.9396 188.907 43.7329C188.986 43.6118 189.099 43.5468 189.155 43.5143C189.099 43.5468 189.043 43.5793 188.907 43.7329C187.672 43.0243 186.26 42.2684 184.783 41.4003C182.919 40.3816 180.901 39.2271 178.674 37.9693C176.479 36.7675 174.187 35.3975 171.853 33.8266C169.519 32.2556 167.256 30.4189 165.312 28.0976C164.34 26.937 163.392 25.6878 162.901 24.3233C162.656 23.641 162.523 22.8937 162.656 22.2173C162.788 21.5409 163.098 20.9116 163.618 20.3858C164.138 19.8599 164.755 19.5024 165.493 19.2246C166.176 18.9793 166.947 18.7576 167.67 18.7131C168.45 18.6362 169.15 18.6804 169.883 18.7807C170.06 18.8279 170.237 18.8751 170.382 18.8662C170.414 18.9223 170.47 18.8898 170.503 18.9459C171.1 19.1998 171.794 19.6221 172.464 20.1329C173.135 20.6438 173.815 21.2994 174.47 22.0436C175.126 22.7878 175.782 23.532 176.317 24.1965C176.852 24.861 177.41 25.4368 177.847 25.933C178.568 26.7894 179.127 27.3653 179.224 27.5336C179.127 27.3653 178.657 26.813 177.903 25.9005C177.466 25.4043 177.02 24.7635 176.429 24.1315C175.894 23.467 175.295 22.6903 174.583 21.9786C173.927 21.2344 173.247 20.5788 172.544 20.0118C171.995 19.5807 171.454 19.2942 171.002 19.0315C171.357 19.1259 171.711 19.2204 172.009 19.3473C174.798 20.2801 177.229 22.0194 179.179 23.9626C181.129 25.9057 182.63 28.1089 183.897 30.2974C185.133 32.4297 186.134 34.5474 187.038 36.4966C188.017 38.7029 188.953 40.7083 189.695 42.377C188.2 41.2194 186.487 39.8138 184.708 38.296C181.985 36.0517 179.559 33.9343 177.781 32.4165C176.123 30.9783 175.081 30.0835 174.927 29.9477C175.048 30.0274 176.011 31.0433 177.645 32.5701C179.311 34.1529 181.769 36.3264 184.493 38.5707C186.513 40.248 188.348 41.7334 189.964 42.9706C190.233 43.5643 190.437 44.0457 190.729 44.5507C190.617 44.6158 190.528 44.5921 190.416 44.6571C190.319 44.4888 190.198 44.4091 190.109 44.3855ZM184.344 47.4999C184.238 48.6105 184.117 49.9545 183.893 51.5082C183.669 53.0619 183.43 54.8489 183.023 56.7335C182.648 58.6742 182.049 60.7448 181.249 62.8569C180.392 65.0015 179.335 67.1875 177.868 69.3115C177.118 70.3455 176.279 71.3558 175.319 72.2864C174.36 73.217 173.311 74.124 172.1 74.7505C170.889 75.3769 169.548 75.7789 168.308 75.4483C167.011 75.1502 165.88 74.2319 165.052 73.0623C164.955 72.894 164.834 72.8143 164.736 72.646L164.476 72.197L164.346 71.9726L164.216 71.7481L164.012 71.2667C163.767 70.5844 163.554 69.9583 163.454 69.2671C163.252 67.8848 163.252 66.4611 163.518 65.1083C163.783 63.7554 164.259 62.5059 164.855 61.3361C165.451 60.1663 166.258 59.0998 167.129 58.1456C168.871 56.2371 170.873 54.7776 172.772 53.5278C174.76 52.3016 176.644 51.2851 178.36 50.3661C179.796 49.6097 181.119 48.9183 182.297 48.2357C182.241 48.2682 182.185 48.3007 182.217 48.3569C181.346 49.3111 180.307 50.3628 179.421 51.5504C178.479 52.7705 177.738 53.9492 177.02 55.0392C176.678 55.6123 176.391 56.1529 176.072 56.6374C175.786 57.178 175.523 57.6299 175.349 58.1055C175.142 58.525 174.936 58.9445 174.785 59.3315C174.635 59.7184 174.508 60.0168 174.404 60.2265C174.174 60.7346 174.103 61.0004 174.136 61.0566C174.136 61.0566 174.295 60.8143 174.525 60.3063C174.629 60.0965 174.812 59.7657 174.962 59.3787C175.145 59.0478 175.352 58.6284 175.559 58.2089C175.765 57.7894 176.028 57.3374 176.315 56.7968C176.601 56.2562 176.92 55.7718 177.262 55.1987C177.98 54.1086 178.777 52.8974 179.663 51.7099C180.549 50.5223 181.5 49.4469 182.371 48.4927C182.643 48.1855 182.914 47.8782 183.219 47.6271C183.611 47.3996 183.948 47.2046 184.341 46.977C184.382 47.1779 184.335 47.3551 184.344 47.4999ZM157.773 49.626L157.684 49.6023C157.418 49.5315 157.152 49.4607 156.943 49.3573C156.145 49.1448 155.371 48.8437 154.508 48.519C154.21 48.392 153.944 48.3211 153.646 48.1942C153.436 48.0909 153.17 48.02 152.961 47.9167C152.751 47.8134 152.541 47.71 152.275 47.6392C151.856 47.4325 151.348 47.2022 150.872 47.0281C150.42 46.7653 149.912 46.535 149.46 46.2722C149.25 46.1688 149.008 46.0094 148.766 45.8499C148.524 45.6905 148.314 45.5871 148.072 45.4277C146.166 44.2082 144.252 42.844 142.344 41.1016C140.524 39.3829 138.775 37.3983 137.241 35.139C137.079 34.8585 136.828 34.5543 136.665 34.2737C136.503 33.9932 136.34 33.7126 136.145 33.3759C135.82 32.8147 135.519 32.165 135.362 31.5063C135.149 30.8802 134.992 30.2215 134.981 29.554C134.969 28.8864 135.045 28.2425 135.299 27.6458C135.529 27.1377 135.937 26.6769 136.409 26.3282C136.882 25.9796 137.452 25.7993 137.998 25.7076C138.545 25.6159 139.189 25.6926 139.8 25.7132C140.388 25.8224 141.008 25.9876 141.573 26.1854C142.137 26.3832 142.677 26.6696 143.194 27.0446C143.679 27.3635 144.196 27.7386 144.713 28.1136C145.658 28.84 146.524 29.6875 147.333 30.5676C148.92 32.2716 150.282 34.1056 151.523 35.8598C152.764 37.6141 153.883 39.2887 154.882 40.8835C157.317 44.5692 159.16 47.6231 160.396 49.7554C160.307 49.7318 160.274 49.6756 160.186 49.652C158.83 48.8637 157.013 47.6678 155.122 46.2149C153.176 44.7945 151.551 43.4125 150.354 42.3819C149.772 41.8947 149.279 41.431 148.972 41.1593C148.664 40.8877 148.478 40.6957 148.478 40.6957C148.478 40.6957 148.664 40.8877 148.916 41.1918C149.255 41.5196 149.66 41.9597 150.218 42.5356C151.303 43.6312 152.96 45.0693 154.851 46.5222C156.798 47.9425 158.614 49.1384 159.994 49.8382C160.204 49.9415 160.325 50.0212 160.534 50.1246C160.567 50.1807 160.567 50.1807 160.599 50.2368C159.69 50.0893 158.747 49.8857 157.773 49.626ZM122.228 53.727C121.962 53.6561 121.664 53.5292 121.342 53.4908C120.335 53.175 119.351 52.7705 118.302 52.2538C117.254 51.7371 116.229 51.1318 115.227 50.4379C114.71 50.0629 114.226 49.744 113.709 49.3689C113.192 48.9939 112.675 48.6189 112.181 48.1553C111.171 47.3166 110.24 46.3568 109.277 45.3409C109.059 45.0929 108.808 44.7887 108.589 44.5406C108.37 44.2926 108.119 43.9883 107.957 43.7078C107.738 43.4597 107.543 43.123 107.324 42.875C107.162 42.5944 106.911 42.2902 106.716 41.9535C105.945 40.7515 105.253 39.4284 104.73 38.0077C104.207 36.5871 103.829 35.1575 103.763 33.6216C103.719 32.898 103.698 32.0857 103.798 31.3531C103.846 31.1759 103.804 30.9751 103.851 30.7979C103.899 30.6206 103.913 30.3873 103.961 30.21C104.055 29.8556 104.149 29.5011 104.244 29.1466C104.371 28.8483 104.521 28.4613 104.769 28.2427C104.905 28.0891 104.985 27.9679 105.121 27.8143L105.313 27.6282C105.369 27.5957 105.481 27.5307 105.537 27.4982C106.122 27.0845 106.804 26.8392 107.495 26.7387C108.934 26.505 110.464 26.8179 111.802 27.3168C112.157 27.4112 112.487 27.5943 112.818 27.7773C113.149 27.9604 113.48 28.1434 113.811 28.3265C114.142 28.5096 114.416 28.7251 114.747 28.9082C115.022 29.1238 115.353 29.3068 115.628 29.5224C116.783 30.3522 117.802 31.3356 118.765 32.3515C120.691 34.3832 122.192 36.5864 123.483 38.6863C124.775 40.7861 125.889 42.8387 126.961 44.6905C127.978 46.5748 128.953 48.2582 129.854 49.6847C130.146 50.1897 130.495 50.6623 130.788 51.1673C130.82 51.2234 130.853 51.2795 130.853 51.2795C131.364 52.0326 131.842 52.7296 132.312 53.2819C132.41 53.4502 132.563 53.586 132.661 53.7544C132.693 53.8105 132.693 53.8105 132.726 53.8666C132.67 53.8991 132.67 53.8991 132.614 53.9316C132.324 53.9494 132.035 53.9672 131.745 53.985C130.091 53.0697 127.92 51.7793 125.506 50.3295C123.093 48.8797 120.945 47.5007 119.37 46.4643C117.917 45.5076 116.981 44.9259 116.859 44.8461C116.981 44.9259 117.837 45.6287 119.235 46.6179C120.753 47.6869 122.877 49.1544 125.235 50.6367C127.471 52.0393 129.633 53.1849 131.222 53.988C130.877 54.0383 130.587 54.0561 130.209 54.0502C130.065 54.0591 129.92 54.068 129.775 54.0769C129.341 54.1036 128.995 54.1539 128.561 54.1806C127.259 54.2606 126.012 54.3081 124.798 54.4117C124.024 54.1105 123.114 53.9631 122.228 53.727ZM98.8734 55.7136C98.9295 55.6811 98.9621 55.7372 99.0182 55.7047C99.0182 55.7047 99.0743 55.6722 99.1068 55.7283C99.1954 55.7519 99.2515 55.7194 99.3963 55.7105C99.3963 55.7105 99.4524 55.678 99.4849 55.7341C100.008 55.7311 100.563 55.7841 101.142 55.7486C100.66 55.9525 100.09 56.1328 99.5529 56.3692C98.4454 56.7859 97.2256 57.2676 96.0147 57.894C94.8038 58.5204 93.6578 59.2591 92.7453 60.0125C91.8327 60.7659 91.0649 61.5104 90.4093 62.1899C89.8099 62.8369 89.2901 63.3627 88.9948 63.7586C88.6995 64.1545 88.5076 64.3406 88.5076 64.3406C88.5076 64.3406 88.6995 64.1544 89.1159 63.8383C89.4998 63.466 89.9635 62.9727 90.6516 62.3493C91.9717 61.1351 93.7553 59.4274 96.2097 58.2307C97.4206 57.6043 98.6404 57.1226 99.7154 56.6497C100.51 56.3394 101.216 56.0055 101.809 55.7366C101.954 55.7277 102.099 55.7189 102.244 55.71C102.084 55.9522 101.925 56.1944 101.765 56.4367C101.55 56.7114 101.334 56.9861 101.119 57.2609C101.095 57.3495 100.983 57.4145 100.959 57.5031C100.903 57.5356 100.879 57.6243 100.823 57.6568C100.448 58.1737 100.073 58.6907 99.586 59.2727C99.5624 59.3613 99.4502 59.4263 99.4265 59.5149C99.3704 59.5474 99.3468 59.6361 99.2907 59.6686C99.1313 59.9108 98.9157 60.1855 98.7001 60.4603C98.3487 60.8886 98.0534 61.2845 97.702 61.7129C96.9992 62.5696 96.1841 63.4913 95.3691 64.413C93.6829 66.289 91.8608 68.3186 89.7493 70.3659C87.6939 72.3808 85.5972 74.1948 83.6923 75.8227C82.7237 76.6086 81.8111 77.362 80.9222 78.0267C80.4497 78.3754 80.0332 78.6915 79.6168 79.0076C79.2004 79.3238 78.7515 79.5838 78.3912 79.8674C77.9187 80.2161 77.5023 80.5322 77.0533 80.7922C76.9322 80.7125 76.8111 80.6327 76.69 80.553C75.5674 79.7794 74.5629 78.5626 73.8301 77.0387C73.1297 75.5708 72.7572 73.7632 72.7302 71.9053C72.733 71.0044 72.848 70.0385 73.0516 69.0962C73.2878 68.2101 73.7247 67.2825 74.2828 66.4346C74.8409 65.5868 75.5201 64.8187 76.2879 64.0742C77.0557 63.3297 77.8886 62.6974 78.745 61.9766C79.9706 61.1168 81.2288 60.3131 82.4958 59.6542L82.5519 59.6217C83.113 59.2967 83.6506 59.0602 84.2442 58.7913C84.7256 58.5874 85.2071 58.3836 85.6324 58.2121C85.8568 58.0821 86.1138 58.0082 86.3707 57.9343C86.6277 57.8604 86.8846 57.7865 87.053 57.689C87.9922 57.3698 88.9639 57.1068 89.8796 56.8762C93.0931 56.2139 96.1796 55.85 98.8734 55.7136ZM98.8437 54.7566C98.3562 53.9149 97.8036 52.9609 97.3072 51.9745C96.5744 50.4505 95.8563 48.6932 95.2415 46.7261C94.6592 44.8152 94.1242 42.727 93.6925 40.4291C93.2933 38.1873 92.9738 35.8243 92.6779 33.3728C92.5418 32.1027 92.4382 30.8887 92.2696 29.5625C92.2015 28.9275 92.1334 28.2925 92.154 27.6811C92.1745 27.0696 92.3162 26.5379 92.644 26.1982C92.9718 25.8584 93.4857 25.7106 93.9524 25.7401C94.4516 25.8256 94.9597 26.0559 95.3881 26.4073C95.7603 26.7913 96.0528 27.2963 96.2331 27.8663C96.4134 28.4363 96.5376 29.0389 96.6293 29.5853C96.9812 32.0043 97.2771 34.4559 97.5316 36.7066C98.073 41.2641 98.3545 45.3727 98.6239 48.8137C98.7809 50.8961 98.864 52.7215 98.9293 54.2574C98.9115 53.9679 98.8612 53.6224 98.7784 53.2207C98.604 52.2725 98.3792 50.9789 98.0009 49.5493C97.6225 48.1198 97.2855 46.8911 96.9663 45.9519C96.6796 45.0688 96.4993 44.4987 96.4993 44.4987C96.4993 44.4987 97.0197 46.8203 97.6878 49.6557C98.0661 51.0852 98.347 52.3464 98.5215 53.2945C98.5984 54.0743 98.7462 54.5882 98.8437 54.7566ZM81.5937 53.9566C81.1093 53.6377 80.6484 53.2302 80.1551 52.7666C79.6617 52.3029 79.1919 51.7506 78.7458 51.1098C77.7974 49.8605 76.8312 48.3218 75.8797 46.5498C73.9207 43.0382 71.8286 38.7793 69.9815 33.779C69.4998 32.5592 69.0978 31.2183 68.6722 29.966C68.4595 29.3399 68.2703 28.6251 68.1136 27.9665C67.9244 27.2517 67.7116 26.6256 67.6111 25.9344C67.5105 25.2433 67.4986 24.5757 67.5752 23.9318C67.6519 23.2878 67.9058 22.6911 68.4019 22.2539C68.65 22.0352 68.8744 21.9053 69.155 21.7427C69.4681 21.6363 69.7251 21.5625 70.0706 21.5122C70.7057 21.4441 71.4146 21.633 72.0674 21.8544C72.7528 22.1319 73.382 22.4419 73.9876 22.8406C74.2623 23.0561 74.5932 23.2392 74.8679 23.4548C75.1426 23.6703 75.4174 23.8859 75.7246 24.1576C76.8561 25.076 77.8517 26.148 78.7026 27.2289C79.586 28.3659 80.3246 29.5118 81.0072 30.6902C81.6336 31.9011 82.204 33.1445 82.6532 34.3082C82.7596 34.6212 82.8659 34.9343 82.9723 35.2474C83.0787 35.5605 83.1851 35.8735 83.259 36.1305C83.3832 36.733 83.596 37.3592 83.7202 37.9617C83.9685 39.1668 84.1608 40.4044 84.288 41.5297C84.5189 43.869 84.5075 46.0489 84.3661 48.0043C84.2572 50.0158 83.9622 51.8354 83.7055 53.333C83.6672 53.6549 83.5727 54.0094 83.5344 54.3313C83.2124 54.293 82.8344 54.2872 82.5124 54.2489C82.1932 53.3096 81.7115 52.0899 81.0762 50.7342C80.4409 49.3786 79.8145 48.1677 79.2944 47.2698C78.8394 46.4842 78.5144 45.9231 78.4819 45.867C78.5144 45.9231 78.7508 46.4606 79.1261 47.3673C79.5014 48.2741 80.0717 49.5175 80.707 50.8731C81.3098 52.1726 81.759 53.3363 82.1905 54.2105C82.1905 54.2105 82.1905 54.2105 82.1343 54.243C81.9896 54.2519 81.7474 54.0924 81.5937 53.9566ZM62.8284 52.6105C62.9731 52.6016 63.1504 52.6489 63.3512 52.6075C63.4073 52.575 63.4959 52.5986 63.4959 52.5986C63.5521 52.5661 63.6407 52.5897 63.6407 52.5897C63.6968 52.5572 63.7293 52.6133 63.7854 52.5808C63.9301 52.5719 64.1074 52.6191 64.2521 52.6103C64.3407 52.6339 64.3968 52.6013 64.4854 52.6249C65.6847 52.7547 66.7717 52.9494 67.8351 53.2328C67.9237 53.2564 68.0124 53.28 68.0124 53.28C68.5441 53.4217 69.0757 53.5633 69.6074 53.705C68.4674 54.0656 67.1354 54.6123 65.8447 55.3598C64.8347 55.9449 63.8896 56.6422 63.1779 57.3542C62.4662 58.0662 61.8106 58.7456 61.3233 59.3276C60.2602 60.468 59.7258 61.2272 59.7258 61.2272C59.7583 61.2833 60.47 60.5713 61.5095 59.5196C62.0292 58.9937 62.6848 58.3142 63.3965 57.6022C64.1407 56.9464 65.0297 56.2816 66.0397 55.6965C67.4426 54.884 68.8868 54.2722 70.1391 53.8467C70.6708 53.9883 71.2587 54.0975 71.7904 54.2392L71.879 54.2628C72.1448 54.3336 72.4107 54.4045 72.644 54.4192C72.3959 54.6378 72.1804 54.9126 71.9323 55.1312C71.6045 55.4709 71.2206 55.8432 70.8928 56.1829C70.8131 56.304 70.7009 56.369 70.6211 56.4902C70.4292 56.6763 70.2933 56.8299 70.1014 57.016C69.4458 57.6955 68.6455 58.3839 67.8777 59.1284C66.3095 60.5613 64.5494 62.1803 62.6121 63.752C60.6747 65.3238 58.8171 66.7745 57.0954 68.0715C56.2625 68.7038 55.4297 69.336 54.6205 69.8797C53.8438 70.4795 53.1468 70.9581 52.4498 71.4368C51.7529 71.9154 51.1681 72.329 50.6069 72.654C50.2702 72.8491 49.9661 73.1002 49.6855 73.2627C49.2157 72.7105 48.8582 72.0932 48.4918 71.3312C47.6348 69.2047 47.5131 66.2776 48.437 63.3443C49.361 60.4111 51.363 57.5278 54.2868 55.4596C55.9849 54.2512 57.8781 53.3795 59.798 52.942C60.4005 52.8178 61.003 52.6936 61.582 52.658C62.0161 52.6314 62.4503 52.6047 62.8284 52.6105ZM44.6213 21.5645C46.6389 22.719 48.8043 24.3875 50.9167 26.6112C53.0291 28.835 54.9672 31.5342 56.811 34.588C57.7447 36.0706 58.5661 37.6182 59.4112 39.0772C60.2001 40.5687 60.9241 41.9479 61.5358 43.3922C62.115 44.7803 62.6056 46.1448 63.0312 47.3971C63.4006 48.6819 63.649 49.887 63.8087 51.0685C63.8265 51.3579 63.8679 51.5588 63.8532 51.7921C63.8532 51.7921 63.8532 51.7921 63.7971 51.8246C63.5637 51.8099 63.3304 51.7952 63.097 51.7805C62.9345 51.4999 62.7395 51.1632 62.5681 50.7379C61.6817 49.0781 60.358 46.9221 58.7595 44.5506C57.1049 42.2116 55.4446 40.2506 54.1978 38.8744C53.5744 38.1863 53.0486 37.6666 52.6763 37.2827C52.3366 36.9549 52.1504 36.7629 52.1179 36.7068C52.1504 36.7629 52.3366 36.9549 52.6202 37.3152C52.9363 37.7316 53.4061 38.2838 54.0295 38.9719C55.2201 40.3806 56.7683 42.4066 58.4228 44.7456C60.0449 47.0285 61.4011 49.2406 62.3111 50.8118C62.4086 50.9802 62.5387 51.2046 62.6362 51.373C59.5165 48.8334 55.9654 45.4196 52.6919 41.3204C50.5204 38.6064 48.6383 35.8746 47.1432 33.2933C46.7532 32.6199 46.3956 32.0027 46.0381 31.3854C45.6806 30.7681 45.3792 30.1184 45.0541 29.5572C44.4277 28.3463 43.8663 27.2476 43.4821 26.1962C43.0979 25.1447 42.8909 24.1405 42.9823 23.2632C43.0737 22.386 43.4073 21.6681 43.7823 21.1512L43.8384 21.1187C44.0807 21.2781 44.379 21.4051 44.6213 21.5645Z" fill="#E8BC7F"/>
</svg>
