<svg width="227" height="209" viewBox="0 0 227 209" fill="none" xmlns="http://www.w3.org/2000/svg">
<path d="M84.4401 121.961C84.4461 120.637 84.5345 119.266 84.6102 117.682C84.7335 116.181 84.7615 114.514 84.8721 112.8C84.9826 111.086 84.9153 109.255 84.8005 107.341C84.8226 106.998 84.7622 106.703 84.6541 106.325C84.5171 104.754 84.1675 103.196 83.6401 101.52C83.0522 99.5493 82.0519 97.8165 80.9341 96.2616C79.7338 94.7543 78.4161 93.4248 76.9462 92.4032C76.235 91.9336 75.5239 91.4641 74.8127 90.9946C74.1492 90.6076 73.4032 90.2682 72.6572 89.9288C71.2128 89.3325 69.7812 88.9489 68.4924 88.8128C67.1561 88.5943 65.915 88.5407 64.8517 88.6045C64.7216 88.5696 64.6391 88.6173 64.5565 88.6649C64.4264 88.6301 64.4264 88.63 64.2963 88.5952C64.036 88.5254 63.728 88.3732 63.4677 88.3034C63.728 88.3732 64.0232 88.3128 64.2835 88.3825C64.4962 88.3697 64.6263 88.4046 64.839 88.3918C68.9527 88.6572 73.1488 88.8748 77.5228 89.2099C81.6017 89.6053 85.763 89.9532 89.9371 90.5136C90.0196 90.466 90.0672 90.5485 90.1974 90.5834C92.3495 90.881 94.5016 91.1787 96.7014 91.5589C97.222 91.6984 97.6601 91.8855 98.2283 92.1075C100.323 92.8782 102.609 93.9788 105.085 95.4095C107.384 96.7229 109.825 98.2837 112.362 100.01C112.587 100.21 112.765 100.327 113.073 100.479C113.251 100.597 113.381 100.631 113.476 100.796C113.832 101.031 114.187 101.266 114.591 101.583C114.603 101.796 114.568 101.926 114.664 102.091C114.715 102.942 114.766 103.792 114.865 104.726C114.963 105.659 115.014 106.509 115.161 107.525C115.603 111.34 116.449 115.472 118.275 119.589C120.054 123.622 122.74 127.132 125.823 129.423C127.388 130.609 128.941 131.583 130.515 132.214C130.645 132.249 130.693 132.332 130.823 132.367C130.953 132.402 131.001 132.484 131.131 132.519C131.309 132.636 131.522 132.624 131.699 132.741C132.09 132.846 132.48 132.95 132.871 133.055C133.652 133.264 134.385 133.391 135.118 133.517C135.851 133.644 136.619 133.641 137.305 133.685C137.435 133.72 137.518 133.672 137.648 133.707C137.553 133.542 137.54 133.329 137.445 133.164C137.228 132.409 137.047 131.524 136.866 130.638C136.624 129.457 136.453 128.016 136.281 126.575C136.109 125.134 135.924 123.481 135.657 121.875C135.39 120.269 135.11 118.45 134.535 116.692C134.271 115.854 133.96 114.934 133.566 114.061C133.172 113.188 132.778 112.315 132.172 111.455C131.695 110.63 131.006 109.818 130.413 109.171C129.771 108.441 129.095 107.841 128.371 107.159C127.018 105.96 125.466 104.986 124.009 104.177C121.012 102.606 118.136 101.627 115.663 100.964C115.533 100.929 115.273 100.859 115.143 100.824C115.012 100.79 114.752 100.72 114.622 100.685C114.266 100.45 113.911 100.215 113.685 100.016C110.923 98.0898 108.174 96.3767 105.698 94.9459C103.885 93.9023 102.133 93.1537 100.511 92.4401C101.114 92.5319 101.764 92.7063 102.285 92.8458C103.929 93.2166 105.574 93.5875 107.218 93.9583C108.862 94.3292 110.424 94.7476 112.068 95.1185C112.589 95.258 113.109 95.3975 113.582 95.4544C113.713 95.4893 113.843 95.5242 113.973 95.5591C114.884 95.8032 115.877 95.9997 116.788 96.2438C120.906 97.2772 124.94 98.3583 128.845 99.4045C129.33 99.6741 129.994 100.061 130.657 100.448C130.883 100.648 131.143 100.718 131.451 100.87C131.759 101.022 131.984 101.222 132.292 101.374C132.826 101.727 133.407 102.161 134.07 102.548C135.185 103.335 136.347 104.204 137.426 105.121C137.343 105.169 137.261 105.217 137.261 105.217C137.261 105.217 137.391 105.252 137.604 105.239C137.734 105.274 137.829 105.439 137.959 105.474C138.137 105.591 138.232 105.756 138.41 105.873C138.522 107.019 138.728 108.33 138.983 109.723C139.371 111.92 139.902 114.364 140.94 116.734C141.395 117.902 142.061 119.057 142.681 120.13C143.383 121.155 144.037 122.097 144.856 122.945C145.675 123.792 146.399 124.474 147.205 125.109C147.383 125.226 147.609 125.426 147.786 125.543C147.917 125.578 147.964 125.661 148.094 125.696C148.224 125.73 148.272 125.813 148.402 125.848C148.58 125.965 148.758 126.083 149.018 126.152C149.196 126.27 149.456 126.339 149.634 126.457C151.174 127.218 152.428 127.484 153.373 127.598C153.373 127.598 153.373 127.598 153.456 127.551C153.586 127.586 153.586 127.586 153.669 127.538C153.621 127.455 153.573 127.373 153.561 127.16C153.357 126.618 153.236 126.027 152.985 125.402C152.601 123.974 152.108 122.168 151.781 120.267C151.635 119.251 151.488 118.235 151.294 117.137C151.1 116.039 150.906 114.941 150.582 113.808C150.379 113.265 150.258 112.675 149.972 112.18C149.829 111.932 149.686 111.685 149.626 111.389C149.483 111.142 149.34 110.894 149.197 110.647C148.543 109.704 147.854 108.892 147.083 108.127C146.359 107.445 145.47 106.858 144.676 106.436C144.238 106.249 143.882 106.014 143.444 105.827C143.006 105.64 142.698 105.488 142.308 105.383C140.911 104.87 139.67 104.816 138.819 104.867C138.819 104.867 138.737 104.915 138.689 104.832L138.642 104.75C138.594 104.667 138.464 104.632 138.416 104.55C137.159 103.515 135.819 102.529 134.705 101.742C134.041 101.355 133.46 100.92 132.844 100.616C132.536 100.463 132.311 100.264 132.003 100.111C131.695 99.959 131.517 99.8416 131.209 99.6894C132.511 100.038 133.765 100.304 134.984 100.701C136.025 100.98 137.066 101.259 138.19 101.49C138.32 101.525 138.32 101.525 138.45 101.56C142.958 102.698 147.205 103.766 151.309 104.587C155.379 105.538 159.305 106.241 162.972 106.875C163.232 106.945 163.54 107.097 163.8 107.167C164.238 107.354 164.676 107.541 165.079 107.858L165.127 107.941C165.483 108.175 165.791 108.328 166.194 108.645C166.245 109.496 166.309 110.559 166.29 111.67C166.288 113.762 166.098 116.291 166.099 119.151C166.141 120.557 166.147 122.094 166.367 123.617C166.392 124.042 166.5 124.42 166.608 124.798C166.716 125.175 166.742 125.601 166.85 125.978C167.066 126.734 167.282 127.489 167.546 128.327C168.671 131.418 170.408 134.046 172.332 136.235C174.208 138.342 176.307 139.881 178.167 141.007C179.364 141.746 180.501 142.19 181.459 142.517C181.507 142.6 181.589 142.552 181.637 142.634C181.672 142.504 181.707 142.374 181.694 142.161C181.808 141.216 181.944 139.927 182.033 138.556C182.118 136.416 182.177 133.852 181.798 131.1C181.502 128.3 180.851 125.266 179.596 122.14C178.389 119.096 176.734 116.421 174.858 114.314C173.064 112.16 171 110.491 169.187 109.447C168.168 108.825 167.292 108.451 166.416 108.077C166.368 107.994 166.286 108.042 166.238 107.959C166.06 107.842 165.752 107.69 165.575 107.572C165.444 107.537 165.267 107.42 165.136 107.385C165.397 107.455 165.609 107.442 165.87 107.512C166 107.547 166.13 107.582 166.212 107.534L166.343 107.569C169.961 108.12 173.437 108.424 176.462 108.327C176.675 108.315 176.887 108.302 177.017 108.337C177.23 108.324 177.36 108.359 177.525 108.264C178.662 108.708 179.881 109.104 181.112 109.713C182.604 110.392 184.274 111.188 185.861 112.032C187.531 112.828 189.379 113.741 191.296 114.395C193.261 115.13 195.296 115.606 197.531 115.856C201.87 116.321 206.145 115.723 209.709 114.655C213.356 113.54 216.387 112.12 218.862 110.691C220.017 110.024 220.96 109.37 221.95 108.798L222.032 108.751C221.985 108.668 221.854 108.633 221.807 108.551C221.759 108.468 221.677 108.516 221.629 108.434C220.48 107.777 218.88 106.72 216.937 105.642C215.918 105.02 214.686 104.411 213.454 103.802C212.223 103.193 210.778 102.597 209.334 102C207.807 101.452 206.197 100.951 204.506 100.497C204.245 100.428 204.115 100.393 203.855 100.323C203.594 100.253 203.382 100.266 203.204 100.149C202.731 100.092 202.341 99.9871 201.868 99.9302C201.395 99.8732 200.922 99.8162 200.496 99.8417C200.284 99.8545 200.023 99.7848 199.811 99.7975C199.598 99.8103 199.338 99.7405 199.125 99.7533C197.199 99.6555 195.462 99.8878 193.726 100.12C192.841 100.301 192.038 100.435 191.2 100.699C190.822 100.807 190.397 100.832 189.984 101.07C189.607 101.178 189.229 101.286 188.769 101.442C185.712 102.437 183.107 103.831 181.092 105.104C179.489 106.139 178.264 107.067 177.287 107.851C177.204 107.899 177.204 107.899 177.122 107.946C176.909 107.959 176.697 107.972 176.484 107.985C173.411 107.998 170.018 107.647 166.269 107.061L166.139 107.026C166.057 107.074 166.009 106.991 165.927 107.039C161.527 106.279 156.737 105.414 151.674 104.266C147.522 103.363 143.145 102.26 138.637 101.122C139.796 101.223 141.037 101.276 142.313 101.2C142.608 101.139 142.868 101.209 143.163 101.149C143.459 101.088 143.801 101.11 144.014 101.098C144.652 101.059 145.242 100.939 145.88 100.9C147.109 100.741 148.42 100.535 149.73 100.328C150.321 100.207 151.041 100.121 151.632 100C152.139 99.9271 152.647 99.8539 153.107 99.6982C153.78 99.5298 154.418 99.4915 155.091 99.323C155.221 99.3579 155.221 99.3579 155.351 99.3928C155.742 99.4974 156.18 99.6845 156.701 99.824C157.221 99.9635 157.612 100.068 158.132 100.208C159.173 100.487 160.249 100.635 161.408 100.737C162.567 100.838 163.808 100.891 165.084 100.815C166.359 100.738 167.718 100.614 169.064 100.277C170.457 100.023 171.673 99.651 172.923 99.1491C173.548 98.8982 174.091 98.6948 174.716 98.4439C175.259 98.2406 175.836 97.9071 176.331 97.6213C177.322 97.0496 178.312 96.478 179.172 95.8714C179.337 95.7762 179.502 95.6809 179.667 95.5856C179.324 95.5635 178.981 95.5414 178.591 95.4368C178.461 95.4019 178.33 95.367 178.2 95.3322C176.651 95.1263 174.959 94.673 172.925 94.1975C171.931 94.0011 170.807 93.7697 169.731 93.6209C168.573 93.5197 167.462 93.501 166.233 93.6601C165.005 93.8192 163.92 94.2258 162.834 94.6324C161.749 95.0391 160.794 95.4806 159.873 95.7919C158.045 96.6273 156.335 97.2849 154.884 98.0122C154.637 98.1551 154.342 98.2155 154.177 98.3108C153.964 98.3236 153.751 98.3363 153.504 98.4792C152.193 98.686 150.93 98.9752 149.619 99.182C148.308 99.3887 147.08 99.5478 145.851 99.7069C145.213 99.7452 144.623 99.866 144.068 99.8566C143.773 99.917 143.43 99.8949 143.217 99.9077C142.922 99.9681 142.662 99.8983 142.366 99.9588C140.878 100.048 139.342 100.055 138.1 100.001C138.018 100.049 137.97 99.9665 137.888 100.014C137.332 100.005 136.859 99.9478 136.386 99.8908C136.174 99.9036 136.044 99.8687 135.831 99.8815C135.701 99.8466 135.571 99.8118 135.488 99.8594C132.104 98.9527 128.59 98.0111 125.076 97.0695C122.603 96.4069 120.131 95.7444 117.575 95.1294C117.315 95.0597 117.055 94.9899 116.794 94.9202C117.988 94.8912 119.264 94.8146 120.705 94.6428C122.571 94.4454 124.59 93.9401 126.595 93.2221C126.678 93.1744 126.76 93.1268 126.76 93.1268C126.843 93.0792 126.925 93.0315 127.056 93.0664C127.624 93.2884 128.157 93.6405 128.856 93.8974C130.43 94.5286 132.182 95.2771 134.135 95.8002C136.087 96.3233 138.122 96.7987 140.486 97.0836C142.721 97.3337 145.156 97.3583 147.612 97.0401C150.069 96.7219 152.56 96.2736 155.074 95.4824C160.101 93.9001 164.57 91.5403 168.162 88.8063C169.999 87.4155 171.576 85.9549 172.988 84.5896C173.67 83.8657 174.353 83.1418 174.952 82.4655C175.469 81.8369 176.069 81.1606 176.551 80.6621C176.634 80.6145 176.634 80.6145 176.669 80.4843C176.786 80.3065 176.869 80.2589 176.986 80.0811C176.773 80.0939 176.513 80.0241 176.253 79.9544C174.916 79.7358 173.485 79.3522 171.971 79.0162C170.149 78.528 168.196 78.0049 166.079 77.5771C163.962 77.1493 161.714 76.6866 159.48 76.4365C157.115 76.1516 154.715 75.9968 152.294 76.1849C151.998 76.2453 151.656 76.2232 151.361 76.2836C151.065 76.344 150.723 76.3219 150.427 76.3823C149.789 76.4206 149.199 76.5414 148.609 76.6622C148.314 76.7226 148.018 76.783 147.723 76.8434C147.428 76.9038 147.133 76.9642 146.838 77.0246C146.247 77.1454 145.705 77.3487 145.114 77.4695C142.848 78.1178 140.773 79.096 138.957 80.1441C137.06 81.2397 135.422 82.4051 133.963 83.6879C132.503 84.9707 131.256 86.2408 130.352 87.5329C129 89.1934 127.991 90.876 127.217 92.203C127.052 92.2983 126.84 92.311 126.592 92.4539C126.427 92.5492 126.297 92.5143 126.132 92.6096C124.291 93.2323 122.403 93.7725 120.666 94.0048C118.553 94.3451 116.639 94.46 114.89 94.4796C114.63 94.4098 114.369 94.3401 114.109 94.2703C113.979 94.2355 113.849 94.2006 113.718 94.1657C113.458 94.096 113.198 94.0262 112.938 93.9565C111.376 93.538 109.732 93.1671 108.087 92.7963C106.443 92.4255 104.881 92.007 103.154 91.6838C102.291 91.5222 101.51 91.313 100.647 91.1514C99.7832 90.9898 99.0023 90.7805 98.1389 90.6189C97.666 90.5619 97.193 90.5049 96.6724 90.3655C97.5707 90.3969 98.5515 90.3807 99.7449 90.3518C100.383 90.3135 100.938 90.3228 101.611 90.1544C102.249 90.1161 102.97 90.0301 103.643 89.8617C105.036 89.6073 106.512 89.3053 107.975 88.7907C108.14 88.6954 108.353 88.6826 108.518 88.5874C108.683 88.4921 108.895 88.4793 109.06 88.384C109.39 88.1935 109.768 88.0854 110.181 87.8473C110.511 87.6567 110.923 87.4185 111.253 87.228L111.501 87.0851L111.748 86.9421C111.913 86.8469 112.078 86.7516 112.326 86.6087C112.491 86.5134 112.738 86.3705 112.903 86.2752C113.068 86.1799 113.268 85.9545 113.433 85.8592C113.598 85.764 113.798 85.5385 113.963 85.4433C114.128 85.348 114.328 85.1226 114.493 85.0273C115.141 84.4335 115.74 83.7573 116.34 83.081C117.492 81.6459 118.383 80.1411 119.322 78.7189C120.214 77.2141 120.988 75.887 121.844 74.5124C122.666 73.2679 123.535 72.1059 124.5 71.1089C125.464 70.112 126.442 69.3276 127.337 68.591C127.784 68.2226 128.362 67.8892 128.774 67.651C129.269 67.3651 129.764 67.0793 130.259 66.7935C129.882 66.9015 129.504 67.0096 128.996 67.0827C128.914 67.1304 128.783 67.0955 128.701 67.1431C127.685 67.2895 126.457 67.4486 125.086 67.3601C123.715 67.2717 122.296 67.1008 120.747 66.895C119.198 66.6891 117.436 66.4961 115.639 66.4332C112.011 66.4375 107.974 67.4481 104.309 69.6744C102.494 70.7224 100.821 72.0179 99.457 73.4658C99.1398 73.869 98.7748 74.1897 98.4576 74.5929C98.1403 74.9961 97.9055 75.3517 97.5406 75.6724C96.9886 76.4311 96.4365 77.1899 95.8845 77.9487C93.8889 80.9711 92.5314 83.9551 91.6213 86.5709C91.3423 87.6121 91.0156 88.5707 90.854 89.4341C90.5589 89.4946 90.2161 89.4724 90.0034 89.4852C86.0896 88.9945 82.1409 88.6339 78.4049 88.2605C74.0309 87.9255 69.7871 87.6253 65.5909 87.4076C65.4607 87.3728 65.2481 87.3855 65.1179 87.3507C63.3214 87.2878 61.6074 87.1772 59.941 87.1492C59.8584 87.1968 59.8108 87.1143 59.7283 87.1619C47.9682 86.8007 37.4748 86.9183 28.5431 87.4544C19.6114 87.9905 12.4541 88.9324 7.51873 89.9116C6.92839 90.0324 6.33806 90.1532 5.74772 90.274C5.15738 90.3948 4.69718 90.5504 4.18935 90.6236C3.22133 90.8525 2.46597 91.0685 1.84076 91.3195C0.837865 91.6785 0.16501 91.8469 -1.15562e-05 91.9422C0.212648 91.9294 0.837861 91.6785 1.88839 91.402C2.56124 91.2336 3.31661 91.0175 4.28463 90.7886C4.74482 90.633 5.25265 90.5598 5.76048 90.4866C6.35082 90.3658 6.85866 90.2926 7.53151 90.1242C12.3844 89.1926 19.6369 88.4159 28.5337 88.0099C37.4305 87.6039 48.0541 87.5212 59.7793 88.0126C59.9095 88.0475 60.1222 88.0347 60.2047 87.987C60.6776 88.044 61.1506 88.101 61.6235 88.158C62.2266 88.2499 62.9599 88.3766 63.6583 88.6335C63.9186 88.7032 64.2265 88.8555 64.4868 88.9252C64.6646 89.0426 64.8773 89.0298 65.055 89.1472C65.0933 89.7852 65.0967 90.5533 65.1002 91.3214C65.1198 93.0704 64.9744 94.9146 64.9242 96.9238C64.9149 97.4792 64.8579 97.9522 64.9311 98.46C64.9438 98.6727 64.9217 99.0155 64.9345 99.2281C64.9473 99.4408 64.9251 99.7836 64.9855 100.079C65.0494 101.142 65.1608 102.288 65.4024 103.469C65.9205 105.7 66.9116 107.988 68.2803 110.168C69.649 112.348 71.4303 114.29 73.329 116.054C75.2753 117.901 77.2913 119.487 79.2597 120.991C80.2439 121.743 81.3106 122.448 82.2472 123.117C83.1838 123.786 84.0727 124.373 84.8791 125.008C84.9268 125.09 85.0569 125.125 85.1046 125.208L85.1522 125.29C85.0918 124.995 85.1139 124.652 85.0535 124.357C84.4249 123.84 84.4087 122.859 84.4401 121.961ZM123.657 104.71C125.114 105.519 126.536 106.458 127.889 107.657C128.565 108.257 129.159 108.904 129.8 109.634C130.394 110.282 130.953 111.059 131.429 111.884C131.906 112.709 132.382 113.534 132.728 114.325C133.122 115.197 133.386 116.035 133.649 116.873C134.177 118.549 134.539 120.32 134.806 121.926C135.074 123.532 135.341 125.138 135.56 126.661C135.78 128.185 136.069 129.448 136.358 130.711C136.539 131.597 136.803 132.435 137.019 133.19C136.416 133.098 135.73 133.054 135.127 132.962C134.394 132.835 133.743 132.661 132.962 132.452C132.572 132.347 132.182 132.242 131.874 132.09C131.696 131.973 131.483 131.986 131.305 131.868C131.175 131.833 131.128 131.751 130.997 131.716C130.867 131.681 130.82 131.599 130.69 131.564C129.198 130.885 127.61 130.041 126.128 128.807C123.257 126.503 120.666 123.159 118.853 119.255C117.122 115.304 116.193 111.219 115.668 107.452C115.57 106.519 115.471 105.585 115.372 104.652C115.274 103.719 115.223 102.869 115.172 102.018L115.124 101.935C117.127 103.309 119 104.648 120.413 106.143C121.375 107.237 122.125 108.345 122.744 109.417C123.363 110.49 123.9 111.61 124.342 112.566C125.19 114.606 125.882 116.187 126.419 117.307C126.705 117.802 126.861 118.262 127.051 118.592C126.908 118.345 126.752 117.885 126.502 117.259C126.047 116.091 125.437 114.463 124.589 112.423C124.23 111.42 123.693 110.3 123.109 109.097C122.525 107.894 121.728 106.704 120.765 105.609C119.803 104.514 118.629 103.432 117.336 102.528C116.803 102.176 116.352 101.776 115.771 101.342C118.339 102.169 121.003 103.162 123.657 104.71ZM141.791 106.012C142.099 106.164 142.489 106.269 142.845 106.504C143.235 106.608 143.591 106.843 143.946 107.078C144.657 107.547 145.416 108.099 146.14 108.781C146.864 109.464 147.553 110.276 148.077 111.184C148.22 111.431 148.363 111.679 148.458 111.844C148.553 112.009 148.744 112.339 148.804 112.634C149.008 113.177 149.163 113.637 149.367 114.18C149.967 116.363 150.273 118.607 150.73 120.543C151.188 122.479 151.681 124.285 152.195 125.748C152.399 126.291 152.602 126.834 152.758 127.294C151.894 127.132 150.675 126.736 149.396 126.044C149.218 125.927 149.04 125.809 148.862 125.692C148.685 125.575 148.507 125.457 148.329 125.34C148.199 125.305 148.151 125.223 148.021 125.188C147.891 125.153 147.843 125.07 147.796 124.988C147.618 124.87 147.393 124.671 147.215 124.553C146.456 124.001 145.684 123.236 144.995 122.424C144.306 121.612 143.57 120.717 142.998 119.727C142.426 118.737 141.807 117.664 141.353 116.496C140.362 114.208 139.748 111.812 139.326 109.745C139.132 108.647 138.938 107.549 138.709 106.581C139.61 107.381 140.43 108.228 141.201 108.993C141.747 109.557 142.246 110.04 142.662 110.57C142.887 110.77 143.16 111.052 143.303 111.299C143.529 111.499 143.672 111.747 143.897 111.947C144.265 112.394 144.586 112.759 144.907 113.124C145.002 113.289 145.227 113.489 145.323 113.654C145.418 113.819 145.513 113.984 145.691 114.101C146.059 114.549 146.25 114.879 146.25 114.879C146.25 114.879 146.059 114.549 145.774 114.054C145.678 113.889 145.583 113.724 145.488 113.559C145.392 113.394 145.297 113.229 145.154 112.981C144.916 112.569 144.678 112.156 144.31 111.709C144.167 111.461 143.941 111.261 143.798 111.014C143.655 110.766 143.382 110.484 143.239 110.236C142.823 109.706 142.36 109.094 141.861 108.611C140.947 107.599 139.95 106.635 138.775 105.553C139.448 105.384 140.572 105.616 141.791 106.012ZM176.712 127.435C176.544 126.762 176.185 125.76 175.766 124.461C175.394 123.246 174.831 121.7 174.139 120.12C173.793 119.33 173.399 118.457 172.97 117.714C172.576 116.842 172.1 116.016 171.658 115.061C171.134 114.154 170.658 113.328 170.099 112.551C169.54 111.773 168.981 110.996 168.388 110.349C168.067 109.984 167.746 109.619 167.343 109.302C167.521 109.419 167.829 109.571 168.054 109.771C169.832 110.945 171.718 112.496 173.512 114.651C175.306 116.806 176.913 119.398 178.072 122.36C179.232 125.321 179.966 128.307 180.345 131.059C180.723 133.811 180.829 136.28 180.826 138.372C180.82 139.695 180.767 140.937 180.735 141.835C179.859 141.461 178.805 140.969 177.739 140.265C176.008 139.173 173.992 137.587 172.163 135.562C170.334 133.538 168.68 130.863 167.651 127.937C166.491 124.975 166.265 121.916 166.181 119.104C166.098 116.291 166.205 113.809 166.077 111.683C166.014 110.619 165.915 109.686 165.864 108.835C166.54 109.435 167.216 110.035 167.905 110.847C168.963 112.107 169.998 113.71 170.998 115.442C171.475 116.267 171.869 117.14 172.345 117.965C172.739 118.838 173.168 119.581 173.596 120.323C174.371 121.856 174.968 123.271 175.47 124.522C176.461 126.81 177.024 128.356 177.071 128.438C177.071 128.438 176.963 128.061 176.712 127.435ZM177.985 108.108C179.426 107.936 180.82 107.682 182.083 107.392C183.511 107.008 184.892 106.541 186.06 106.087C187.227 105.632 188.278 105.356 189.198 105.045C190.119 104.733 190.922 104.6 191.512 104.479C192.775 104.19 193.461 104.234 193.496 104.104C193.496 104.104 193.366 104.069 192.94 104.094C192.728 104.107 192.515 104.12 192.302 104.133C192.09 104.145 191.795 104.206 191.452 104.184C190.861 104.304 189.976 104.486 189.09 104.667C188.122 104.896 187.119 105.255 185.904 105.626C184.688 105.998 183.39 106.418 181.962 106.802C180.486 107.104 178.88 107.371 177.096 107.521L177.014 107.569C177.956 106.914 179.229 106.07 180.584 105.177C182.647 103.986 185.217 102.722 188.191 101.776C188.569 101.667 188.947 101.559 189.324 101.451C189.702 101.343 190.08 101.235 190.457 101.127C191.213 100.911 192.098 100.73 192.901 100.596C194.637 100.364 196.373 100.132 198.218 100.277C198.43 100.265 198.643 100.252 198.903 100.322C199.116 100.309 199.376 100.379 199.589 100.366C200.062 100.423 200.487 100.397 200.878 100.502C201.351 100.559 201.741 100.663 202.214 100.72C202.427 100.708 202.687 100.777 202.817 100.812C203.077 100.882 203.207 100.917 203.468 100.987C205.112 101.357 206.721 101.858 208.248 102.407C209.775 102.956 211.09 103.517 212.404 104.078C213.718 104.64 214.82 105.214 215.921 105.788C217.947 106.819 219.534 107.663 220.683 108.32C219.858 108.796 218.916 109.45 217.795 109.987C215.272 111.334 212.242 112.753 208.63 113.738C205.018 114.724 200.955 115.309 196.746 114.879C194.642 114.663 192.607 114.188 190.69 113.535C188.772 112.881 186.972 112.05 185.303 111.254C183.633 110.458 181.963 109.662 180.436 109.113C179.773 108.726 178.814 108.4 177.985 108.108ZM155.291 99.0976C155.669 98.9896 156.011 99.0117 156.389 98.9037C158.668 98.4681 160.652 98.0929 162.34 97.7781C165.717 97.1486 167.818 96.5956 167.771 96.5131C167.723 96.4306 165.644 96.6407 162.219 97.1878C160.531 97.5025 158.5 97.7952 156.221 98.2308L156.138 98.2784C157.141 97.9194 158.309 97.4652 159.429 96.9284C160.385 96.4869 161.387 96.1279 162.39 95.7689C163.393 95.4099 164.479 95.0033 165.624 94.8918C166.723 94.6979 167.834 94.7165 168.992 94.8177C170.068 94.9666 171.097 95.0329 172.09 95.2294C174.03 95.5398 175.804 95.9455 177.305 96.0688C176.645 96.4499 175.985 96.831 175.325 97.2121C174.83 97.498 174.287 97.7013 173.662 97.9522C173.119 98.1555 172.494 98.4065 171.952 98.6098C170.784 99.0641 169.52 99.3533 168.257 99.6426C166.946 99.8493 165.636 100.056 164.36 100.133C163.084 100.209 161.89 100.238 160.732 100.137C159.573 100.036 158.497 99.8869 157.421 99.7381C156.948 99.6811 156.427 99.5416 155.954 99.4846C155.812 99.2371 155.551 99.1674 155.291 99.0976ZM126.76 93.1268C126.925 93.0315 127.221 92.9711 127.386 92.8758C130.017 91.9069 132.34 90.7857 134.545 89.8423C136.703 88.8164 138.662 88.0159 140.277 87.1933C141.94 86.4532 143.225 85.8211 144.05 85.3448C145.006 84.9033 145.418 84.6651 145.37 84.5826C145.323 84.5 144.78 84.7034 143.907 85.0972C142.987 85.4086 141.654 85.9581 139.991 86.6982C138.328 87.4383 136.37 88.2388 134.164 89.1822C131.959 90.1256 129.588 91.1643 127.039 92.0856C126.874 92.1809 126.662 92.1936 126.497 92.2889C127.271 90.9619 128.292 89.492 129.609 87.9617C129.726 87.7839 129.891 87.6886 130.009 87.5108C130.091 87.4632 130.126 87.333 130.209 87.2854C130.291 87.2377 130.326 87.1076 130.409 87.0599C130.691 86.7869 131.056 86.4662 131.291 86.1106C131.373 86.063 131.408 85.9328 131.491 85.8852C131.573 85.8376 131.608 85.7074 131.691 85.6598C131.808 85.482 132.055 85.3391 132.173 85.1613C132.538 84.8406 132.82 84.5675 133.185 84.2468C134.562 83.0117 136.33 81.8811 138.145 80.8331C139.96 79.7851 142.001 78.9369 144.267 78.2887C144.857 78.1679 145.4 77.9646 145.908 77.8914C146.203 77.831 146.498 77.7706 146.793 77.7102C147.089 77.6498 147.384 77.5894 147.679 77.529C148.269 77.4082 148.86 77.2874 149.415 77.2967C149.71 77.2363 150.053 77.2585 150.348 77.198C150.643 77.1376 150.986 77.1598 151.281 77.0993C153.703 76.9113 156.103 77.0661 158.337 77.3161C160.572 77.5661 162.772 77.9463 164.889 78.3742C167.006 78.802 168.959 79.3251 170.781 79.8133C172.165 80.1144 173.466 80.4631 174.755 80.5992C174.273 81.0977 173.79 81.5962 173.308 82.0946C172.708 82.7709 172.026 83.4948 171.344 84.2187C169.979 85.6665 168.355 87.0446 166.6 88.3878C163.043 90.9917 158.704 93.3863 153.712 94.8385C151.281 95.582 148.837 96.1129 146.38 96.4311C144.006 96.7016 141.619 96.7595 139.385 96.5095C137.15 96.2594 135.081 95.9141 133.128 95.391C131.176 94.8679 129.471 94.2019 127.945 93.6533C127.637 93.5011 127.199 93.3139 126.76 93.1268ZM106.893 79.2942C106.011 80.2435 105.011 81.3706 103.847 82.593C102.634 83.7329 101.257 84.968 99.6198 86.1335C98.8423 86.6923 98.0172 87.1687 97.1921 87.6451C96.367 88.1215 95.5291 88.3852 94.8214 88.6838C93.2758 89.2461 91.7174 89.5958 90.4415 89.6723C90.4415 89.6723 90.4415 89.6723 90.359 89.72C90.5206 88.8566 90.8472 87.8979 91.1738 86.9392C92.1316 84.406 93.5368 81.5044 95.5799 78.5646C96.0495 77.8534 96.6015 77.0947 97.2012 76.4184C97.5185 76.0152 97.8009 75.7421 98.1182 75.3389C98.4354 74.9357 98.7179 74.6626 99.0828 74.3419C100.412 73.0242 102.002 71.7763 103.817 70.7283C107.365 68.6799 111.19 67.682 114.77 67.5952C116.519 67.5756 118.233 67.6861 119.782 67.8919C121.331 68.0977 122.832 68.221 124.204 68.3095C125.184 68.2933 126.083 68.3247 126.886 68.1912C126.638 68.3341 126.391 68.477 126.143 68.6199C125.201 69.2741 124.141 70.106 123.129 71.0205C122.164 72.0175 121.164 73.1446 120.308 74.5192C119.404 75.8114 118.595 77.2685 117.738 78.6432C116.799 80.0655 115.908 81.5703 114.791 82.8752C112.605 85.5675 109.647 87.4951 106.803 88.4768C105.34 88.9915 103.912 89.376 102.649 89.6652C101.976 89.8337 101.338 89.872 100.748 89.9928C100.11 90.0311 99.5195 90.1519 98.8815 90.1902C96.5423 90.3306 94.6632 90.3153 93.3396 90.3094C93.127 90.3221 92.8667 90.2524 92.654 90.2652C92.2636 90.1606 91.9208 90.1384 91.4954 90.164C92.5587 90.1002 93.7394 89.8585 94.955 89.4868C95.7929 89.2231 96.5831 88.8768 97.4558 88.483C98.3286 88.0891 99.1537 87.6127 100.014 87.0062C101.651 85.8408 103.111 84.558 104.275 83.3356C105.44 82.1132 106.474 80.8559 107.226 79.8717C108.812 77.8557 109.669 76.481 109.621 76.3985C109.691 76.1382 108.657 77.3955 106.893 79.2942ZM82.0567 122.787C81.0725 122.035 80.1359 121.366 79.0692 120.661C77.1008 119.157 75.0847 117.571 73.186 115.807C71.2874 114.043 69.5886 112.053 68.2326 110.086C66.829 108.036 65.8857 105.83 65.4152 103.681C65.1387 102.631 65.0273 101.485 64.9634 100.422C64.9507 100.209 64.9728 99.8661 64.96 99.6535C64.9472 99.4408 64.9693 99.098 64.9566 98.8853C64.9659 98.3299 64.9404 97.9045 64.9498 97.3491C64.9999 95.3399 65.0977 93.4132 65.0781 91.6643C65.0398 91.0263 65.084 90.3407 65.0933 89.7852C65.4013 89.9375 65.7092 90.0897 66.0648 90.3245C66.9061 90.8289 67.6776 91.5936 68.4492 92.3583C69.2207 93.123 69.9574 94.0179 70.6115 94.9603C71.9199 96.8453 73.0632 98.8256 73.8985 100.654C74.8164 102.434 75.6042 104.179 76.3664 105.5C77.0461 106.867 77.713 108.023 78.1417 108.765C78.3799 109.178 78.5228 109.425 78.6657 109.673C78.761 109.838 78.8086 109.92 78.8086 109.92C78.8086 109.92 78.7134 109.755 78.6657 109.673C78.5705 109.508 78.3799 109.178 78.2719 108.8C77.9256 108.01 77.3889 106.89 76.7092 105.522C76.112 104.106 75.3719 102.443 74.4889 100.533C73.6059 98.6223 72.5451 96.5944 71.1891 94.6269C69.8332 92.6594 68.1948 90.965 66.4169 89.7911C66.1915 89.5912 65.9312 89.5215 65.7534 89.4041C66.6517 89.4356 67.5976 89.5495 68.5911 89.746C69.845 90.0122 71.1941 90.4435 72.5909 90.9572C73.2893 91.2141 73.9528 91.6011 74.6988 91.9405C75.3623 92.3275 76.0734 92.797 76.7846 93.2666C78.1244 94.2533 79.3944 95.5003 80.547 96.9251C81.6172 98.3975 82.5699 100.048 83.1101 101.936C83.5168 103.022 83.7107 104.12 83.9047 105.218C83.8094 105.053 83.7142 104.888 83.6189 104.723C83.476 104.475 83.2854 104.145 83.0949 103.815C82.9043 103.485 82.6313 103.203 82.4407 102.873C81.9771 102.26 81.3357 101.53 80.7419 100.883C80.018 100.201 79.3894 99.6837 78.7608 99.1666C78.4052 98.9318 78.1321 98.6494 77.8242 98.4971C77.5163 98.3449 77.2432 98.0625 76.9829 97.9927C76.675 97.8405 76.4972 97.7231 76.3194 97.6057C76.1416 97.4883 75.8813 97.4186 75.7512 97.3837C75.4432 97.2315 75.2654 97.1141 75.2306 97.2442C75.2306 97.2442 75.8941 97.6312 76.9131 98.253C77.1386 98.4529 77.4465 98.6052 77.7544 98.7574C78.0624 98.9097 78.3354 99.1921 78.691 99.4269C79.3196 99.944 79.9959 100.544 80.6722 101.143C81.3485 101.743 81.9073 102.521 82.4535 103.085C82.7265 103.368 82.9171 103.698 83.1901 103.98C83.3807 104.31 83.6061 104.51 83.749 104.758C83.8919 105.005 84.0348 105.253 84.1777 105.5C84.2637 106.221 84.3845 106.811 84.4704 107.532C84.6678 109.398 84.6049 111.194 84.6245 112.943C84.6441 114.692 84.5685 116.276 84.4928 117.86C84.4996 119.396 84.4588 120.85 84.4529 122.174C84.5039 123.024 84.555 123.875 84.5584 124.643C83.4441 123.856 82.7329 123.387 82.0567 122.787Z" fill="#E8BC7F"/>
<path d="M82.3986 119.945C82.3033 119.78 82.1732 119.745 82.0779 119.58C81.9001 119.462 81.354 118.897 80.5348 118.05C79.5378 117.086 78.255 115.626 76.9595 113.954C75.6639 112.281 74.8762 110.536 74.4568 109.238C74.0374 107.94 73.9863 107.089 73.8562 107.054C73.8562 107.054 73.8689 107.267 73.8945 107.692C73.92 108.117 73.9932 108.625 74.2918 109.333C74.6286 110.679 75.5465 112.459 76.7596 114.179C78.0551 115.851 79.4204 117.263 80.4999 118.18C81.1762 118.78 81.627 119.18 81.9001 119.462C81.77 119.427 81.7223 119.345 81.7223 119.345C81.7223 119.345 81.878 119.805 82.1987 120.17C82.567 120.617 82.8401 120.9 82.9226 120.852C82.9575 120.722 82.7669 120.392 82.3986 119.945Z" fill="#E8BC7F"/>
<path d="M126.784 127.658C126.749 127.788 127.01 127.858 127.283 128.14C127.46 128.257 127.591 128.292 127.638 128.375C127.768 128.41 127.816 128.492 127.816 128.492C127.816 128.492 127.768 128.41 127.721 128.327C127.673 128.245 127.578 128.08 127.4 127.962C127.079 127.597 126.819 127.528 126.784 127.658Z" fill="#E8BC7F"/>
<path d="M133.274 122.7C133.607 123.277 133.928 123.642 133.928 123.642C133.928 123.642 133.855 123.134 133.521 122.557C133.188 121.979 132.949 121.567 132.867 121.614C132.784 121.662 132.94 122.122 133.274 122.7Z" fill="#E8BC7F"/>
<path d="M178.857 134.008C179.108 134.634 179.476 135.081 179.476 135.081C179.476 135.081 179.356 134.491 179.105 133.865C178.854 133.24 178.568 132.745 178.485 132.793C178.485 132.793 178.606 133.383 178.857 134.008Z" fill="#E8BC7F"/>
<path d="M148.63 123.959C149.081 124.359 149.437 124.594 149.567 124.629C149.567 124.629 149.471 124.464 149.424 124.381C149.329 124.216 149.103 124.016 148.878 123.817C148.427 123.417 147.941 123.147 147.906 123.277C147.776 123.242 148.179 123.56 148.63 123.959Z" fill="#E8BC7F"/>
<path d="M72.8897 102.335C73.1058 103.09 73.2742 103.763 73.4299 104.223C73.4903 104.518 73.5031 104.731 73.5507 104.813C73.5983 104.896 73.5635 105.026 73.5635 105.026C73.5635 105.026 73.5158 104.943 73.5507 104.813C73.5856 104.683 73.5728 104.47 73.5124 104.175C73.4392 103.667 73.3533 102.947 73.1372 102.192C72.7051 100.681 71.9208 99.7035 71.9208 99.7035C71.7558 99.7988 72.375 100.871 72.8897 102.335Z" fill="#E8BC7F"/>
<path d="M171.932 126.013C171.944 126.226 171.957 126.439 172.018 126.734C172.078 127.029 172.056 127.372 172.116 127.667C172.177 127.962 172.202 128.388 172.358 128.848C172.466 129.225 172.539 129.733 172.695 130.193C172.924 131.161 173.235 132.082 173.724 133.12C174.166 134.075 174.607 135.03 175.084 135.855C175.322 136.268 175.56 136.68 175.833 136.963C176.024 137.293 176.344 137.658 176.487 137.905C176.678 138.235 176.903 138.435 177.046 138.683C177.189 138.93 177.367 139.048 177.51 139.295C177.783 139.578 177.878 139.743 177.878 139.743C177.878 139.743 177.735 139.495 177.51 139.295C177.414 139.13 177.189 138.93 177.046 138.683C176.903 138.435 176.678 138.235 176.487 137.905C176.297 137.575 176.106 137.245 175.833 136.963C175.642 136.633 175.404 136.22 175.166 135.808C174.69 134.982 174.248 134.027 173.807 133.072C173.448 132.069 173.089 131.066 172.825 130.228C172.669 129.768 172.561 129.39 172.536 128.965C172.428 128.587 172.402 128.162 172.294 127.784C172.04 126.391 171.989 125.54 171.941 125.458C171.941 125.458 171.954 125.671 171.932 126.013Z" fill="#E8BC7F"/>
<path d="M119.308 112.611C119.253 110.993 119.45 109.999 119.32 109.964C119.32 109.964 119.25 110.224 119.193 110.697C119.136 111.17 119.092 111.856 119.095 112.624C119.146 113.475 119.245 114.408 119.521 115.458C119.798 116.509 120.122 117.642 120.706 118.845C121.697 121.133 123.006 123.018 123.98 124.325C124.492 125.02 124.86 125.468 125.098 125.88C125.289 126.21 125.467 126.328 125.514 126.41C125.419 126.245 124.86 125.468 124.015 124.195C123.123 122.84 121.897 120.908 120.824 118.667C120.287 117.547 119.963 116.414 119.686 115.363C119.505 114.478 119.359 113.462 119.308 112.611Z" fill="#E8BC7F"/>
<path d="M172.225 120.233C172.095 120.198 171.946 121.274 171.94 122.598C171.979 123.236 172.099 123.826 172.207 124.204C172.315 124.582 172.458 124.829 172.376 124.877C172.376 124.877 172.315 124.582 172.338 124.239C172.312 123.814 172.321 123.258 172.283 122.62C172.159 121.262 172.273 120.316 172.225 120.233Z" fill="#E8BC7F"/>
<path d="M127.57 113.015C127.748 113.133 128.056 113.285 128.363 113.437C128.992 113.954 129.681 114.767 130.418 115.661C131.155 116.556 131.726 117.546 132.19 118.159C132.38 118.489 132.571 118.819 132.666 118.984C132.761 119.149 132.857 119.314 132.857 119.314C132.857 119.314 132.809 119.232 132.749 118.936C132.653 118.771 132.545 118.394 132.355 118.064C132.056 117.356 131.485 116.366 130.7 115.388C129.916 114.411 129.144 113.646 128.516 113.129C128.125 113.025 127.817 112.872 127.57 113.015Z" fill="#E8BC7F"/>
<path d="M67.4637 107.228C67.222 106.048 66.8724 104.489 66.6401 102.753C66.4078 101.017 66.3057 99.3157 66.2419 98.2524C66.213 97.0589 66.2572 96.3733 66.1271 96.3385C66.1271 96.3385 66.0922 96.4686 66.0701 96.8114C66.0479 97.1542 65.991 97.6272 65.9816 98.1826C66.0106 99.3761 66.0651 100.995 66.2973 102.731C66.5296 104.467 66.9269 106.108 67.251 107.241C67.4543 107.784 67.61 108.244 67.6704 108.539C67.7308 108.834 67.8261 108.999 67.8261 108.999C67.8261 108.999 67.8133 108.787 67.6704 108.539C67.7401 108.279 67.5845 107.819 67.4637 107.228Z" fill="#E8BC7F"/>
<path d="M167.759 120.505C167.629 120.47 167.477 120.778 167.55 121.286C167.563 121.499 167.658 121.664 167.753 121.829C167.849 121.994 167.849 121.994 167.849 121.994C167.849 121.994 167.871 121.651 167.763 121.273C167.785 120.93 167.807 120.588 167.759 120.505Z" fill="#E8BC7F"/>
<path d="M142.364 112.72C142.364 112.72 142.485 113.31 142.749 114.148C143.012 114.986 143.467 116.154 144.181 117.391C144.896 118.629 145.597 119.654 146.109 120.349C146.429 120.714 146.572 120.961 146.798 121.161C146.976 121.279 147.071 121.444 147.071 121.444C147.071 121.444 146.976 121.279 146.88 121.114C146.737 120.866 146.512 120.666 146.274 120.254C145.763 119.559 145.143 118.486 144.429 117.248C143.844 116.046 143.307 114.925 142.914 114.053C142.52 113.18 142.364 112.72 142.364 112.72Z" fill="#E8BC7F"/>
<path d="M66.4629 94.8212C66.542 94.0054 66.5037 93.3675 66.3735 93.3326C66.291 93.3802 66.1992 93.9833 66.1201 94.7991C66.041 95.6149 66.2094 96.2877 66.2094 96.2877C66.2094 96.2877 66.3838 95.637 66.4629 94.8212Z" fill="#E8BC7F"/>
<path d="M73.4748 95.7261C73.4272 95.6436 73.3447 95.6912 73.2622 95.7389C73.1796 95.7865 73.1448 95.9166 73.1448 95.9166C73.1924 95.9992 73.3574 95.9039 73.3574 95.9039L73.4748 95.7261Z" fill="#E8BC7F"/>
<path d="M175.65 119.688C175.031 118.616 174.389 117.886 174.389 117.886C174.307 117.933 174.831 118.841 175.402 119.831C175.974 120.821 176.663 121.634 176.663 121.634C176.615 121.551 176.221 120.678 175.65 119.688Z" fill="#E8BC7F"/>
<path d="M147.039 111.672C147.824 112.649 148.595 113.414 148.595 113.414C148.547 113.332 148.023 112.424 147.239 111.447C146.455 110.469 145.766 109.657 145.683 109.705C145.731 109.787 146.255 110.695 147.039 111.672Z" fill="#E8BC7F"/>
<path d="M167.825 116.614C167.878 115.372 168.11 114.249 168.027 114.296C167.897 114.262 167.618 115.303 167.53 116.674C167.485 117.36 167.606 117.95 167.632 118.375C167.657 118.801 167.8 119.048 167.8 119.048C167.8 119.048 167.787 118.835 167.762 118.41C167.771 117.855 167.78 117.299 167.825 116.614Z" fill="#E8BC7F"/>
<path d="M198.155 112.744C198.107 112.662 197.634 112.605 196.996 112.643C196.358 112.681 195.898 112.837 195.898 112.837C195.898 112.837 196.419 112.976 197.057 112.938C197.695 112.9 198.12 112.874 198.155 112.744Z" fill="#E8BC7F"/>
<path d="M100.565 83.386C100.447 83.5638 100.46 83.7765 100.508 83.859C100.473 83.9891 100.521 84.0717 100.521 84.0717C100.521 84.0717 100.673 83.7637 100.825 83.4558C100.977 83.1479 101.177 82.9224 101.13 82.8399C101.13 82.8399 100.752 82.948 100.565 83.386Z" fill="#E8BC7F"/>
<path d="M186.913 103.944C186.913 103.944 187.338 103.919 187.881 103.715C188.341 103.56 188.753 103.321 188.706 103.239C188.658 103.156 188.281 103.264 187.738 103.468C187.195 103.671 186.913 103.944 186.913 103.944Z" fill="#E8BC7F"/>
<path d="M207.715 112.727C209.959 112.422 211.93 111.834 213.263 111.284C213.971 110.986 214.466 110.7 214.796 110.509C215.126 110.319 215.374 110.176 215.326 110.093C215.278 110.011 214.501 110.57 213.168 111.119C211.835 111.669 209.864 112.257 207.703 112.514C205.541 112.772 203.497 112.852 201.961 112.859C200.555 112.901 199.704 112.952 199.574 112.917C199.704 112.952 200.602 112.983 201.926 112.989C203.462 112.982 205.554 112.985 207.715 112.727Z" fill="#E8BC7F"/>
<path d="M167.816 98.6856C168.324 98.6124 168.654 98.4219 168.654 98.4219C168.606 98.3394 167.39 98.7111 165.806 98.6354C165.038 98.6389 164.353 98.5947 163.832 98.4552C163.572 98.3854 163.359 98.3982 163.229 98.3633C163.099 98.3284 162.969 98.2935 162.969 98.2935C162.969 98.2935 163.099 98.3284 163.147 98.4109C163.277 98.4458 163.454 98.5632 163.715 98.6329C164.235 98.7724 164.969 98.8992 165.737 98.8957C166.587 98.8447 167.308 98.7588 167.816 98.6856Z" fill="#E8BC7F"/>
<path d="M106.697 83.1469C106.449 83.2898 106.38 83.5501 106.38 83.5501C106.38 83.5501 106.592 83.5374 106.84 83.3944C107.087 83.2515 107.205 83.0737 107.157 82.9912C107.11 82.9087 106.862 83.0516 106.697 83.1469Z" fill="#E8BC7F"/>
<path d="M140.91 91.3386C140.992 91.2909 140.684 91.1387 140.294 91.0341C140.081 91.0468 139.951 91.012 139.786 91.1072C139.704 91.1549 139.621 91.2025 139.621 91.2025L139.751 91.2374C139.881 91.2723 140.012 91.3071 140.142 91.342C140.697 91.3513 140.958 91.4211 140.91 91.3386Z" fill="#E8BC7F"/>
<path d="M217.068 108.537C217.103 108.407 216.452 108.233 215.601 108.284C215.176 108.309 214.798 108.417 214.586 108.43C214.291 108.491 214.208 108.538 214.208 108.538C214.208 108.538 214.846 108.5 215.614 108.496C216.382 108.493 216.985 108.585 217.068 108.537Z" fill="#E8BC7F"/>
<path d="M206.386 106.231C206.339 106.148 206.078 106.079 205.736 106.056C205.393 106.034 205.015 106.142 205.015 106.142C205.015 106.142 205.323 106.295 205.666 106.317C206.056 106.421 206.351 106.361 206.386 106.231Z" fill="#E8BC7F"/>
<path d="M173.849 97.5153C173.802 97.4327 172.951 97.4838 171.935 97.6301C170.837 97.8241 170.047 98.1703 170.047 98.1703C170.047 98.1703 170.898 98.1193 171.996 97.9253C173.011 97.779 173.897 97.5978 173.849 97.5153Z" fill="#E8BC7F"/>
<path d="M97.6648 77.0302C97.6648 77.0302 97.2174 77.3986 96.7479 78.1097C96.1958 78.8685 95.5264 79.8051 94.7872 81.0019C94.1305 82.1512 93.5564 83.2527 93.2646 84.0813C93.0775 84.5194 92.9253 84.8273 92.8555 85.0876C92.7858 85.3479 92.7509 85.478 92.7509 85.478C92.7509 85.478 93.0205 84.9923 93.4424 84.1987C93.8643 83.405 94.4385 82.3034 95.0952 81.1542C95.7518 80.005 96.4561 78.9382 96.9257 78.2271C97.3952 77.5159 97.7125 77.1127 97.6648 77.0302Z" fill="#E8BC7F"/>
<path d="M212.947 106.735C210.535 106.368 208.608 106.27 208.608 106.27C208.608 106.27 210.548 106.58 212.96 106.948C214.166 107.131 215.242 107.28 215.976 107.407C216.709 107.534 217.264 107.543 217.264 107.543C217.264 107.543 216.826 107.356 216.045 107.147C215.277 107.15 214.154 106.919 212.947 106.735Z" fill="#E8BC7F"/>
<path d="M133.729 86.9035C133.481 87.0465 133.234 87.1894 133.034 87.4148C132.869 87.5101 132.704 87.6054 132.704 87.6054C132.704 87.6054 132.834 87.6402 133.081 87.4973C133.294 87.4845 133.542 87.3416 133.872 87.1511C134.449 86.8176 134.849 86.3668 134.719 86.3319C134.671 86.2494 134.306 86.5701 133.729 86.9035Z" fill="#E8BC7F"/>
<path d="M191.867 101.854C192.162 101.794 192.505 101.816 192.8 101.756C193.52 101.67 194.371 101.619 195.352 101.603C196.333 101.586 197.444 101.605 198.554 101.624C199.665 101.642 200.741 101.791 201.687 101.905C202.633 102.019 203.497 102.181 204.23 102.308C205.696 102.561 206.608 102.805 206.56 102.723C206.56 102.723 206.382 102.605 205.992 102.501C205.814 102.383 205.554 102.313 205.211 102.291C204.95 102.222 204.56 102.117 204.217 102.095C203.484 101.968 202.621 101.807 201.627 101.61C200.681 101.496 199.605 101.347 198.494 101.329C197.383 101.31 196.272 101.291 195.291 101.307C194.311 101.324 193.425 101.505 192.705 101.591C192.409 101.651 192.114 101.712 191.867 101.854C191.524 101.832 191.311 101.845 191.099 101.858C190.721 101.966 190.508 101.979 190.508 101.979C190.508 101.979 190.803 101.918 191.146 101.94C191.276 101.975 191.572 101.915 191.867 101.854Z" fill="#E8BC7F"/>
<path d="M109.176 74.6761C109.176 74.6761 109.602 74.6505 109.932 74.46C110.344 74.2218 110.674 74.0313 110.627 73.9487C110.579 73.8662 110.201 73.9743 109.871 74.1648C109.411 74.3205 109.176 74.6761 109.176 74.6761Z" fill="#E8BC7F"/>
<path d="M146.271 90.3317C148.067 90.3946 150.619 90.2415 153.419 89.9454C154.777 89.8212 156.088 89.6144 157.351 89.3252C158.532 89.0836 159.617 88.677 160.407 88.3307C161.28 87.9369 161.81 87.5209 162.305 87.2351C162.553 87.0922 162.67 86.9144 162.752 86.8667C162.835 86.8191 162.918 86.7714 162.87 86.6889C162.822 86.6064 161.975 87.4256 160.312 88.1657C159.522 88.5119 158.519 88.8709 157.256 89.1602C156.075 89.4018 154.764 89.6085 153.406 89.7327C150.606 90.0288 148.185 90.2169 146.353 90.2841C145.502 90.3352 144.734 90.3386 144.179 90.3293C143.754 90.3548 143.411 90.3327 143.411 90.3327C143.493 90.285 143.754 90.3548 144.179 90.3293C144.604 90.3037 145.372 90.3003 146.271 90.3317Z" fill="#E8BC7F"/>
<path d="M112.333 80.3332C111.673 80.7143 111.013 81.0954 110.47 81.2987C109.975 81.5846 109.515 81.7402 109.185 81.9308C108.938 82.0737 108.773 82.169 108.725 82.0865C108.725 82.0865 108.89 81.9912 109.185 81.9308C109.48 81.8704 109.893 81.6322 110.518 81.3812C111.061 81.1779 111.768 80.8793 112.429 80.4982C113.089 80.1171 113.831 79.6884 114.656 79.212C115.481 78.7356 116.176 78.2244 116.741 77.6783C117.354 77.2147 117.966 76.751 118.366 76.3002C118.813 75.9319 119.131 75.5286 119.331 75.3032C119.53 75.0778 119.648 74.9 119.648 74.9C119.648 74.9 119.035 75.3636 118.14 76.1003C117.693 76.4686 117.163 76.8846 116.468 77.3959C115.856 77.8595 115.161 78.3707 114.336 78.8471C113.736 79.5234 112.993 79.9521 112.333 80.3332Z" fill="#E8BC7F"/>
<path d="M106.818 73.0674C107.1 72.7944 107.382 72.5213 107.713 72.3307C107.878 72.2355 107.995 72.0577 108.16 71.9624C108.325 71.8671 108.49 71.7718 108.525 71.6417C109.55 70.9399 110.292 70.5112 110.292 70.5112C110.292 70.5112 110.127 70.6065 109.75 70.7145C109.585 70.8098 109.42 70.905 109.172 71.0479C108.925 71.1909 108.677 71.3338 108.43 71.4767C108.265 71.572 108.182 71.6196 108.017 71.7149C107.852 71.8101 107.687 71.9054 107.57 72.0832C107.24 72.2738 106.957 72.5468 106.592 72.8675C105.945 73.4613 105.298 74.055 104.663 74.8615C104.028 75.6679 103.476 76.4267 103.089 77.0902C102.855 77.4457 102.702 77.7537 102.515 78.1918C102.398 78.3696 102.363 78.4997 102.246 78.6775C102.211 78.8076 102.093 78.9854 102.058 79.1156C101.906 79.4235 101.836 79.6838 101.767 79.9441C101.697 80.2044 101.58 80.3822 101.592 80.5948C101.488 80.9853 101.453 81.1154 101.453 81.1154C101.453 81.1154 101.57 80.9376 101.675 80.5472C101.71 80.4171 101.779 80.1568 101.897 79.979C101.967 79.7187 102.036 79.4584 102.236 79.233C102.271 79.1028 102.388 78.925 102.423 78.7949C102.541 78.6171 102.576 78.4869 102.693 78.3091C102.845 78.0012 103.08 77.6456 103.315 77.2901C103.784 76.5789 104.336 75.8201 104.888 75.0614C105.523 74.2549 106.17 73.6612 106.818 73.0674Z" fill="#E8BC7F"/>
<path d="M141.52 82.2955C142.557 81.8063 143.808 81.3044 145.106 80.885C146.404 80.4656 147.667 80.1764 148.8 79.8523C149.39 79.7315 149.898 79.6583 150.406 79.5851C150.701 79.5247 150.914 79.512 151.127 79.4992C151.339 79.4865 151.634 79.426 151.847 79.4133C152.272 79.3878 152.698 79.3622 152.993 79.3018C153.336 79.3239 153.631 79.2635 153.926 79.2031C154.434 79.13 154.646 79.1172 154.646 79.1172C154.646 79.1172 154.386 79.0475 153.878 79.1206C153.666 79.1334 153.323 79.1113 152.98 79.0892C152.637 79.0671 152.212 79.0926 151.787 79.1181C151.574 79.1309 151.361 79.1437 151.066 79.2041C150.771 79.2645 150.558 79.2772 150.346 79.29C149.838 79.3631 149.247 79.4839 148.74 79.5571C147.559 79.7987 146.296 80.088 144.998 80.5074C143.7 80.9268 142.449 81.4287 141.411 81.9178C140.916 82.2036 140.374 82.4069 139.879 82.6928C139.631 82.8357 139.466 82.9309 139.219 83.0739C138.971 83.2168 138.806 83.3121 138.641 83.4073C138.228 83.6455 137.898 83.8361 137.616 84.1091C137.286 84.2997 137.038 84.4426 136.839 84.668C136.508 84.8586 136.309 85.084 136.226 85.1316C136.309 85.084 136.556 84.9411 136.886 84.7505C137.134 84.6076 137.381 84.4647 137.711 84.2741C138.041 84.0836 138.371 83.8931 138.784 83.6549C138.949 83.5596 139.196 83.4167 139.361 83.3214C139.609 83.1785 139.774 83.0832 140.022 82.9403C140.482 82.7846 140.977 82.4988 141.52 82.2955Z" fill="#E8BC7F"/>
<path d="M168.836 83.6875C168.836 83.6875 169.509 83.5191 170.252 83.0903C170.994 82.6616 171.572 82.3281 171.524 82.2456C171.477 82.1631 170.851 82.4141 170.109 82.8428C169.318 83.189 168.836 83.6875 168.836 83.6875Z" fill="#E8BC7F"/>
<path d="M112.147 72.9586C112.229 72.9109 112.69 72.7553 113.432 72.3265C114.222 71.9803 115.343 71.4435 116.676 70.894C117.926 70.3921 119.094 69.9378 119.932 69.6741C120.77 69.4104 121.312 69.207 121.312 69.207C121.312 69.207 120.805 69.2802 119.837 69.509C118.999 69.7728 117.783 70.1445 116.533 70.6464C115.282 71.1483 114.162 71.6851 113.337 72.1615C112.642 72.6727 112.147 72.9586 112.147 72.9586Z" fill="#E8BC7F"/>
<path d="M165.182 80.4049C165.902 80.319 166.883 80.3028 167.994 80.3215C170.133 80.4065 171.873 80.9424 171.908 80.8122C171.908 80.8122 171.47 80.6251 170.819 80.4507C170.168 80.2764 169.175 80.0799 168.064 80.0612C166.953 80.0425 166.02 80.1412 165.217 80.2748C164.839 80.3828 164.544 80.4432 164.331 80.456C164.509 80.5734 164.804 80.513 165.182 80.4049Z" fill="#E8BC7F"/>
</svg>
