<svg width="179" height="64" viewBox="0 0 179 64" fill="none" xmlns="http://www.w3.org/2000/svg">
<path d="M134.538 18.4805V45.1757H138.445V18.4805H134.538Z" fill="white"/>
<path fill-rule="evenodd" clip-rule="evenodd" d="M99.21 45.6092C97.6682 45.6092 96.3803 45.2502 95.3461 44.5318C95.2328 44.4534 95.1229 44.3717 95.0158 44.2868V45.1783H91.5684V18.9141H95.5042V30.1656C96.4697 29.5448 97.6377 29.2344 99.0088 29.2344C100.493 29.2344 101.786 29.5887 102.887 30.2973C103.988 31.006 104.841 31.9779 105.444 33.2132C106.057 34.439 106.363 35.8419 106.363 37.4217C106.363 38.9731 106.061 40.3663 105.458 41.6019C104.865 42.837 104.031 43.8138 102.959 44.5318C101.886 45.2502 100.637 45.6092 99.21 45.6092ZM95.3605 34.9513C95.1305 35.6598 95.0158 36.4832 95.0158 37.4217C95.0158 38.3601 95.1305 39.1839 95.3605 39.8923C95.5901 40.6011 95.9638 41.1515 96.4806 41.5444C97.0073 41.9369 97.7065 42.133 98.5779 42.133C99.4205 42.133 100.11 41.9225 100.646 41.5012C101.183 41.0799 101.58 40.5149 101.838 39.8061C102.097 39.0881 102.226 38.2934 102.226 37.4217C102.226 36.5599 102.092 35.7748 101.824 35.0663C101.556 34.348 101.14 33.7782 100.575 33.3568C100.019 32.926 99.3055 32.7105 98.4342 32.7105C97.6203 32.7105 96.9594 32.9068 96.4522 33.2994C95.9542 33.692 95.5901 34.2425 95.3605 34.9513Z" fill="white"/>
<path d="M85.3912 36.0112V45.1755H89.298V34.9773C89.298 33.2822 88.843 31.9129 87.9333 30.8691C87.0332 29.8157 85.6974 29.2891 83.926 29.2891C82.8917 29.2891 81.9486 29.5189 81.0964 29.9785C80.3161 30.3953 79.6795 30.968 79.1867 31.6967C78.8191 31.0354 78.3111 30.4914 77.6632 30.0647C76.8877 29.5476 75.8918 29.2891 74.6758 29.2891C73.6127 29.2891 72.6504 29.5237 71.7887 29.9929C71.1374 30.3515 70.5867 30.8079 70.1366 31.3621V29.6625H66.6895V45.1755H70.6249V35.7815C70.6249 34.891 70.8693 34.168 71.3577 33.6126C71.8556 33.0476 72.5114 32.7651 73.3253 32.7651C74.1778 32.7651 74.8432 33.0524 75.322 33.627C75.8104 34.1919 76.0547 34.9868 76.0547 36.0112V45.1755H79.9614V35.7815C79.9614 35.1877 80.0717 34.6658 80.2921 34.2159C80.5218 33.7562 80.8376 33.4019 81.2401 33.1529C81.6423 32.8944 82.1162 32.7651 82.6621 32.7651C83.5143 32.7651 84.1796 33.0524 84.6584 33.627C85.1468 34.1919 85.3912 34.9868 85.3912 36.0112Z" fill="white"/>
<path d="M52.6916 45.0189C53.4575 45.4306 54.4487 45.6367 55.665 45.6367C57.1873 45.6367 58.4468 45.3064 59.4427 44.6455C59.9154 44.3351 60.3319 43.9788 60.6923 43.5774V45.177H64.1397V29.6641H60.2039V37.5354C60.2039 38.493 60.0937 39.2685 59.8736 39.8623C59.6628 40.4465 59.39 40.8918 59.0546 41.1981C58.7196 41.4952 58.3606 41.6961 57.9776 41.8015C57.5946 41.9069 57.2352 41.9596 56.9002 41.9596C56.0672 41.9596 55.4207 41.7727 54.961 41.3993C54.511 41.0259 54.1855 40.5615 53.9843 40.0061C53.7834 39.4506 53.6636 38.8999 53.6252 38.354C53.5869 37.7989 53.5677 37.3441 53.5677 36.9895V29.6641H49.6035V38.3684C49.6035 38.6271 49.6223 39.0389 49.6607 39.6039C49.699 40.169 49.8092 40.796 49.9913 41.4856C50.173 42.1653 50.4749 42.8214 50.8962 43.4535C51.3271 44.0853 51.9256 44.6072 52.6916 45.0189Z" fill="white"/>
<path d="M108.087 29.665V45.178H112.023V37.2492C112.023 36.6554 112.104 36.1239 112.267 35.6546C112.43 35.1758 112.669 34.7641 112.985 34.4195C113.302 34.0651 113.689 33.7826 114.149 33.572C114.609 33.3517 115.121 33.2224 115.686 33.1841C116.26 33.1363 116.763 33.1793 117.194 33.3134V29.665C116.725 29.6075 116.255 29.598 115.786 29.6363C115.317 29.665 114.862 29.7464 114.422 29.8804C113.981 30.0049 113.574 30.1821 113.201 30.4119C112.713 30.6992 112.301 31.0631 111.966 31.5036C111.807 31.7121 111.663 31.9314 111.535 32.1613V29.665H108.087Z" fill="white"/>
<path fill-rule="evenodd" clip-rule="evenodd" d="M125.42 45.6092C123.83 45.6092 122.428 45.2693 121.212 44.5893C120.005 43.9 119.057 42.9568 118.368 41.7596C117.688 40.5532 117.348 39.1743 117.348 37.6229C117.348 35.9281 117.683 34.4533 118.353 33.1988C119.023 31.9443 119.947 30.9724 121.125 30.2829C122.303 29.5839 123.658 29.2344 125.19 29.2344C126.818 29.2344 128.202 29.6174 129.341 30.3835C130.481 31.1495 131.324 32.2268 131.869 33.6154C132.415 35.004 132.607 36.6365 132.444 38.5134H121.551C121.673 39.4446 121.963 40.201 122.418 40.7828C123.05 41.5683 123.974 41.9608 125.19 41.9608C125.957 41.9608 126.612 41.7931 127.158 41.4581C127.704 41.123 128.121 40.6394 128.408 40.0073L132.315 41.1278C131.731 42.545 130.806 43.646 129.543 44.4312C128.288 45.2166 126.914 45.6092 125.42 45.6092ZM127.819 33.6728C128.153 34.1264 128.377 34.773 128.491 35.6118H121.654C121.806 34.8955 122.061 34.3065 122.418 33.8452C123.05 33.0312 124.032 32.6243 125.363 32.6243C126.502 32.6243 127.321 32.9738 127.819 33.6728Z" fill="white"/>
<path d="M141.602 45.1757V18.4805H145.509V45.1757H141.602Z" fill="white"/>
<path fill-rule="evenodd" clip-rule="evenodd" d="M149.858 44.977C150.634 45.3983 151.577 45.6092 152.688 45.6092C154.029 45.6092 155.135 45.3792 156.006 44.9195C156.701 44.5496 157.357 44.0013 157.974 43.274V45.1783H161.393V35.6981C161.393 34.9896 161.364 34.3479 161.307 33.7734C161.249 33.1988 161.067 32.6243 160.761 32.0497C160.215 31.0155 159.41 30.2877 158.347 29.8664C157.284 29.4451 156.068 29.2344 154.699 29.2344C152.832 29.2344 151.357 29.6366 150.275 30.441C149.193 31.2453 148.456 32.2891 148.063 33.5723L151.597 34.6925C151.845 33.984 152.281 33.4909 152.904 33.2132C153.526 32.9355 154.124 32.7966 154.699 32.7966C155.733 32.7966 156.471 33.0121 156.911 33.443C157.257 33.7814 157.467 34.2702 157.541 34.9099C156.88 35.0102 156.253 35.1053 155.662 35.1953C154.656 35.3391 153.756 35.4924 152.961 35.6549C152.166 35.8179 151.482 36.0047 150.907 36.2152C150.074 36.5215 149.408 36.9048 148.91 37.3645C148.422 37.8145 148.068 38.3361 147.847 38.9299C147.627 39.5237 147.517 40.1798 147.517 40.8978C147.517 41.7596 147.714 42.5495 148.106 43.2679C148.508 43.9763 149.092 44.5462 149.858 44.977ZM155.331 42.1617C154.843 42.4109 154.239 42.5355 153.521 42.5355C153.071 42.5355 152.683 42.4684 152.358 42.3342C152.032 42.2001 151.778 42.0087 151.597 41.7596C151.424 41.5012 151.338 41.1945 151.338 40.8403C151.338 40.5819 151.391 40.3471 151.496 40.1367C151.611 39.9258 151.783 39.7345 152.013 39.562C152.252 39.3799 152.564 39.2126 152.947 39.0593C153.282 38.9347 153.67 38.8197 154.11 38.7146C154.551 38.6092 155.13 38.4942 155.848 38.3696C156.31 38.2837 156.862 38.1855 157.506 38.0756C157.497 38.3488 157.48 38.6575 157.457 39.0018C157.428 39.5572 157.313 40.0456 157.112 40.4669C157.007 40.687 156.806 40.9601 156.509 41.2856C156.222 41.6111 155.829 41.9033 155.331 42.1617Z" fill="white"/>
<path fill-rule="evenodd" clip-rule="evenodd" d="M28.0422 29.7764H17.4326V34.3967C17.4326 41.2957 23.0255 46.8887 29.9246 46.8887C36.8238 46.8887 42.4167 41.2957 42.4167 34.3967V29.7764H31.4647V22.4181C31.4647 19.4883 29.0897 17.1133 26.1599 17.1133C23.2301 17.1133 20.8551 19.4883 20.8551 22.4181H24.2775C24.2775 21.3785 25.1203 20.5357 26.1599 20.5357C27.1995 20.5357 28.0422 21.3785 28.0422 22.4181V29.7764ZM28.0422 33.1988V39.7015H31.4647V33.1988H38.9943V34.3967C38.9943 39.4058 34.9335 43.4662 29.9246 43.4662C24.9157 43.4662 20.8551 39.4058 20.8551 34.3967V33.1988H28.0422Z" fill="white"/>
</svg>
