<svg width="156" height="64" viewBox="0 0 156 64" fill="none" xmlns="http://www.w3.org/2000/svg">
<path d="M24.5652 20H20.4498C20.2289 20 20.0498 20.1791 20.0498 20.4V28.1548L24.5652 20Z" fill="white"/>
<path d="M20.0498 30.6491C20.0628 30.6496 20.0759 30.65 20.0892 30.65H26.3635C26.8546 30.65 27.2405 31.0695 27.1986 31.558L26.6557 37.8899C26.5785 38.7896 27.7867 39.1564 28.2244 38.366L34.744 26.5915C35.0528 26.0338 34.6487 25.35 34.0104 25.35H27.7361C27.245 25.35 26.8591 24.9305 26.901 24.442L27.2819 20H33.6134C39.4479 20 42.0634 27.3386 37.5509 31.0485L34.0234 33.9486C33.7924 34.1386 33.7469 34.4753 33.9192 34.7201L40.0062 43.3696C40.193 43.6348 40.0034 44 39.6792 44H20.4498C20.2289 44 20.0498 43.8208 20.0498 43.6V30.6491Z" fill="white"/>
<path d="M88.592 32.9938V39.0582H91.9417V32.2494C91.9417 31.4467 91.7669 30.7461 91.4165 30.1476C91.0809 29.5346 90.5992 29.0602 89.9716 28.7246C89.3436 28.3742 88.6141 28.199 87.7821 28.199C86.9649 28.199 86.2421 28.3742 85.6149 28.7246C85.4481 28.8137 85.2913 28.9133 85.1441 29.023C85.0645 29.0822 84.988 29.1445 84.914 29.2098V23.6016H81.5645V39.0582H84.914V32.9938C84.914 32.6289 84.9945 32.3078 85.1553 32.0305C85.3157 31.7385 85.5345 31.5195 85.8117 31.3736C86.0893 31.2131 86.41 31.1328 86.7748 31.1328C87.3004 31.1328 87.7312 31.308 88.0668 31.6582C88.4172 31.994 88.592 32.4391 88.592 32.9938Z" fill="white"/>
<path fill-rule="evenodd" clip-rule="evenodd" d="M51.3763 32.6873V39.0582H47.9395V23.6016H54.2443C55.2663 23.6016 56.1639 23.7986 56.9375 24.1926C57.7107 24.5721 58.3167 25.1049 58.7547 25.7908C59.1923 26.4768 59.4111 27.265 59.4111 28.1553C59.4111 29.0602 59.1923 29.8557 58.7547 30.5416C58.3167 31.2131 57.7039 31.7385 56.9155 32.118C56.4759 32.3297 55.9931 32.4824 55.4671 32.576L60.4187 39.0582H56.3463L51.7363 32.6873H51.3763ZM51.3763 30.1476H53.8287C54.5147 30.1476 55.0403 29.9724 55.4051 29.6221C55.7843 29.2719 55.9743 28.7974 55.9743 28.199C55.9743 27.6445 55.7919 27.1848 55.4267 26.8199C55.0619 26.4549 54.5367 26.2724 53.8507 26.2724H51.3763V30.1476Z" fill="white"/>
<path fill-rule="evenodd" clip-rule="evenodd" d="M62.6287 38.5971C63.5339 39.0641 64.5627 39.2977 65.7155 39.2977C66.6063 39.2977 67.4235 39.1443 68.1679 38.8379C68.9119 38.5312 69.5471 38.0715 70.0727 37.4586L68.2335 35.6195C67.9123 35.9843 67.5403 36.2617 67.1167 36.4515C66.6935 36.6265 66.2195 36.7143 65.6935 36.7143C65.1247 36.7143 64.6283 36.5975 64.2051 36.3639C63.7963 36.1158 63.4755 35.7728 63.2419 35.3349C63.1683 35.183 63.1075 35.0213 63.0587 34.8496L70.6855 34.8314C70.7439 34.5541 70.7803 34.3133 70.7947 34.109C70.8051 34.0326 70.8131 33.9582 70.8199 33.8853C70.8235 33.8492 70.8259 33.8137 70.8283 33.7785C70.8319 33.7256 70.8347 33.6736 70.8363 33.6227L70.8379 33.5664L70.8387 33.4959C70.8387 32.4595 70.6055 31.54 70.1383 30.7373C69.6859 29.9345 69.0583 29.307 68.2555 28.8545C67.4527 28.4021 66.5255 28.1758 65.4751 28.1758C64.3947 28.1758 63.4243 28.4166 62.5631 28.8982C61.7019 29.3799 61.0159 30.0441 60.5051 30.8906C60.0087 31.7225 59.7607 32.6713 59.7607 33.7367C59.7607 34.8021 60.0163 35.7582 60.5267 36.6047C61.0379 37.4511 61.7387 38.1154 62.6287 38.5971ZM63.0595 32.5502C63.0759 32.4931 63.0935 32.4373 63.1123 32.3826C63.1443 32.2904 63.1799 32.2015 63.2199 32.1166C63.4391 31.6787 63.7383 31.3429 64.1175 31.1095C64.5115 30.8613 64.9715 30.7373 65.4967 30.7373C65.9927 30.7373 66.4087 30.8469 66.7447 31.0658L66.7899 31.0927L66.8347 31.1215C66.8727 31.1467 66.9091 31.1732 66.9447 31.201C66.9795 31.2281 67.0135 31.2566 67.0463 31.2863C67.2499 31.4707 67.4119 31.7037 67.5327 31.9853C67.6063 32.1502 67.6655 32.334 67.7107 32.5369L63.0595 32.5502Z" fill="white"/>
<path d="M76.7249 39.2977C75.6297 39.2977 74.6373 39.0568 73.7469 38.5752C72.8569 38.0935 72.1565 37.4293 71.6453 36.5828C71.1345 35.7363 70.8789 34.7875 70.8789 33.7367C70.8789 32.6713 71.1345 31.7225 71.6453 30.8906C72.1709 30.0441 72.8785 29.3799 73.7689 28.8982C74.6593 28.4166 75.6589 28.1758 76.7685 28.1758C77.6001 28.1758 78.3589 28.3219 79.0453 28.6137C79.3949 28.7521 79.7249 28.9269 80.0345 29.1381C80.3449 29.35 80.6357 29.5984 80.9061 29.8836L78.7605 32.0291C78.5125 31.7517 78.2205 31.5475 77.8849 31.416C77.7333 31.3541 77.5709 31.3068 77.3965 31.274C77.3169 31.259 77.2353 31.2471 77.1513 31.2383C77.0645 31.2291 76.9753 31.2232 76.8833 31.2207C76.8453 31.2195 76.8073 31.2189 76.7685 31.2189C76.6501 31.2189 76.5349 31.2256 76.4229 31.2387L76.3625 31.2465L76.3249 31.2519C76.2861 31.258 76.2473 31.265 76.2089 31.2727C75.9465 31.3254 75.7025 31.417 75.4765 31.5475C75.1117 31.7517 74.8201 32.0435 74.6009 32.423C74.3965 32.7881 74.2941 33.2185 74.2941 33.7148C74.2941 34.2111 74.3965 34.649 74.6009 35.0283C74.8201 35.4078 75.1193 35.707 75.4985 35.926C75.8777 36.1449 76.3013 36.2545 76.7685 36.2545C77.2065 36.2545 77.5929 36.1814 77.9285 36.0355C78.2789 35.875 78.5781 35.656 78.8261 35.3787L80.9501 37.5242C80.3953 38.108 79.7677 38.5531 79.0673 38.8597C78.3665 39.1515 77.5857 39.2977 76.7249 39.2977Z" fill="white"/>
<path fill-rule="evenodd" clip-rule="evenodd" d="M97.6618 39.2773C96.6842 39.2773 95.8082 39.0365 95.035 38.5547C94.2758 38.073 93.6702 37.4164 93.2178 36.5843C92.7798 35.7525 92.5605 34.8037 92.5605 33.7383C92.5605 32.6728 92.7798 31.724 93.2178 30.8922C93.6702 30.0601 94.2758 29.4035 95.035 28.9217C95.8082 28.44 96.6842 28.1992 97.6618 28.1992C98.377 28.1992 99.0193 28.3379 99.5885 28.6152C99.9713 28.7971 100.307 29.0259 100.596 29.3017V28.4181H103.88V39.0584H100.596V38.1963C100.399 38.3828 100.177 38.548 99.9309 38.692C99.8861 38.7183 99.8402 38.7441 99.7934 38.7691C99.7338 38.8009 99.6726 38.8316 99.6102 38.8613C99.0266 39.1387 98.377 39.2773 97.6618 39.2773ZM98.341 36.256C99.0562 36.256 99.6321 36.0225 100.071 35.5555C100.509 35.0738 100.727 34.4679 100.727 33.7383C100.727 33.49 100.702 33.2564 100.651 33.0375C100.599 32.8185 100.523 32.6142 100.421 32.4246C100.231 32.0451 99.9533 31.7533 99.5885 31.549C99.3913 31.4258 99.1757 31.3373 98.9417 31.2834C98.7597 31.2414 98.5669 31.2205 98.3625 31.2205C98.1293 31.2205 97.9086 31.2478 97.701 31.3025C97.5742 31.3359 97.4517 31.3795 97.3345 31.4332C97.2593 31.4676 97.1861 31.5062 97.1145 31.549C96.7641 31.7533 96.4798 32.0451 96.2606 32.4246C96.0566 32.8041 95.9546 33.242 95.9546 33.7383C95.9546 34.2199 96.0566 34.6506 96.2606 35.0299C96.465 35.4093 96.7497 35.7086 97.1145 35.9275C97.4793 36.1465 97.8882 36.256 98.341 36.256Z" fill="white"/>
<path d="M108.712 28.4181H105.362V39.0584H108.712V33.2129C108.712 32.5267 108.873 32.016 109.194 31.6803C109.53 31.3301 109.975 31.1549 110.529 31.1549C110.807 31.1549 111.055 31.1986 111.274 31.2863C111.492 31.3738 111.675 31.4978 111.821 31.6584L113.813 29.1406C113.521 28.8195 113.178 28.5861 112.784 28.44C112.405 28.2795 111.96 28.1992 111.449 28.1992C110.281 28.1992 109.369 28.5424 108.712 29.2283V28.4181Z" fill="white"/>
<path fill-rule="evenodd" clip-rule="evenodd" d="M118.041 43.8309C116.873 43.8309 115.844 43.6265 114.954 43.2181C114.078 42.8241 113.385 42.2621 112.874 41.5321L114.932 39.4742C115.311 39.9267 115.735 40.2697 116.202 40.5033C116.683 40.7365 117.26 40.8533 117.931 40.8533C118.763 40.8533 119.412 40.6493 119.88 40.2405C120.361 39.8318 120.602 39.2553 120.602 38.5109V37.8389C120.374 38.0213 120.119 38.1795 119.836 38.3139C119.252 38.5912 118.603 38.7299 117.888 38.7299C116.909 38.7299 116.041 38.4965 115.282 38.0293C114.523 37.5623 113.925 36.9273 113.487 36.1246C113.049 35.3219 112.83 34.4316 112.83 33.4537C112.83 32.4611 113.049 31.5709 113.487 30.7826C113.925 29.9799 114.523 29.3523 115.282 28.8998C116.041 28.4328 116.909 28.1992 117.888 28.1992C118.617 28.1992 119.267 28.3379 119.836 28.6152C119.888 28.6387 119.94 28.6631 119.99 28.6885C120.238 28.8139 120.464 28.9621 120.668 29.1332V28.4181H123.952V38.4234C123.952 39.5181 123.696 40.4669 123.186 41.2693C122.675 42.0721 121.974 42.6997 121.084 43.1521C120.193 43.6049 119.179 43.8309 118.041 43.8309ZM118.522 35.7525C118.99 35.7525 119.391 35.6502 119.726 35.4459C119.812 35.3957 119.893 35.3414 119.969 35.2832C120.2 35.1049 120.382 34.8891 120.514 34.6359C120.571 34.5316 120.619 34.4236 120.658 34.3117C120.71 34.1666 120.748 34.0148 120.771 33.8566C120.79 33.7267 120.799 33.5924 120.799 33.4537C120.799 33.0158 120.704 32.6217 120.514 32.2715C120.34 31.9211 120.076 31.6437 119.726 31.4394C119.391 31.2351 118.99 31.133 118.522 31.133C118.384 31.133 118.252 31.1426 118.123 31.1615L118.056 31.1725L117.997 31.1834C117.87 31.209 117.747 31.2443 117.63 31.2894C117.564 31.3146 117.5 31.3429 117.438 31.3742C117.398 31.3947 117.358 31.4164 117.318 31.4394C116.968 31.6437 116.698 31.9211 116.508 32.2715C116.409 32.4539 116.336 32.6482 116.289 32.8545C116.245 33.0441 116.224 33.2439 116.224 33.4537C116.224 33.8623 116.318 34.249 116.508 34.6141C116.698 34.9642 116.96 35.2416 117.296 35.4459C117.484 35.5557 117.69 35.6361 117.912 35.6869C118.103 35.7307 118.306 35.7525 118.522 35.7525Z" fill="white"/>
<path fill-rule="evenodd" clip-rule="evenodd" d="M127.608 38.5971C128.513 39.0641 129.542 39.2977 130.695 39.2977C131.585 39.2977 132.403 39.1443 133.147 38.8379C133.891 38.5312 134.526 38.0715 135.051 37.4586L133.212 35.6195C132.891 35.9843 132.519 36.2617 132.096 36.4515C131.673 36.6265 131.198 36.7143 130.673 36.7143C130.104 36.7143 129.607 36.5975 129.184 36.3639C128.892 36.1869 128.645 35.9615 128.443 35.6877C128.411 35.6441 128.38 35.5992 128.35 35.5531C128.304 35.4834 128.261 35.4105 128.221 35.3349C128.147 35.183 128.086 35.0213 128.037 34.8496L135.665 34.8314C135.693 34.6945 135.717 34.5664 135.735 34.4473C135.754 34.325 135.767 34.2123 135.774 34.109C135.784 34.0318 135.793 33.9564 135.799 33.883C135.811 33.7478 135.818 33.6187 135.818 33.4959C135.818 32.4595 135.584 31.54 135.117 30.7373C134.665 29.9345 134.037 29.307 133.235 28.8545C132.431 28.4021 131.505 28.1758 130.454 28.1758C129.374 28.1758 128.403 28.4166 127.542 28.8982C126.681 29.3799 125.995 30.0441 125.484 30.8906C124.988 31.7225 124.74 32.6713 124.74 33.7367C124.74 34.8021 124.995 35.7582 125.506 36.6047C126.017 37.4511 126.717 38.1154 127.608 38.5971ZM128.039 32.5502C128.083 32.3967 128.136 32.2519 128.199 32.1166C128.324 31.8666 128.475 31.65 128.652 31.4668C128.714 31.4025 128.78 31.3424 128.849 31.2863C128.927 31.2221 129.009 31.1631 129.097 31.1095C129.491 30.8613 129.951 30.7373 130.476 30.7373C130.972 30.7373 131.388 30.8469 131.724 31.0658C131.858 31.1439 131.979 31.2369 132.087 31.3449C132.262 31.5193 132.404 31.7328 132.512 31.9853C132.585 32.1502 132.644 32.334 132.69 32.5369L128.039 32.5502Z" fill="white"/>
</svg>
