<svg width="160" height="64" viewBox="0 0 160 64" fill="none" xmlns="http://www.w3.org/2000/svg">
<path fill-rule="evenodd" clip-rule="evenodd" d="M47.9134 16.5621C49.145 17.0723 50.264 17.8203 51.2065 18.7632C52.1494 19.7056 52.8973 20.8246 53.4077 22.0562C53.9179 23.2878 54.1805 24.6079 54.1805 25.941C54.1805 27.2741 53.9179 28.5942 53.4077 29.8258C52.8973 31.0574 52.1494 32.1764 51.2065 33.1189L37.1269 47.1983C35.8943 48.4312 33.8956 48.4312 32.6631 47.1983L18.5835 33.1189C16.6799 31.2151 15.6104 28.6332 15.6104 25.941C15.6104 23.2488 16.6799 20.6669 18.5835 18.7632C20.4872 16.8595 23.0691 15.7901 25.7613 15.7901C28.4535 15.7901 31.0353 16.8595 32.939 18.7632L34.895 20.7191L36.8508 18.7632C37.7933 17.8203 38.9122 17.0723 40.1438 16.5621C41.3754 16.0517 42.6955 15.7891 44.0289 15.7891C45.3619 15.7891 46.6818 16.0517 47.9134 16.5621ZM29.5939 26.8265C28.1543 28.9854 27.0863 31.1575 27.0863 33.5132C27.0863 36.9836 29.0732 40.2463 31.9221 41.512L32.8963 40.1258C34.0723 38.7821 35.9795 38.7815 37.1562 40.1258L37.952 41.0349C40.8008 39.769 42.549 36.8013 42.549 33.5126C42.549 29.4279 39.1948 26.7633 39.1948 26.7633C38.858 26.4441 38.5776 26.5718 38.5764 27.0311C38.5764 27.0311 38.7877 31.0056 36.6982 31.0056C35.6339 31.0056 35.6148 29.9918 35.5873 28.5179C35.5524 26.6462 35.5037 24.0327 33.2825 21.8116C32.4074 21.0615 32.0559 20.7602 31.8941 20.8406C31.5158 21.0289 32.1792 23.312 29.5939 26.8265ZM38.818 23.4645C38.065 22.3028 36.6045 21.6344 35.9602 21.7461C35.6814 21.7942 35.7643 21.8859 35.9791 22.1237C36.2613 22.4361 36.7715 23.0005 36.9888 24.0492C37.3721 25.8953 39.8695 25.1427 38.818 23.4645Z" fill="white"/>
<path d="M81.1072 27.2593C80.5668 26.2687 79.8238 25.5144 78.8785 24.9966C77.9328 24.4787 76.8295 24.2198 75.5686 24.2198C74.1728 24.2198 72.9346 24.535 71.8538 25.1654C70.7729 25.7959 69.9288 26.6964 69.3209 27.8672C68.7131 29.0379 68.409 30.3888 68.409 31.9199C68.409 33.4959 68.7131 34.8693 69.3209 36.04C69.9513 37.2107 70.8182 38.1114 71.9212 38.7417C73.0245 39.372 74.3079 39.6874 75.7712 39.6874C77.5726 39.6874 79.0471 39.2144 80.1953 38.2691C81.3436 37.3006 82.0978 35.9613 82.4581 34.2502H74.3529V30.6365H87.1185V34.7566C86.8035 36.4003 86.128 37.92 85.0924 39.3158C84.0565 40.7117 82.7169 41.8374 81.0735 42.6929C79.4523 43.5261 77.6288 43.9426 75.6023 43.9426C73.3286 43.9426 71.2684 43.4359 69.4221 42.4228C67.5985 41.3873 66.1575 39.9574 65.0994 38.1339C64.0639 36.31 63.5459 34.2389 63.5459 31.9199C63.5459 29.6008 64.0639 27.5295 65.0994 25.7058C66.1575 23.8596 67.5985 22.4299 69.4221 21.4168C71.2684 20.3811 73.3173 19.8633 75.5686 19.8633C78.2254 19.8633 80.5331 20.5162 82.4918 21.822C84.4505 23.1054 85.8014 24.9178 86.5444 27.2593H81.1072Z" fill="white"/>
<path d="M106.32 33.98C106.32 34.6556 106.276 35.2634 106.186 35.8038H92.5085C92.6209 37.1547 93.0939 38.2127 93.9268 38.9782C94.7598 39.7437 95.7844 40.1265 97.0001 40.1265C98.7562 40.1265 100.005 39.3722 100.748 37.8637H105.848C105.307 39.665 104.272 41.1508 102.741 42.3218C101.21 43.4701 99.3303 44.0439 97.1015 44.0439C95.3002 44.0439 93.6793 43.6499 92.2382 42.8619C90.8199 42.0515 89.7053 40.9144 88.8949 39.4512C88.1069 37.9876 87.7129 36.2989 87.7129 34.3852C87.7129 32.449 88.1069 30.7492 88.8949 29.2858C89.6828 27.8223 90.7861 26.6966 92.2045 25.9086C93.6228 25.1206 95.2552 24.7266 97.1015 24.7266C98.8801 24.7266 100.467 25.1093 101.863 25.8748C103.281 26.6403 104.373 27.7323 105.139 29.1507C105.926 30.5466 106.32 32.1564 106.32 33.98ZM101.424 32.6291C101.401 31.4134 100.962 30.4453 100.107 29.7248C99.2516 28.9818 98.2045 28.6103 96.9664 28.6103C95.7956 28.6103 94.805 28.9705 93.9943 29.691C93.2063 30.389 92.7224 31.3685 92.5422 32.6291H101.424Z" fill="white"/>
<path d="M118.451 24.7617C120.68 24.7617 122.481 25.4709 123.855 26.8893C125.228 28.2852 125.915 30.244 125.915 32.7657V43.7415H121.187V33.4072C121.187 31.9215 120.815 30.7843 120.072 29.9964C119.329 29.1858 118.316 28.7805 117.033 28.7805C115.727 28.7805 114.691 29.1858 113.926 29.9964C113.183 30.7843 112.811 31.9215 112.811 33.4072V43.7415H108.083V25.0319H112.811V27.3621C113.442 26.5516 114.241 25.9212 115.209 25.4709C116.2 24.9981 117.281 24.7617 118.451 24.7617Z" fill="white"/>
<path d="M133.551 39.7556H144.156V43.7407H128.081V40.0934L138.617 24.153H128.081V20.168H144.156V23.8153L133.551 39.7556Z" fill="white"/>
</svg>
