<svg width="190" height="64" viewBox="0 0 190 64" fill="none" xmlns="http://www.w3.org/2000/svg">
<path d="M73.2178 17.1328H79.3258L72.6697 45.779H61.9275L55.2715 17.1328H61.3799L66.3511 40.7238H68.2465L73.2178 17.1328Z" fill="white"/>
<path d="M85.149 37.6493C85.177 38.9412 85.5139 39.882 86.1599 40.4718C86.8338 41.0335 87.7887 41.3143 89.0246 41.3143C91.6363 41.3143 93.9675 41.2301 96.0176 41.0616L97.1971 40.9352L97.2815 45.1059C94.0518 45.8921 91.1307 46.2855 88.519 46.2855C85.3457 46.2855 83.0425 45.4429 81.6104 43.7577C80.1778 42.0726 79.4619 39.3344 79.4619 35.543C79.4619 27.9883 82.5653 24.2109 88.7716 24.2109C94.894 24.2109 97.9554 27.3844 97.9554 33.7316L97.5341 37.6493H85.149ZM92.3946 33.3524C92.3946 31.6673 92.128 30.5018 91.5944 29.8559C91.0607 29.1819 90.1198 28.8449 88.7716 28.8449C87.4517 28.8449 86.5108 29.1959 85.9492 29.898C85.4156 30.572 85.135 31.7235 85.1066 33.3524H92.3946Z" fill="white"/>
<path d="M101.147 45.7798V24.7165H106.75V26.9492C109.109 25.5449 111.356 24.6322 113.491 24.2109V29.898C111.215 30.3755 109.264 30.8669 107.635 31.3725L106.792 31.6674V45.7798H101.147Z" fill="white"/>
<path d="M127.648 29.5174H122.466V38.1534C122.466 38.9959 122.48 39.5997 122.509 39.9648C122.565 40.3018 122.72 40.5967 122.972 40.8495C123.253 41.1023 123.674 41.2286 124.236 41.2286L127.438 41.1444L127.69 45.6521C125.808 46.0734 124.376 46.284 123.393 46.284C120.866 46.284 119.138 45.722 118.212 44.5988C117.285 43.4472 116.822 41.341 116.822 38.2798V29.5174H114.336V24.715H116.822V18.8594H122.466V24.715H127.648V29.5174Z" fill="white"/>
<path d="M130.481 45.7778V24.7144H136.126V45.7778H130.481ZM130.481 22.0182V16.2891H136.126V22.0182H130.481Z" fill="white"/>
<path d="M159.583 48.3893C159.583 50.8048 158.656 52.5879 156.803 53.7395C154.949 54.8911 152.435 55.4666 149.262 55.4666C146.117 55.4666 143.687 55.0454 141.974 54.2028C140.289 53.3606 139.446 51.8297 139.446 49.6113C139.446 47.8417 140.458 46.171 142.48 44.5981C141.44 43.8958 140.921 42.8286 140.921 41.3964C140.921 40.8347 141.342 39.908 142.185 38.616L142.564 38.0263C140.654 36.6501 139.699 34.6281 139.699 31.96C139.699 29.2639 140.5 27.3121 142.1 26.1044C143.729 24.8968 145.878 24.293 148.546 24.293C149.753 24.293 150.947 24.4334 152.127 24.7143L152.801 24.8407L159.583 24.63V29.1376L156.424 28.8848C157.041 29.8396 157.35 30.7945 157.35 31.7494C157.35 34.5578 156.634 36.4957 155.202 37.5629C153.77 38.6301 151.523 39.1637 148.461 39.1637C147.815 39.1637 147.24 39.1075 146.734 38.9952C146.454 39.7254 146.313 40.3292 146.313 40.8066C146.313 41.256 146.552 41.5649 147.029 41.7334C147.506 41.9019 148.63 42.0002 150.399 42.0283C153.938 42.0564 156.353 42.534 157.645 43.4605C158.937 44.3595 159.583 46.0023 159.583 48.3893ZM145.007 49.0213C145.007 50.2288 146.482 50.8328 149.43 50.8328C152.407 50.8328 153.896 50.1305 153.896 48.7263C153.896 47.9681 153.643 47.4768 153.138 47.2522C152.632 47.0555 151.565 46.9432 149.936 46.9148L146.145 46.6202C145.386 47.3785 145.007 48.1787 145.007 49.0213ZM145.344 31.7915C145.344 33.8417 146.411 34.8668 148.546 34.8668C150.708 34.8668 151.789 33.8417 151.789 31.7915C151.789 29.7133 150.708 28.6742 148.546 28.6742C146.411 28.6742 145.344 29.7133 145.344 31.7915Z" fill="white"/>
<path d="M163.297 27.1176C164.786 25.1798 167.271 24.2109 170.754 24.2109C174.236 24.2109 176.722 25.1798 178.21 27.1176C179.699 29.0274 180.443 31.7235 180.443 35.206C180.443 42.5921 177.213 46.2855 170.754 46.2855C164.295 46.2855 161.065 42.5921 161.065 35.206C161.065 31.7235 161.809 29.0274 163.297 27.1176ZM167.637 39.9663C168.226 40.9773 169.265 41.4828 170.754 41.4828C172.242 41.4828 173.267 40.9773 173.829 39.9663C174.419 38.9553 174.714 37.3685 174.714 35.206C174.714 33.0435 174.419 31.4707 173.829 30.4878C173.267 29.5048 172.242 29.0134 170.754 29.0134C169.265 29.0134 168.226 29.5048 167.637 30.4878C167.075 31.4707 166.794 33.0435 166.794 35.206C166.794 37.3685 167.075 38.9553 167.637 39.9663Z" fill="white"/>
<path fill-rule="evenodd" clip-rule="evenodd" d="M33.8598 15.5251C31.3372 14.4802 28.6079 14.0296 25.8833 14.2082C23.1586 14.3868 20.5116 15.1898 18.1469 16.555L15.761 17.9325L13.006 13.1608L15.3919 11.7833C18.4886 9.99544 21.9549 8.94394 25.5229 8.71006C29.0909 8.47623 32.6649 9.0663 35.9684 10.4346C39.2719 11.803 42.2163 13.9129 44.5739 16.6012C46.9313 19.2896 48.639 22.4842 49.5647 25.938C50.4899 29.3919 50.6086 33.0123 49.9109 36.5192C49.2133 40.0262 47.7184 43.3257 45.5416 46.1624C43.3647 48.9992 40.5648 51.2973 37.3579 52.8786C34.151 54.46 30.0145 55.2826 27.0476 55.2826C24.0805 55.2826 22.3481 54.8376 20.073 53.8954C17.8618 52.9795 15.8527 51.6372 14.1603 49.9448C12.4679 48.2524 11.1255 46.243 10.2096 44.0318C9.2937 41.8208 8.82227 39.4509 8.82227 37.0575C8.82227 34.6641 9.2937 32.2942 10.2096 30.0831C11.1255 27.8719 12.4679 25.8627 14.1603 24.1704C15.8527 22.478 17.8618 21.1356 20.073 20.2196C22.2841 19.3038 24.6541 18.8324 27.0474 18.8324C29.4408 18.8324 31.8107 19.3038 34.0219 20.2196C36.2331 21.1356 38.2422 22.478 39.9346 24.1704C41.6269 25.8627 42.9693 27.8719 43.8852 30.0831C44.2794 31.0342 44.5909 32.0147 44.8185 33.0137C44.9295 31.1171 44.7367 29.2095 44.2425 27.3641C43.5355 24.7266 42.2317 22.2871 40.4313 20.2342C38.631 18.1813 36.3825 16.5701 33.8598 15.5251ZM16.0434 43.4282C16.3559 37.5048 21.258 32.798 27.2594 32.798C33.0288 32.798 37.7822 37.148 38.4187 42.7471C38.5536 42.4776 38.6791 42.2027 38.7948 41.9234C39.4338 40.3807 39.7627 38.7273 39.7627 37.0575C39.7627 35.3877 39.4338 33.7343 38.7948 32.1916C38.1558 30.6489 37.2192 29.2472 36.0385 28.0665C34.8578 26.8858 33.456 25.9492 31.9133 25.3102C30.3707 24.6712 28.7172 24.3423 27.0474 24.3423C25.3777 24.3423 23.7242 24.6712 22.1815 25.3102C20.6389 25.9492 19.2371 26.8858 18.0564 28.0665C16.8757 29.2472 15.9391 30.6489 15.3001 32.1916C14.6611 33.7343 14.3322 35.3877 14.3322 37.0575C14.3322 38.7273 14.6611 40.3807 15.3001 41.9234C15.5149 42.442 15.7633 42.9446 16.0434 43.4282ZM32.9812 44.0297C32.9812 47.1898 30.4195 49.7515 27.2594 49.7515C24.0993 49.7515 21.5375 47.1898 21.5375 44.0297C21.5375 40.8697 24.0993 38.3079 27.2594 38.3079C30.4195 38.3079 32.9812 40.8697 32.9812 44.0297Z" fill="white"/>
</svg>
