<svg width="180" height="64" viewBox="0 0 180 64" fill="none" xmlns="http://www.w3.org/2000/svg">
<path d="M81.2698 44.8445C79.0717 44.8445 77.1842 44.456 75.6078 43.6788C74.0314 42.9017 72.7436 41.8915 71.7442 40.648C70.7674 39.4046 70.0457 38.0502 69.5795 36.5847C69.1133 35.1193 68.8799 33.7093 68.8799 32.3549V31.6222C68.8799 30.1124 69.1133 28.6247 69.5795 27.1592C70.0679 25.6938 70.8117 24.3616 71.8106 23.1626C72.81 21.9636 74.0757 21.0088 75.6078 20.2983C77.162 19.5656 78.9939 19.1992 81.1029 19.1992C83.3011 19.1992 85.2108 19.5989 86.8319 20.3982C88.4748 21.1753 89.7848 22.2855 90.7615 23.7288C91.7388 25.1498 92.3271 26.8151 92.5269 28.7246H87.7644C87.5866 27.6144 87.1869 26.6819 86.5651 25.9269C85.966 25.1498 85.1999 24.5725 84.267 24.1951C83.3346 23.7954 82.2801 23.5956 81.1029 23.5956C79.9042 23.5956 78.8383 23.8065 77.9059 24.2284C76.9735 24.628 76.1961 25.2053 75.5743 25.9603C74.9525 26.7152 74.4755 27.6034 74.1422 28.6247C73.8316 29.6461 73.676 30.7784 73.676 32.0219C73.676 33.2209 73.8316 34.3311 74.1422 35.3524C74.4755 36.3738 74.9639 37.2731 75.6078 38.0502C76.2517 38.8051 77.0399 39.3935 77.9724 39.8154C78.9269 40.2373 80.0263 40.4482 81.2698 40.4482C83.0904 40.4482 84.6225 40.0041 85.866 39.116C87.1313 38.2056 87.8973 36.94 88.1641 35.3191H92.9267C92.7047 37.051 92.1164 38.6386 91.1613 40.0818C90.2067 41.5251 88.8967 42.6796 87.2312 43.5456C85.5662 44.4116 83.5788 44.8445 81.2698 44.8445Z" fill="white"/>
<path d="M95.1192 44.2115V19.8984H99.7488V44.2115H95.1192ZM92.8545 23.3622V19.8984H99.7488V23.3622H92.8545Z" fill="white"/>
<path d="M112.062 44.8466C110.463 44.8466 109.053 44.5913 107.832 44.0806C106.611 43.5699 105.578 42.8816 104.735 42.0157C103.891 41.1275 103.247 40.1284 102.803 39.0182C102.381 37.908 102.17 36.7534 102.17 35.5544V34.855C102.17 33.6116 102.392 32.4348 102.836 31.3246C103.302 30.1922 103.957 29.193 104.801 28.3271C105.667 27.4389 106.711 26.7506 107.932 26.2621C109.153 25.7515 110.53 25.4961 112.062 25.4961C113.594 25.4961 114.97 25.7515 116.192 26.2621C117.413 26.7506 118.445 27.4389 119.289 28.3271C120.155 29.193 120.81 30.1922 121.254 31.3246C121.698 32.4348 121.92 33.6116 121.92 34.855V35.5544C121.92 36.7534 121.698 37.908 121.254 39.0182C120.832 40.1284 120.199 41.1275 119.356 42.0157C118.512 42.8816 117.479 43.5699 116.258 44.0806C115.037 44.5913 113.638 44.8466 112.062 44.8466ZM112.062 40.8833C113.194 40.8833 114.149 40.639 114.926 40.1506C115.703 39.6399 116.292 38.9627 116.691 38.1189C117.091 37.253 117.29 36.276 117.29 35.1881C117.29 34.0779 117.08 33.1009 116.658 32.2572C116.258 31.3912 115.658 30.714 114.859 30.2255C114.082 29.7148 113.15 29.4595 112.062 29.4595C110.974 29.4595 110.03 29.7148 109.231 30.2255C108.453 30.714 107.854 31.3912 107.432 32.2572C107.01 33.1009 106.799 34.0779 106.799 35.1881C106.799 36.276 106.999 37.253 107.399 38.1189C107.821 38.9627 108.42 39.6399 109.197 40.1506C109.974 40.639 110.929 40.8833 112.062 40.8833Z" fill="white"/>
<path d="M130.47 44.7781C128.383 44.7781 126.762 44.0899 125.607 42.7132C124.475 41.3365 123.908 39.2937 123.908 36.5849V26.0938H128.538V36.9846C128.538 38.0947 128.849 38.983 129.471 39.6491C130.092 40.293 130.936 40.615 132.002 40.615C133.068 40.615 133.934 40.2708 134.6 39.5825C135.288 38.8942 135.632 37.9616 135.632 36.7848V26.0938H140.262V44.212H136.598V36.5183H136.964C136.964 38.339 136.732 39.86 136.265 41.0812C135.799 42.3023 135.1 43.2239 134.167 43.8456C133.234 44.4673 132.068 44.7781 130.67 44.7781H130.47Z" fill="white"/>
<path d="M151.408 44.811C150.143 44.811 148.977 44.5779 147.911 44.1116C146.846 43.6453 145.924 42.9903 145.147 42.1466C144.37 41.3028 143.77 40.3259 143.348 39.2157C142.926 38.0833 142.716 36.8621 142.716 35.5521V34.8526C142.716 33.5649 142.915 32.3547 143.315 31.2224C143.737 30.0899 144.314 29.1019 145.047 28.2581C145.802 27.4144 146.701 26.7594 147.744 26.2931C148.81 25.8046 149.987 25.5604 151.275 25.5604C152.696 25.5604 153.939 25.8713 155.005 26.4929C156.093 27.0924 156.959 28.0028 157.603 29.224C158.247 30.4452 158.602 31.9773 158.669 33.8202L157.303 32.2215V19.8984H161.933V44.2115H158.269V36.5179H159.069C159.002 38.3608 158.625 39.904 157.936 41.1474C157.248 42.3686 156.337 43.29 155.205 43.9118C154.095 44.5113 152.829 44.811 151.408 44.811ZM152.441 40.9143C153.351 40.9143 154.184 40.7144 154.939 40.3148C155.693 39.8929 156.293 39.2934 156.737 38.5163C157.203 37.7169 157.437 36.7843 157.437 35.7186V34.3864C157.437 33.3206 157.203 32.4324 156.737 31.7219C156.271 30.9892 155.66 30.4341 154.905 30.0567C154.15 29.657 153.329 29.4571 152.441 29.4571C151.441 29.4571 150.553 29.7014 149.776 30.1899C149.021 30.6561 148.422 31.3222 147.978 32.1882C147.556 33.0541 147.345 34.0644 147.345 35.219C147.345 36.3736 147.567 37.3839 148.011 38.2498C148.455 39.0936 149.055 39.7486 149.81 40.2148C150.587 40.6811 151.464 40.9143 152.441 40.9143Z" fill="white"/>
<path d="M51.4386 46.7689C49.8391 46.7689 48.8537 46.0305 47.2436 45.1608C45.6335 44.291 40.9768 40.7894 40.9768 36.4305C40.9768 33.4735 40.2145 31.0819 38.9164 29.1759C37.628 27.2846 35.8825 25.9742 34.0667 25.0492C33.1917 24.6036 32.2811 24.2391 31.3743 23.9379C30.8458 23.7625 30.539 23.1949 30.7684 22.6875C32.222 19.4694 35.4592 17.2305 39.2198 17.2305C44.3388 17.2305 48.4888 21.3802 48.4888 26.4994C48.4888 27.5946 48.2989 28.6456 47.9501 29.6209C49.4275 28.6252 51.2077 28.0442 53.1233 28.0442C58.2423 28.0442 62.3919 32.1939 62.3919 37.3132C62.3919 43.4759 56.9766 46.7689 51.4386 46.7689Z" fill="white"/>
<path d="M17.5918 36.5414C17.5918 41.4272 20.813 45.4981 25.0802 46.3976C25.7389 46.6382 26.45 46.7695 27.1918 46.7695H41.593C42.0759 46.7695 42.2862 46.1236 41.9175 45.8116C39.4007 43.682 37.5303 40.6808 37.5303 36.431C37.5303 34.0959 36.9389 32.3952 36.0678 31.1166C35.1867 29.8233 33.9476 28.8567 32.5021 28.1202C31.0432 27.3772 29.4594 26.9038 27.9468 26.5683C27.5906 26.5233 27.2281 26.5 26.8608 26.5C21.7416 26.5 17.5918 30.9957 17.5918 36.5414Z" fill="white"/>
</svg>
