<svg width="360" height="400" viewBox="0 0 360 400" fill="none" xmlns="http://www.w3.org/2000/svg">
<path d="M253.231 0.265763C245.891 -0.18053 238.434 -0.160867 231.157 1.08005C200.879 6.155 176.977 27.5872 160.551 52.6868C152.37 42.2893 143.359 32.5428 132.889 24.3087C114.889 10.3771 91.8693 1.90381 68.8981 3.76342C41.5004 5.91272 20.4417 24.276 9.62887 48.7902C-8.06414 88.8326 0.737771 135.257 18.9691 173.428C45.6655 230.002 93.0769 272.357 129.806 321.974C96.6441 270.387 51.9635 226.34 28.1664 169.325C12.5198 131.813 5.28603 85.7089 27.0368 49.2618C47.332 15.4531 84.4836 15.1065 114.724 36.0321C128.334 45.7048 138.924 59.0827 148.379 72.7643C151.17 76.7855 159.556 90.6055 162.281 94.9262L171.564 77.682L171.977 76.914C186.705 51.2025 211.493 25.2378 242.772 25.2929C302.802 26.1508 339.375 75.0302 328.399 133.166C322.022 168.397 301.895 199.869 278.618 226.591C257.924 250.366 229.722 265.444 208.768 289.373C147.78 359.019 168.284 400 168.284 400C172.46 388.753 177.387 377.931 183.331 367.78C201.625 335.458 230.898 312.918 259.226 289.162C274.256 276.424 289.334 262.421 302.346 247.22C311.155 236.94 319.325 226.11 326.678 214.719C341.563 191.463 353.189 165.634 357.599 138.062C363.621 102.496 355.173 63.3602 330.246 36.3418C310.697 14.6328 282.187 2.00318 253.231 0.265763Z" fill="white" fill-opacity="0.07"/>
</svg>
