<svg width="636" height="973" viewBox="0 0 636 973" fill="none" xmlns="http://www.w3.org/2000/svg">
<path d="M459.779 413.505C459.656 413.228 459.737 413.038 459.615 412.761L459.899 412.656C460.021 412.933 459.859 413.314 459.779 413.505Z" fill="white"/>
<path d="M337.797 101.951C336.455 100.033 335.439 98.4768 335.031 97.1791C334.42 95.7954 334.054 94.9651 334.257 95.0511C334.541 94.9464 335.803 98.1814 338.445 101.551C339.665 103.193 340.884 104.835 341.86 105.923C342.632 106.926 343.079 107.565 343.282 107.651C343.079 107.565 342.348 107.03 341.576 106.028C340.439 105.321 338.936 103.784 337.797 101.951Z" fill="white"/>
<path d="M347.226 112.459C346.779 111.82 346.535 111.266 346.535 111.266C346.615 111.076 347.144 111.524 347.591 112.164C348.038 112.803 348.282 113.357 348.282 113.357C348.282 113.357 347.673 113.099 347.226 112.459Z" fill="white"/>
<path d="M354.682 27.6509C354.436 25.9717 354.271 24.1018 354.472 23.0622C354.754 21.8319 354.996 21.2597 355.199 21.3458C355.199 21.3458 355.16 22.004 354.878 23.2343C354.88 24.3599 354.923 25.9531 355.169 27.6322C355.415 29.3114 355.863 31.0765 356.149 32.0975C356.435 33.1184 356.395 33.7767 356.517 34.0534C356.395 33.7767 356.151 33.2231 355.865 32.2022C355.377 31.0952 354.847 29.5207 354.682 27.6509Z" fill="white"/>
<path d="M342.766 167.048C347.151 169.131 351.413 170.938 354.254 172.142C355.675 172.745 356.893 173.261 357.705 173.605C358.517 173.949 358.923 174.121 358.923 174.121C358.923 174.121 358.436 174.14 357.624 173.796C356.812 173.452 355.514 173.126 354.093 172.524C350.967 171.424 346.908 169.703 342.523 167.62C338.139 165.536 334.038 163.348 331.358 161.762C328.678 160.176 327.135 159.297 326.932 159.211C327.135 159.297 328.881 160.262 331.439 161.571C334.2 162.966 338.178 164.878 342.766 167.048Z" fill="white"/>
<path d="M356.969 38.0752C356.683 37.0542 356.601 36.1192 356.885 36.0146C357.088 36.1006 357.454 36.9309 357.537 37.8659C357.741 39.0775 357.418 39.8404 357.418 39.8404C357.418 39.8404 357.255 39.0961 356.969 38.0752Z" fill="white"/>
<path d="M360.343 173.59C360.749 173.762 360.871 174.039 360.871 174.039C360.871 174.039 360.587 174.144 360.181 173.972C359.775 173.8 359.653 173.523 359.653 173.523C359.653 173.523 360.14 173.504 360.343 173.59Z" fill="white"/>
<path d="M370.371 547.035C369.192 545.861 367.567 544.047 366.306 541.938C365.045 539.828 364.068 537.614 363.741 536.126C363.211 534.552 363.129 533.616 363.21 533.426C363.413 533.512 364.149 537.424 366.874 541.728C368.134 543.838 369.557 545.566 370.654 546.931C371.102 547.57 371.63 548.019 371.955 548.382C371.63 548.019 371.102 547.57 370.371 547.035Z" fill="white"/>
<path d="M359.54 231.973C355.319 230.634 351.22 229.571 348.419 228.834C346.918 228.423 345.822 228.183 344.929 228.03C344.037 227.876 343.631 227.704 343.631 227.704C343.631 227.704 344.117 227.685 345.01 227.839C345.903 227.992 347.079 228.041 348.378 228.367C351.259 228.913 355.236 229.699 359.66 231.124C364.084 232.549 367.738 234.098 370.499 235.493C371.919 236.096 372.854 236.717 373.665 237.061C374.477 237.405 374.802 237.768 374.802 237.768C374.802 237.768 373.179 237.079 370.337 235.875C367.495 234.67 363.761 233.312 359.54 231.973Z" fill="white"/>
<path d="M375.167 553.803C375.248 553.612 376.954 555.236 379.067 557.031C380.976 558.74 382.763 560.173 382.966 560.259C382.763 560.173 380.814 559.122 378.702 557.326C376.509 555.722 375.086 553.994 375.167 553.803Z" fill="white"/>
<path d="M371.021 100.953C370.208 99.483 368.988 97.8411 367.646 95.9225C366.305 94.0039 364.882 92.276 363.988 90.9969C363.215 89.9945 362.646 89.0782 362.443 88.9922C362.646 89.0782 363.296 89.8038 364.068 90.8061C365.044 91.8945 366.466 93.6224 368.011 95.6271C369.353 97.5457 370.694 99.4644 371.305 100.848C371.916 102.232 371.917 103.358 371.917 103.358C371.917 103.358 371.835 102.423 371.021 100.953Z" fill="white"/>
<path d="M372.813 105.766C373.097 105.662 373.464 106.492 373.83 107.322C374.196 108.152 374.279 109.087 374.279 109.087C374.279 109.087 373.629 108.362 373.262 107.532C372.693 106.615 372.53 105.871 372.813 105.766Z" fill="white"/>
<path d="M379.958 239.728C378.253 239.231 377.116 238.524 377.116 238.524C377.116 238.524 378.495 238.659 380.2 239.156C381.905 239.654 383.123 240.17 383.042 240.361C382.961 240.551 381.662 240.226 379.958 239.728Z" fill="white"/>
<path d="M376.894 42.4752C375.427 38.0286 373.555 34.5355 373.758 34.6215C373.758 34.6215 374.408 35.3471 375.019 36.7308C375.63 38.1146 376.688 40.1379 377.462 42.2659C378.236 44.3939 378.726 46.6266 379.053 48.115C379.38 49.6034 379.462 50.5383 379.462 50.5383C379.462 50.5383 379.177 49.5174 378.769 48.2197C378.442 46.7313 377.871 44.6893 376.894 42.4752Z" fill="white"/>
<path d="M388.229 447.291C387.254 446.202 385.832 444.474 383.922 442.765C382.216 441.142 380.429 439.709 379.17 438.726C378.113 437.828 377.179 437.207 377.179 437.207C377.382 437.293 378.194 437.637 379.453 438.621C380.793 439.414 382.581 440.846 384.49 442.556C386.196 444.179 387.619 445.907 388.716 447.272C389.164 447.912 389.408 448.465 389.449 448.932C389.49 449.4 389.41 449.591 389.41 449.591C389.287 449.314 389.205 448.379 388.229 447.291Z" fill="white"/>
<path d="M379.877 56.3355C379.753 54.9331 379.752 53.8074 379.955 53.8935C380.158 53.9795 380.443 55.0004 380.567 56.4028C380.691 57.8052 380.49 58.8449 380.49 58.8449C380.49 58.8449 380.001 57.7379 379.877 56.3355Z" fill="white"/>
<path d="M387.614 312.047C384.409 312.264 380.312 312.327 375.565 311.665C370.736 311.193 366.556 310.321 363.553 309.498C362.051 309.086 360.753 308.761 359.941 308.417C359.332 308.158 358.723 307.9 358.642 308.091C358.642 308.091 359.251 308.349 359.941 308.417C360.834 308.57 362.132 308.896 363.431 309.221C366.515 309.853 370.695 310.725 375.32 311.111C379.946 311.497 384.165 311.711 387.369 311.494C390.493 311.468 392.237 311.308 392.44 311.394C392.44 311.394 391.954 311.412 391.183 311.536C390.535 311.936 389.277 312.078 387.614 312.047Z" fill="white"/>
<path d="M380.729 187.633C383.652 188.646 386.452 189.383 388.441 189.776C390.429 190.169 391.728 190.495 391.728 190.495C391.728 190.495 390.47 190.637 388.279 190.158C386.29 189.765 383.49 189.028 380.365 187.928C377.442 186.914 374.681 185.519 372.855 184.745C371.028 183.97 369.891 183.263 369.891 183.263C370.094 183.349 371.109 183.78 372.935 184.554C375.087 185.691 377.807 186.619 380.729 187.633Z" fill="white"/>
<path d="M391.39 445.48C391.39 445.48 393.055 446.636 394.965 448.345C396.874 450.055 398.175 451.506 398.094 451.697C398.013 451.887 396.429 450.541 394.519 448.832C392.691 446.932 391.39 445.48 391.39 445.48Z" fill="white"/>
<path d="M400.851 583.592C402.597 584.557 403.979 585.817 404.182 585.903C403.979 585.817 402.355 585.129 400.609 584.164C398.66 583.113 397.198 582.043 397.279 581.852C397.359 581.662 398.903 582.541 400.851 583.592Z" fill="white"/>
<path d="M386.187 465.105C383.953 463.033 381.921 461.047 380.296 459.233C378.751 457.228 377.328 455.5 376.109 453.859C375.539 452.942 375.092 452.303 374.848 451.749C374.401 451.11 374.157 450.556 373.912 450.003C373.343 449.086 373.099 448.533 373.382 448.428C373.382 448.428 374.44 450.451 376.677 453.649C377.693 455.205 379.116 456.933 380.863 459.024C382.489 460.838 384.52 462.824 386.755 464.896C391.101 468.763 395.407 472.163 398.534 474.389C401.458 476.528 403.246 477.961 403.651 478.133C403.448 478.047 401.377 476.719 398.453 474.579C395.123 472.268 390.737 469.058 386.187 465.105Z" fill="white"/>
<path d="M397.099 385.127C392.064 382.318 385.445 378.162 378.702 372.604C375.331 369.825 372.446 367.028 369.764 364.316C367.083 361.604 365.01 359.151 363.424 356.679C361.757 354.397 360.983 352.269 360.372 350.886C360.209 350.141 359.965 349.588 359.924 349.12C359.882 348.653 359.679 348.567 359.882 348.653C359.882 348.653 360.249 349.483 360.656 350.781C361.267 352.165 362.325 354.188 363.789 356.383C365.456 358.665 367.528 361.118 370.21 363.83C372.892 366.541 375.776 369.339 379.148 372.118C385.891 377.676 392.429 382.022 397.26 384.745C399.737 386.245 401.686 387.296 403.107 387.899C404.325 388.415 405.056 388.95 405.259 389.036C405.056 388.95 404.244 388.606 403.026 388.09C401.605 387.487 399.454 386.35 397.099 385.127Z" fill="white"/>
<path d="M396.299 550.829C393.819 547.077 391.38 543.794 389.429 541.617C388.982 540.977 388.454 540.528 388.21 539.975C387.885 539.612 387.559 539.249 387.234 538.887C386.503 538.352 386.139 538.647 386.139 538.647C386.139 538.647 386.219 538.456 386.422 538.542C386.706 538.438 387.112 538.61 387.518 538.782C387.924 538.954 388.249 539.317 388.777 539.766C389.102 540.128 389.55 540.768 390.078 541.217C392.028 543.394 394.67 546.763 397.151 550.515C399.631 554.266 401.706 557.845 402.927 560.612C404.026 563.103 404.759 564.764 404.962 564.85C404.84 564.573 404.026 563.103 402.643 560.717C400.854 558.159 398.78 554.58 396.299 550.829Z" fill="white"/>
<path d="M395.972 259.564C394.918 259.792 393.376 260.039 391.348 260.304C389.32 260.569 387.089 260.749 384.33 260.479C381.694 260.486 378.854 260.407 375.689 259.966C369.562 259.168 364.245 257.59 360.51 256.232C359.496 255.801 358.684 255.457 358.075 255.199C357.263 254.855 356.654 254.597 356.248 254.425C355.436 254.081 354.827 253.823 354.624 253.737C354.827 253.823 355.233 253.995 356.248 254.425C356.857 254.683 357.466 254.941 358.075 255.199C358.887 255.543 359.699 255.887 360.591 256.041C364.407 257.208 369.723 258.787 375.647 259.498C378.609 259.854 381.571 260.209 384.208 260.202C386.845 260.195 389.198 260.293 391.226 260.027C393.132 259.485 394.876 259.325 395.972 259.564C396.337 259.269 396.904 259.06 396.985 258.869C397.066 258.678 397.147 258.487 397.147 258.487C397.147 258.487 397.35 258.573 397.188 258.955C396.904 259.06 396.54 259.355 395.972 259.564Z" fill="white"/>
<path d="M389.047 345.945C385.716 343.634 382.508 341.599 380.154 340.376C378.002 339.238 376.459 338.359 376.256 338.273C376.459 338.359 377.88 338.962 380.234 340.185C382.589 341.408 385.878 343.252 389.208 345.564C392.538 347.875 395.382 350.205 397.413 352.191C398.469 353.089 399.12 353.815 399.648 354.263C400.176 354.712 400.501 355.075 400.501 355.075C400.501 355.075 399.242 354.091 397.129 352.296C395.301 350.396 392.377 348.257 389.047 345.945Z" fill="white"/>
<path d="M399.907 311.85C399.339 312.06 398.65 311.992 398.163 312.011C397.676 312.029 397.473 311.943 397.473 311.943C397.473 311.943 398.527 311.715 399.663 311.297C401.001 310.964 401.852 310.65 402.055 310.736C402.177 311.013 401.245 311.518 399.907 311.85Z" fill="white"/>
<path d="M406.314 258.328C406.234 258.519 404.895 258.852 402.948 258.926C401.204 259.087 399.541 259.057 399.541 259.057C399.541 259.057 400.96 258.533 402.907 258.459C404.732 258.107 406.192 258.052 406.314 258.328Z" fill="white"/>
<path d="M406.873 567.686C406.954 567.495 407.848 568.774 408.54 569.967C409.434 571.246 409.639 572.458 409.842 572.544C409.639 572.458 408.867 571.456 408.175 570.263C407.281 568.984 406.792 567.877 406.873 567.686Z" fill="white"/>
<path d="M410.287 361.927C410.207 362.117 409.192 361.687 408.339 360.876C407.81 360.427 407.566 359.873 407.444 359.597C407.322 359.32 407.2 359.043 407.2 359.043C407.2 359.043 407.85 359.769 408.703 360.58C409.353 361.306 410.287 361.927 410.287 361.927Z" fill="white"/>
<path d="M416.362 591.052C417.376 591.483 418.188 591.827 418.716 592.276C419.244 592.724 419.447 592.81 419.65 592.896C419.447 592.81 418.027 592.208 416.2 591.434C414.292 590.85 412.71 590.629 412.588 590.353C412.588 590.353 414.535 590.278 416.362 591.052Z" fill="white"/>
<path d="M407.636 483.415C407.716 483.224 409.665 484.275 412.02 485.498C414.172 486.636 415.756 487.982 416.162 488.154C415.959 488.068 413.929 487.208 411.778 486.071C409.423 484.847 407.555 483.606 407.636 483.415Z" fill="white"/>
<path d="M417.031 394.03C419.711 395.616 422.186 395.991 422.105 396.181C422.025 396.372 419.549 395.998 416.789 394.602C415.449 393.809 414.392 392.912 413.539 392.1C412.889 391.375 412.564 391.012 412.361 390.926C412.564 391.012 412.889 391.375 413.62 391.91C414.554 392.53 415.691 393.237 417.031 394.03Z" fill="white"/>
<path d="M421.482 570.506C420.749 568.845 420.18 567.929 420.261 567.738C420.261 567.738 420.83 568.655 421.846 570.21C422.863 571.766 423.84 573.98 425.223 576.366C427.583 580.967 428.806 584.86 429.05 585.413C428.806 584.86 427.015 581.176 424.655 576.576C423.395 574.466 422.418 572.252 421.482 570.506Z" fill="white"/>
<path d="M419.358 114.012C419.561 114.098 419.805 114.652 419.685 115.501C419.726 115.968 419.564 116.35 419.281 116.454L419.2 116.645C419.119 116.836 419.119 116.836 419.119 116.836C419.119 116.836 418.955 116.091 418.995 115.433C419.115 114.584 419.074 114.117 419.358 114.012Z" fill="white"/>
<path d="M304.723 146.64C306.059 145.182 308.369 143.686 311.411 142.726C314.371 141.956 318.184 141.997 321.958 142.697C325.935 143.483 329.953 144.736 334.377 146.161C336.488 146.831 338.801 147.587 341.115 148.342C343.429 149.098 345.864 150.131 348.097 151.077C357.717 154.93 368.029 159.976 378.14 166.062C380.617 167.562 383.297 169.148 385.693 170.838C388.17 172.338 390.566 174.029 392.759 175.634C397.349 178.929 401.654 182.329 405.554 185.557C409.25 188.698 412.541 191.668 415.628 194.552C415.42 191.089 415.496 187.521 416.058 183.935C414.753 179.107 413.447 174.279 411.98 169.832C409.411 161.769 407.452 153.964 404.967 146.836C404.844 146.559 404.925 146.368 404.803 146.091C404.681 145.815 404.559 145.538 404.437 145.261C404.395 144.794 404.07 144.431 404.029 143.964L403.907 143.687C403.948 144.154 403.99 144.622 403.787 144.536C403.787 144.536 403.664 144.259 403.339 143.896C403.136 143.81 403.056 144.001 402.853 143.915L402.933 143.724L403.014 143.533C403.095 143.343 402.892 143.257 402.77 142.98C402.404 142.15 401.996 140.852 401.588 139.554C401.344 139.001 401.303 138.533 401.058 137.98C400.855 137.894 400.652 137.808 400.449 137.722C400.085 138.017 399.598 138.036 399.233 138.331C396.882 139.359 394.125 140.215 390.881 141.09C387.717 141.774 384.067 142.476 380.051 142.349C376.034 142.221 371.855 141.349 367.675 140.477C366.579 140.238 365.483 139.998 364.469 139.568C364.063 139.396 363.373 139.329 362.764 139.071C362.155 138.813 361.546 138.555 360.937 138.296C358.582 137.073 356.876 135.45 354.967 133.741C351.351 130.408 348.384 126.676 345.294 122.666C339.319 114.734 334.317 106.764 329.965 99.5194C325.613 92.275 321.992 85.5655 319.224 79.6677C318.369 77.7304 317.433 75.9839 316.62 74.5141C316.375 73.9606 316.131 73.4071 316.009 73.1303C316.699 73.1977 317.469 73.0745 318.159 73.1419C318.443 73.0372 318.646 73.1232 319.133 73.1046C319.336 73.1906 319.62 73.0859 319.823 73.172C322.946 73.1462 326.476 73.2925 330.331 73.8016C333.982 74.2246 338.04 74.8196 342.22 75.6915C350.499 77.6259 359.672 80.8395 368.078 86.4277C371.489 88.5485 374.536 90.9647 377.42 93.7624C381.564 97.5437 385.059 101.725 388.149 105.734C388.149 105.734 388.352 105.82 388.271 106.011C388.718 106.651 388.962 107.204 389.49 107.653C391.401 110.488 393.11 113.237 394.331 116.004C394.331 116.004 394.331 116.004 394.453 116.281C393.027 112.302 391.723 108.599 390.541 105.174C390.419 104.897 390.5 104.706 390.378 104.43C390.337 103.962 390.011 103.599 389.97 103.132C389.848 102.855 389.807 102.388 389.482 102.025C389.36 101.748 389.237 101.471 389.196 101.004C387.978 100.488 386.638 99.6946 385.298 98.9016C383.024 97.4877 380.506 95.5203 378.069 93.3622C377.216 92.5506 376.565 91.8251 375.712 91.0134C372.583 87.6623 369.494 83.6529 366.566 79.2622C363.719 74.6807 361.237 69.8039 358.795 64.2688C356.271 58.9245 354.193 53.094 352.196 47.0729C352.033 46.3286 351.666 45.4984 351.503 44.7542C351.34 44.0099 350.973 43.1797 350.81 42.4355C350.28 40.861 350.034 39.1818 349.788 37.5027C349.215 34.3351 349.007 30.8721 348.718 27.5999C348.424 20.9506 348.535 14.4735 349.053 8.16842C349.213 6.66135 349.292 5.34495 349.452 3.83787C349.572 2.98898 349.612 2.33079 349.732 1.4819C350.869 2.18884 351.723 3.00046 352.86 3.7074C357.043 6.83056 361.348 10.2305 365.614 14.2886C372.765 21.1444 379.552 29.4212 384.842 39.5377C386.225 41.9238 387.243 44.6052 388.342 47.096C389.034 48.289 389.158 49.6914 389.646 50.7985C390.054 52.0962 390.542 53.2032 390.95 54.5009C391.358 55.7986 391.562 57.0104 391.97 58.3081C392.214 58.8616 392.378 59.6058 392.419 60.0732C392.583 60.8175 392.624 61.285 392.787 62.0292C392.992 63.2409 393.197 64.4525 393.401 65.6642C393.606 66.8759 393.811 68.0876 393.813 69.2133C394.841 78.6487 394.327 87.205 393.283 94.1868C392.841 96.9242 392.358 99.1942 391.671 101.378C391.591 101.569 391.51 101.76 391.429 101.95C391.105 102.713 391.066 103.371 390.743 104.134C392.576 109.411 394.735 115.051 397.057 121.435C397.424 122.265 397.709 123.286 397.995 124.307C398.117 124.584 398.239 124.86 398.28 125.328C399.421 128.286 400.358 131.158 401.051 133.477C401.215 134.221 401.581 135.052 401.745 135.796C401.867 136.073 401.989 136.349 401.908 136.54C402.072 137.284 402.316 137.838 402.682 138.668C402.804 138.945 402.804 138.945 402.926 139.221C403.171 139.775 403.334 140.519 403.498 141.263C403.578 141.073 403.578 141.073 403.659 140.882C403.821 140.501 403.78 140.033 403.738 139.566L403.819 139.375C403.94 138.526 403.979 137.868 404.1 137.019C404.301 135.979 404.299 134.854 404.5 133.814C404.459 133.347 404.701 132.774 404.66 132.307C404.822 131.926 404.781 131.458 404.942 131.077C405.023 130.886 405.104 130.695 404.901 130.609C405.706 126.451 406.673 121.911 407.923 117.266C409.818 109.97 412.443 102.084 415.919 93.883C419.315 85.873 422.954 78.4165 426.96 71.7902C430.886 65.3547 434.974 59.6634 439.106 55.5652C440.645 54.1929 442.185 52.8206 443.563 51.8298C443.846 51.7251 443.927 51.5343 444.211 51.4297C444.576 51.1343 444.94 50.8389 445.224 50.7342C445.346 51.0109 445.388 51.4785 445.713 51.8413C446.975 55.0763 448.565 59.7997 450.278 65.9255C452.072 71.8607 453.868 78.9214 455.26 86.9357C455.915 91.0383 456.57 95.1408 456.78 99.7294C457.071 104.127 456.349 109.221 454.003 113.626C451.657 118.031 448.051 121.452 444.16 123.853C440.472 126.339 436.865 128.635 433.339 130.74C426.165 134.673 419.517 137.93 413.76 140.214C412.057 140.842 410.557 141.556 408.935 141.993C408.367 142.203 407.799 142.412 407.516 142.517C406.948 142.726 406.38 142.935 405.813 143.145C405.651 143.526 405.49 143.908 405.125 144.203C405.247 144.48 405.369 144.757 405.41 145.224C405.533 145.501 405.655 145.778 405.574 145.968C408.182 153.373 410.344 161.264 413.034 169.604C414.135 173.22 415.236 176.837 416.459 180.73C417.548 176.467 419.123 172.185 421.308 168.162C427.214 157.616 436.493 149.85 446.385 145.719C448.939 144.777 451.413 144.025 453.886 143.274C455.224 142.941 456.482 142.799 457.739 142.657C458.996 142.516 460.254 142.374 461.511 142.232C466.379 142.045 471.004 142.431 475.023 143.684C477.742 144.612 480.381 145.731 482.371 147.249C482.574 147.335 482.777 147.421 482.696 147.612L482.615 147.803C482.373 148.375 482.211 148.756 481.968 149.328L481.888 149.519C481.483 150.473 480.998 151.617 480.716 152.847C479.908 154.754 479.221 156.938 478.171 159.418C477.12 161.897 476.069 164.376 474.653 167.151C473.44 170.012 471.944 172.977 470.245 175.856C466.968 181.892 463.165 188.604 458.875 195.335C454.382 201.98 450.051 208.243 445.637 213.572C443.532 216.279 441.427 218.986 439.28 221.226C438.227 222.58 436.972 223.848 436 225.01C435.919 225.201 435.635 225.306 435.554 225.497C434.744 226.278 434.218 226.955 433.408 227.736C432.233 228.813 431.18 230.167 430.289 231.139C430.208 231.33 429.925 231.435 429.844 231.625C430.905 235.9 431.966 240.174 432.825 244.363C433.03 245.575 433.315 246.596 433.723 247.893C434.662 251.891 435.52 256.08 436.663 260.164C436.785 260.44 436.704 260.631 436.826 260.908C436.948 261.185 436.989 261.652 437.111 261.929C437.234 262.206 437.275 262.673 437.397 262.95C437.519 263.227 437.641 263.503 437.56 263.694C437.602 264.162 437.846 264.715 437.887 265.183C437.806 265.373 438.009 265.459 437.929 265.65C439.155 271.794 440.382 277.939 441.73 284.36C442.181 287.251 442.916 290.037 443.366 292.928C443.361 289.551 443.437 285.983 443.512 282.416C443.832 279.402 444.03 276.111 444.715 272.801C444.835 271.952 444.955 271.103 445.076 270.254C445.196 269.406 445.316 268.557 445.64 267.794C446.084 266.182 446.527 264.57 446.768 262.872C446.969 261.833 447.374 260.879 447.575 259.84C447.656 259.649 447.736 259.458 447.736 259.458C449.513 254.137 451.858 248.606 454.73 243.524C456.713 240.54 458.575 237.279 460.883 234.658C463.069 231.76 465.58 229.225 468.417 227.053C471.253 224.88 474.212 222.985 477.618 221.728C481.023 220.472 484.39 219.874 487.594 219.658C494.287 219.12 500.901 219.899 506.543 221.84C512.185 223.782 517.261 227.059 520.634 230.963C520.837 231.049 520.756 231.24 520.959 231.326C521.406 231.966 521.853 232.605 522.301 233.245C522.139 233.626 521.977 234.008 521.735 234.58C521.573 234.961 521.33 235.533 521.169 235.915C520.684 237.059 520.118 238.394 519.43 239.452C518.864 240.787 518.014 242.227 517.368 243.753C516.518 245.192 515.871 246.718 514.941 248.348C513.363 251.505 511.218 254.87 509.276 258.321C504.906 265.243 499.887 272.565 494.097 280.01C488.307 287.455 482.151 294.07 476.399 299.731C473.523 302.561 470.728 305.201 468.014 307.65C466.555 308.832 465.299 310.1 464.125 311.177C462.95 312.253 461.572 313.244 460.397 314.321C458.574 315.798 457.034 317.17 455.373 318.266C455.089 318.371 455.008 318.561 454.724 318.666C454.36 318.961 453.995 319.257 453.711 319.361C452.698 320.057 451.888 320.838 450.956 321.343C450.023 321.848 449.294 322.439 448.565 323.029C448.484 323.22 448.281 323.134 448.281 323.134C448.936 327.237 449.511 331.53 450.166 335.632C450.412 337.312 450.658 338.991 450.985 340.479C451.068 341.414 451.353 342.435 451.436 343.37C452.542 350.363 453.242 357.185 454.267 364.369C455.09 371.467 456.115 378.651 456.653 385.854C456.943 389.126 457.231 392.398 457.601 395.48C457.758 391.721 457.792 387.686 458.394 383.442C459.073 376.755 459.712 369.601 461.363 361.752C462.933 354.093 465.233 345.844 469.521 337.987C471.705 333.963 474.418 330.389 477.617 326.795C480.736 323.392 484.747 320.143 488.921 317.638C493.299 315.219 498.205 313.249 503.599 312.386C506.398 311.997 509.035 311.99 511.874 312.069C514.633 312.338 517.515 312.885 520.234 313.812C522.954 314.74 525.431 316.24 527.827 317.931C529.939 319.726 531.809 322.094 533.111 324.67C534.21 327.161 534.742 329.861 534.786 332.58C534.628 335.213 534.267 337.759 533.5 340.134C532.733 342.509 531.763 344.797 530.873 346.895C529.903 349.184 528.608 351.109 527.516 353.121C525.128 357.059 522.741 360.997 520.028 364.571C514.806 371.807 509.096 377.936 503.424 383.406C497.753 388.877 491.919 393.603 486.286 397.289C485.637 397.69 484.908 398.28 484.259 398.68C483.611 399.08 482.882 399.671 482.233 400.071C480.936 400.871 479.558 401.862 478.262 402.662C476.965 403.463 475.668 404.263 474.249 404.786C473.6 405.186 473.032 405.396 472.384 405.796C471.735 406.196 471.168 406.405 470.519 406.805C468.087 408.024 465.939 409.138 463.668 409.976C462.452 410.585 461.317 411.004 460.182 411.422C459.939 411.994 459.858 412.185 459.778 412.376C460.025 415.181 460.192 418.176 460.44 420.981C460.481 421.449 460.603 421.725 460.442 422.107C460.483 422.574 460.524 423.042 460.646 423.318C460.565 423.509 460.768 423.595 460.687 423.786C460.772 425.846 460.937 427.716 461.224 429.863C462.141 445.775 462.897 462.069 463.368 478.468C463.408 477.81 463.65 477.238 463.69 476.579C463.85 475.072 464.213 473.651 464.373 472.144C465.499 466.097 467.071 459.564 469.698 452.803C471.153 449.37 472.608 445.938 474.469 442.677C476.411 439.225 478.759 435.946 481.513 432.838C482.323 432.057 482.93 431.19 483.66 430.599C484.47 429.817 485.199 429.226 486.009 428.445C486.819 427.663 487.549 427.073 488.562 426.377C489.372 425.596 490.304 425.091 491.317 424.395C495.005 421.909 499.018 419.785 503.478 418.301C507.938 416.817 512.643 415.887 517.592 415.509C522.46 415.323 527.572 415.69 532.686 417.183C533.294 417.441 533.984 417.508 534.593 417.767L536.42 418.541L538.247 419.315L539.992 420.28L541.738 421.245C542.347 421.503 542.875 421.952 543.404 422.401C544.541 423.108 545.474 423.729 546.531 424.627C547.587 425.524 548.643 426.422 549.254 427.806C549.701 428.445 549.864 429.189 550.028 429.934C550.191 430.678 550.152 431.336 550.031 432.185C549.871 433.692 549.386 434.836 548.698 435.895C548.01 436.953 547.322 438.011 546.512 438.793C540.437 445.217 533.914 451.001 527.431 456.127C520.948 461.254 514.505 465.722 508.304 469.618C502.103 473.514 495.942 476.752 490.307 479.313C480.091 484.207 471.09 487.366 464.44 489.497C464.359 489.687 464.359 489.687 464.075 489.792C464.087 497.672 464.303 505.637 464.234 513.707C464.275 514.175 464.194 514.365 464.236 514.833C464.119 517.933 464.205 521.119 464.088 524.22C464.129 524.687 463.967 525.068 464.009 525.536C463.928 525.727 464.05 526.003 463.969 526.194C463.636 546.751 462.49 566.964 461.101 586.624C461.182 586.433 461.465 586.328 461.627 585.947C461.789 585.565 461.951 585.184 462.112 584.802C463.849 580.139 465.707 574.627 467.726 568.734C469.746 562.84 471.885 556.098 474.999 549.318C478.112 542.538 481.874 535.359 487.543 528.762C490.378 525.464 493.538 522.529 497.306 519.852C501.075 517.175 505.494 515.223 510.157 513.825C514.82 512.427 519.93 511.668 525.043 512.036C527.599 512.219 530.277 512.68 532.874 513.331L534.782 513.914L535.797 514.344L536.812 514.775L538.638 515.549C539.247 515.807 539.775 516.256 540.384 516.514C542.739 517.737 544.932 519.342 546.964 521.328C548.792 523.228 550.459 525.509 551.558 528C551.966 529.298 552.373 530.595 552.578 531.807C552.783 533.019 552.907 534.421 552.625 535.651C552.466 538.284 551.78 540.468 551.013 542.843C549.357 547.315 546.563 551.081 543.851 554.656C541.138 558.23 537.898 561.356 534.535 564.206C528.093 569.799 520.757 574.114 513.825 577.475C506.893 580.836 499.96 583.072 493.674 584.907C487.389 586.743 481.346 588.006 476.358 589.041C471.167 589.991 466.746 590.816 462.974 591.242C462.487 591.261 461.92 591.47 461.433 591.489C461.23 591.403 461.149 591.594 460.946 591.508C460.308 598.662 459.751 605.625 459.194 612.588C459.113 612.779 459.235 613.056 459.154 613.246C459.073 613.437 459.195 613.714 459.114 613.904C459.034 614.095 459.034 614.095 459.156 614.372C459.157 615.498 458.956 616.537 458.958 617.663L458.877 617.853C458.796 618.044 458.838 618.512 458.757 618.702C457.916 625.77 457.278 632.924 456.517 639.801C455.596 647.06 454.674 654.319 453.549 661.491C452.708 668.559 451.38 675.646 450.336 682.628C449.292 689.61 448.248 696.591 446.879 703.211C445.713 709.916 444.344 716.535 443.177 723.24C441.808 729.859 440.52 736.287 439.029 742.63C438.425 745.749 437.741 749.058 436.934 752.091C436.33 755.21 435.524 758.243 434.717 761.275C433.306 767.427 431.693 773.493 430.364 779.454C428.831 785.328 427.298 791.203 425.847 796.887C424.395 802.571 422.943 808.256 421.167 813.577C419.593 818.985 418.019 824.392 416.323 829.523C415.475 832.088 414.83 834.739 413.982 837.305C413.134 839.87 412.367 842.244 411.519 844.81C408.289 854.69 405.22 864.188 401.988 872.942C398.756 881.697 395.889 890.155 392.939 897.679C389.909 905.394 387.12 912.537 384.575 919.107C381.826 925.591 379.32 931.503 377.056 936.843C375.925 939.513 374.874 941.993 373.823 944.472C372.853 946.76 371.68 948.963 370.79 951.061C368.809 955.171 367.354 958.603 365.938 961.378C364.522 964.153 363.633 966.251 362.986 967.776C362.42 969.111 361.894 969.788 361.894 969.788C361.894 969.788 362.015 968.939 362.58 967.604C363.227 966.079 364.116 963.981 365.329 961.12C366.542 958.259 367.997 954.826 369.775 950.631C370.665 948.533 371.554 946.435 372.605 943.956C373.575 941.667 374.707 938.997 375.636 936.241C377.899 930.901 380.202 924.903 382.748 918.332C385.293 911.762 387.879 904.534 390.91 896.819C393.94 889.104 396.524 880.75 399.756 871.996C402.988 863.242 405.772 853.848 409.003 843.968C409.77 841.594 410.617 839.028 411.465 836.463C412.313 833.898 412.959 831.246 413.807 828.681C415.299 823.464 416.873 818.057 418.447 812.649C420.021 807.242 421.473 801.558 422.924 795.874C424.376 790.189 425.909 784.314 427.441 778.44C428.771 772.479 430.384 766.413 431.794 760.262C432.601 757.229 433.205 754.11 434.011 751.077C434.615 747.958 435.219 744.839 435.903 741.53C437.192 735.101 438.683 728.759 439.849 722.054C441.015 715.349 442.304 708.92 443.55 702.025C444.92 695.406 445.761 688.338 447.008 681.442C448.052 674.46 449.299 667.564 450.22 660.305C451.061 653.237 451.983 645.979 452.905 638.72C453.624 631.376 454.343 624.031 455.143 616.496C455.102 616.028 455.263 615.647 455.222 615.179C455.384 614.798 455.261 614.521 455.423 614.139C455.463 613.481 455.502 612.823 455.542 612.165C454.649 612.012 453.634 611.581 452.741 611.428C452.133 611.17 451.443 611.102 450.834 610.844C444.015 608.854 435.898 606.538 426.36 603.62C419.339 601.543 411.708 599.209 403.792 595.854C395.796 592.689 387.513 588.503 379.675 582.706C375.898 579.754 371.998 576.527 368.544 572.813C365.09 569.099 362.081 564.899 359.518 560.213C358.338 557.913 357.239 555.422 356.343 553.017C355.813 551.442 355.486 549.954 355.16 548.466C354.955 547.254 354.872 546.319 354.871 545.193C354.826 542.475 354.984 539.842 355.629 537.191C356.274 534.539 357.406 531.869 359.269 529.734C361.131 527.599 363.806 525.808 366.564 524.952C369.524 524.182 372.567 524.347 375.448 524.893C378.248 525.63 380.887 526.749 383.322 527.781C385.677 529.004 387.951 530.418 390.225 531.832C399.24 537.678 406.594 544.62 412.893 551.79C419.192 558.96 424.801 566.062 429.802 572.906C434.802 579.75 439.355 585.955 443.664 591.606C446.998 596.169 450.087 600.179 452.771 604.016C452.771 604.016 452.771 604.016 452.974 604.102C453.99 605.658 455.088 607.023 456.185 608.388C456.464 604.906 456.742 601.425 457.102 597.752C457.06 597.285 457.222 596.903 457.181 596.436C457.179 595.31 457.38 594.271 457.459 592.954C457.418 592.487 457.499 592.296 457.458 591.829C457.539 591.638 457.416 591.361 457.497 591.171C457.659 590.789 457.537 590.512 457.698 590.131C459.207 568.497 460.471 546.309 460.923 523.778C460.959 520.868 461.076 517.768 461.112 514.859C460.868 514.305 460.623 513.752 460.257 512.922C452.382 510.034 440.326 505.148 425.468 498.4C419.662 495.714 413.451 492.856 406.793 489.359C400.256 486.138 393.273 482.278 386.612 477.655C383.282 475.343 379.83 472.755 376.742 469.871C375.239 468.334 373.655 466.987 372.232 465.259C370.81 463.532 369.387 461.804 368.329 459.78C366.133 455.924 364.382 451.582 364.252 446.803C364.249 444.552 364.61 442.005 365.986 439.889C367.159 437.686 368.86 435.932 371.09 434.627C373.4 433.132 376.198 432.743 378.713 432.459C381.431 432.262 383.906 432.636 386.584 433.096C391.657 434.121 396.325 436.1 400.345 438.479C408.75 442.942 416.344 448.186 423.087 453.744C429.83 459.302 435.356 465.469 440.274 471.378C440.924 472.104 441.574 472.83 441.941 473.66C442.591 474.385 443.038 475.025 443.608 475.941C444.624 477.497 445.722 478.862 446.738 480.418C447.755 481.974 448.569 483.444 449.463 484.723C449.91 485.362 450.277 486.193 450.724 486.832C451.171 487.472 451.538 488.302 451.985 488.942C452.554 489.858 452.92 490.688 453.409 491.795C453.531 492.072 453.531 492.072 453.653 492.349C454.833 494.649 455.81 496.863 456.868 498.886L456.99 499.163C457.357 499.993 457.723 500.823 458.009 501.844C458.131 502.121 458.131 502.121 458.253 502.398C459.516 505.633 460.453 508.505 461.471 511.186C461.587 506.961 461.418 502.839 461.452 498.804C461.411 498.337 461.37 497.869 461.409 497.211C461.408 496.086 461.406 494.96 461.404 493.834C461.363 493.367 461.444 493.176 461.402 492.709C461.442 492.05 461.359 491.115 461.399 490.457C461.358 489.99 461.316 489.522 461.478 489.141C461.285 469.261 460.525 449.59 459.238 430.596C459.031 428.258 459.028 426.007 458.74 423.86C458.78 423.202 458.739 422.735 458.575 421.991L458.372 421.904C458.169 421.818 457.966 421.732 457.763 421.646C457.154 421.388 456.626 420.939 456.017 420.681C452.526 418.751 447.938 416.582 442.661 414.345C437.384 412.108 431.213 409.717 424.557 407.345C417.697 404.888 410.309 401.981 402.393 398.625C394.477 395.27 386.195 391.084 378.195 385.668C374.134 382.822 370.356 379.871 366.618 376.261C365.765 375.45 364.79 374.361 363.937 373.55C363.164 372.547 362.108 371.65 361.336 370.647C360.564 369.645 359.791 368.643 358.816 367.554C358.043 366.552 357.352 365.359 356.661 364.166C355.278 361.78 354.098 359.48 353.282 356.884C352.467 354.289 351.935 351.589 351.891 348.87C351.846 346.151 352.572 343.309 353.906 340.725C354.068 340.344 354.149 340.153 354.514 339.858L355.121 338.99C355.566 338.504 356.093 337.827 356.538 337.341C357.713 336.264 358.726 335.569 360.226 334.855C361.442 334.245 362.861 333.722 364.199 333.389C364.767 333.18 365.537 333.057 366.308 332.933C367.079 332.81 367.646 332.601 368.417 332.477C371.093 331.812 373.811 331.614 376.732 331.502C382.29 331.383 387.727 332.113 392.921 333.415C398.116 334.717 403.068 336.591 407.656 338.761C408.874 339.277 410.011 339.984 411.026 340.414C412.163 341.121 413.177 341.552 414.314 342.259C415.451 342.965 416.385 343.586 417.522 344.293C418.456 344.914 419.593 345.621 420.527 346.242C424.386 349.002 428.163 351.954 431.657 355.009C433.444 356.442 434.866 358.17 436.654 359.602C438.157 361.139 439.66 362.677 441.083 364.405C443.806 367.584 446.529 370.763 448.684 374.151C450.92 377.349 452.873 380.651 454.338 383.972C454.908 384.889 455.193 385.91 455.56 386.74C455.64 386.549 455.437 386.463 455.518 386.272C454.98 379.07 453.954 371.886 453.132 364.787C452.31 357.689 451.691 350.677 450.504 343.875C449.805 338.179 448.823 332.588 448.044 327.083C447.921 326.806 447.88 326.339 447.961 326.148C447.92 325.681 447.798 325.404 447.756 324.937C447.756 324.937 447.837 324.746 447.634 324.66C447.593 324.192 447.552 323.725 447.429 323.448C446.857 320.281 446.487 317.199 445.914 314.031C445.711 313.945 445.63 314.136 445.427 314.05C439.911 314.636 433.218 315.174 425.632 315.558C414.072 316.283 400.158 316.909 384.62 316.847C376.912 316.955 368.88 316.7 360.36 316.463C358.21 316.451 355.937 316.163 353.746 315.684C351.555 315.205 349.241 314.45 347.048 312.845C345.058 311.326 343.594 309.131 342.698 306.726C342.29 305.429 342.085 304.217 342.448 302.796C342.73 301.566 343.296 300.231 344.187 299.258C345.078 298.286 346.375 297.486 347.511 297.067C348.646 296.649 349.984 296.316 351.16 296.365C353.472 295.995 355.745 296.283 357.895 296.294C362.195 296.317 366.495 296.34 370.715 296.554C379.234 296.791 387.267 297.046 395.057 297.873C402.848 298.701 410.273 299.824 417.051 301.347C423.828 302.869 430.159 304.878 435.721 307.011C439.252 308.283 442.622 309.936 445.585 311.417C445.176 308.994 444.766 306.571 444.357 304.147C443.784 300.98 443.292 297.621 442.719 294.454C442.147 291.286 441.574 288.119 441.001 284.951C439.855 278.616 438.629 272.471 437.402 266.327C437.361 265.859 437.117 265.306 437.075 264.838C436.224 265.152 435.089 265.571 434.034 265.799C429.007 267.493 423.086 269.033 416.556 270.314C410.027 271.596 402.605 272.725 394.613 272.937C390.516 273 386.419 273.063 382.077 272.573C380.008 272.371 377.736 272.082 375.463 271.794C374.368 271.555 373.272 271.315 372.095 271.266C371 271.027 369.904 270.787 368.808 270.548C364.425 269.59 359.718 268.269 355.374 266.653C350.828 264.951 346.444 262.868 342.018 260.317C337.592 257.766 333.531 254.919 329.59 251.224C328.737 250.412 327.681 249.515 326.908 248.512C326.055 247.701 325.08 246.612 324.307 245.61C322.479 243.71 320.812 241.429 319.632 239.128C318.249 236.742 317.434 234.147 317.186 231.342C317.062 229.94 317.141 228.623 317.504 227.202C317.867 225.781 318.636 224.532 319.324 223.474C321.187 221.339 323.7 219.929 326.376 219.264C329.053 218.599 331.69 218.592 334.124 218.498C336.68 218.682 339.155 219.056 341.63 219.43C344.105 219.805 346.297 220.284 348.691 220.849C353.358 221.702 357.944 222.746 362.246 223.894C379.818 228.193 395.364 233.884 407.868 239.409C414.16 242.076 419.762 244.675 424.432 247.78C426.706 249.194 428.9 250.799 430.687 252.231C432.474 253.664 433.977 255.201 435.278 256.652C435.278 256.652 435.278 256.652 435.481 256.738C435.113 254.782 434.664 253.017 434.296 251.061C434.213 250.126 433.847 249.296 433.764 248.361C432.62 243.151 431.598 238.219 430.374 233.2C430.21 232.456 430.047 231.711 429.883 230.967C429.515 229.011 428.944 226.969 428.495 225.204C428.373 224.927 428.251 224.651 428.129 224.374C427.804 224.011 427.762 223.543 427.437 223.181C426.338 220.69 425.036 218.113 423.612 215.26C422.024 211.662 420.314 207.787 418.969 203.617C417.995 203.655 417.022 203.692 416.048 203.729C411.951 203.792 407.732 203.579 402.984 202.916C398.237 202.254 393.448 201.124 388.334 199.631C383.22 198.138 377.984 196.368 372.626 194.322C367.268 192.276 361.788 189.953 356.307 187.63C345.225 182.707 334.952 177.003 326.463 170.48C317.894 164.147 311.514 157.168 306.839 150.687C306.188 149.961 305.822 149.131 305.172 148.405C304.969 148.319 305.05 148.129 304.847 148.043C303.913 147.422 304.277 147.126 304.723 146.64ZM391.375 93.6033C392.339 86.8121 392.488 78.5511 391.298 69.4971C391.093 68.2855 391.091 67.1598 390.806 66.1388C390.601 64.9271 390.315 63.9062 390.111 62.6945C389.867 62.141 389.906 61.4828 389.662 60.9293C389.418 60.3758 389.457 59.7176 389.213 59.1641C389.008 57.9524 388.52 56.8454 388.315 55.6338C387.907 54.336 387.419 53.229 387.011 51.9312C386.522 50.8242 386.115 49.5265 385.707 48.2288C384.608 45.738 383.712 43.3332 382.329 40.9472C377.284 31.3841 370.78 23.0027 364.035 16.319C360.378 12.519 356.682 9.37724 353.188 6.32148C353.149 6.97966 353.028 7.82855 352.989 8.48673C352.552 14.6011 352.44 21.0782 352.612 27.4507C352.901 30.723 352.987 33.9092 353.56 37.0768C354.133 40.2444 354.787 43.2213 355.724 46.0935C357.721 52.1147 359.88 57.7544 361.917 63.1174C364.156 68.5664 366.435 73.3572 369.079 77.8526C371.723 82.3481 374.407 86.1853 377.455 89.7272C380.381 92.9923 383.468 95.876 386.27 97.7387C387.204 98.3596 388.138 98.9805 389.072 99.6014C388.542 98.027 388.013 96.4524 387.483 94.878C386.587 92.4732 385.69 90.0686 384.916 87.9406C383.368 83.6846 381.861 79.8961 380.721 76.9378C381.861 79.8961 383.246 83.4078 384.997 87.7498C385.771 89.8778 386.748 92.0919 387.767 94.7734C388.499 96.4339 388.948 98.199 389.681 99.8595C389.884 99.9456 390.087 100.032 390.087 100.032C390.612 98.2292 391.095 95.9592 391.375 93.6033ZM396.78 126.042C396.17 124.658 395.356 123.188 394.826 121.614C394.013 120.144 393.28 118.484 392.466 117.014C391.408 114.991 390.147 112.881 388.684 110.686C388.359 110.323 388.114 109.77 387.789 109.407C387.342 108.767 386.773 107.851 386.325 107.211C381.447 100.644 375.108 94.1323 367.23 88.993C359.352 83.8536 350.747 80.4308 342.752 78.3917C338.653 77.3291 334.879 76.6293 331.308 76.0155C327.737 75.4018 324.288 75.0648 321.042 74.8138C320.839 74.7278 320.555 74.8325 320.555 74.8325C321.247 76.0255 322.061 77.4953 322.874 78.9651C326.006 84.5676 329.708 91.0863 334.344 98.226C338.696 105.47 343.779 113.249 349.552 121.096C352.438 125.019 355.405 128.752 358.615 131.912C360.118 133.45 361.906 134.882 363.651 135.847C364.057 136.019 364.463 136.191 364.869 136.363C365.275 136.536 365.884 136.794 366.371 136.775C367.386 137.205 368.482 137.445 369.577 137.684C373.676 138.747 377.572 139.723 381.224 140.146C384.876 140.569 388.445 140.057 391.527 139.564C394.61 139.071 397.367 138.215 399.841 137.463C400.124 137.359 400.124 137.359 400.408 137.254C399.799 136.996 399.271 136.547 398.662 136.289C396.51 135.152 394.156 133.929 391.273 132.257C388.593 130.671 385.507 128.913 382.583 126.773C379.659 124.634 377.018 122.39 374.784 120.318C372.63 118.055 370.679 115.878 369.257 114.15C367.834 112.422 366.615 110.78 365.843 109.778C365.273 108.862 364.826 108.222 364.623 108.136C364.826 108.222 365.07 108.776 365.923 109.587C366.696 110.59 367.996 112.041 369.622 113.855C371.247 115.669 373.076 117.569 375.31 119.641C377.544 121.713 380.185 123.957 383.19 125.906C389.119 129.994 394.966 133.147 398.986 135.526C399.717 136.061 400.529 136.405 401.057 136.854L401.341 136.749C399.997 133.705 398.612 130.193 396.78 126.042ZM409.298 140.572C409.824 139.895 410.147 139.133 410.674 138.456C412.454 135.386 414.396 131.934 416.419 128.292C418.441 124.65 420.181 121.112 421.758 117.956C423.335 114.8 424.629 111.749 425.883 109.355C426.933 106.876 427.823 104.778 428.592 103.529C429.157 102.194 429.481 101.431 429.684 101.517C429.684 101.517 429.563 102.366 428.998 103.701C428.432 105.036 427.745 107.22 426.694 109.699C424.592 114.658 421.601 121.715 417.556 128.999C415.533 132.641 413.591 136.093 411.811 139.163C411.73 139.353 411.568 139.735 411.284 139.84C412.136 139.526 412.865 138.935 413.717 138.621C419.149 135.974 425.675 132.44 432.524 128.144C435.847 125.953 439.454 123.658 442.939 121.085C444.681 119.799 446.424 118.513 447.761 117.054C449.381 115.491 450.514 113.947 451.606 111.935C453.71 108.102 454.312 103.858 454.144 99.7366C454.056 95.4247 453.603 91.4082 452.948 87.3057C451.759 79.3774 450.247 72.2119 448.656 66.3629C447.268 60.5998 446.084 56.0485 445.308 52.7948C444.053 54.0624 442.594 55.2439 441.38 56.979C437.654 61.2493 434.052 66.922 430.533 73.5296C427.418 79.1837 424.183 85.6866 421.272 92.5523C420.868 93.5059 420.464 94.4595 420.06 95.413C416.664 103.423 414.12 111.119 412.022 118.329C409.924 125.539 408.352 132.072 407.67 137.633C407.51 139.14 407.228 140.37 406.866 141.791L406.785 141.982C407.311 141.305 408.243 140.8 409.298 140.572ZM463.465 488.408C465.935 485.406 468.647 481.831 471.644 478.151C474.194 474.958 476.867 472.041 479.379 469.506C481.89 466.971 484.24 464.817 486.428 463.045C488.535 461.463 490.48 460.263 491.777 459.463C493.074 458.663 493.925 458.348 493.925 458.348C494.048 458.625 491.048 460.053 486.956 463.493C484.971 465.352 482.621 467.506 480.11 470.041C477.599 472.576 475.128 475.579 472.578 478.772C470.027 481.966 467.638 484.777 465.329 487.399C471.573 485.096 479.195 481.802 487.991 477.431C493.504 474.594 499.463 471.27 505.663 467.374C511.864 463.478 518.105 458.924 524.304 453.902C530.503 448.88 536.823 443.01 542.817 436.776C544.154 435.318 545.368 433.583 545.609 431.885C545.729 431.036 545.566 430.292 545.119 429.653C544.671 429.013 544.021 428.287 543.168 427.476C542.315 426.664 541.3 426.234 540.366 425.613C539.757 425.355 539.432 424.992 538.823 424.734L537.28 423.855L535.737 422.976L534.113 422.288L532.49 421.6L530.785 421.102C526.28 419.867 521.532 419.205 517.071 419.563C512.609 419.922 507.985 420.662 503.809 422.041C495.456 424.8 488.364 429.668 483.221 435.587C480.548 438.504 478.281 441.593 476.217 444.767C474.356 448.028 472.495 451.289 471.12 454.531C468.372 461.016 466.597 467.463 465.267 473.423C464.904 474.844 464.744 476.352 464.381 477.773C464.342 478.431 464.099 479.003 464.06 479.661C463.939 480.51 463.9 481.168 463.779 482.017C463.986 484.354 463.583 486.434 463.465 488.408ZM459.779 413.502C459.86 413.311 459.941 413.12 459.9 412.653L459.616 412.757C459.738 413.034 459.657 413.225 459.779 413.502ZM459.447 408.636C459.53 409.571 459.49 410.229 459.573 411.164C459.857 411.06 460.14 410.955 460.505 410.66C460.706 409.62 461.191 408.476 461.554 407.055C462.846 402.877 465.11 397.537 468.305 391.693C471.42 386.039 474.983 381.024 477.614 377.64C480.246 374.256 482.231 372.398 482.434 372.484C482.637 372.57 480.977 374.791 478.346 378.175C475.917 381.645 472.638 386.555 469.523 392.209C466.408 397.863 463.861 403.308 462.244 407.122C461.759 408.266 461.274 409.411 460.87 410.364C461.518 409.964 462.086 409.755 462.937 409.441C465.005 408.517 467.234 407.212 469.666 405.993C470.315 405.593 470.882 405.384 471.531 404.984C472.179 404.584 472.747 404.375 473.395 403.975C474.692 403.174 475.908 402.565 477.205 401.765C478.502 400.965 479.799 400.165 481.177 399.174C481.825 398.774 482.474 398.374 483.203 397.783C483.852 397.383 484.581 396.792 485.23 396.392C490.66 392.619 496.291 387.807 501.882 382.527C507.553 377.057 512.857 370.756 517.999 363.711C520.427 360.241 523.018 356.389 525.121 352.556C526.214 350.544 527.306 348.533 528.398 346.521C529.287 344.423 530.177 342.325 530.863 340.141C531.549 337.957 532.033 335.687 532.029 333.436C532.026 331.185 531.535 328.952 530.761 326.824C529.703 324.801 528.362 322.882 526.575 321.45C524.787 320.017 522.432 318.794 520.2 317.848C517.886 317.092 515.289 316.441 512.936 316.343C510.38 316.16 507.946 316.253 505.634 316.623C500.807 317.277 496.266 318.952 492.173 321.266C488.079 323.58 484.432 326.534 481.395 329.746C478.357 332.958 475.644 336.533 473.622 340.175C469.292 347.564 466.87 355.537 465.097 363.11C463.324 370.682 462.402 377.941 461.6 384.351C460.998 388.595 460.558 392.458 460.402 396.217C460.283 398.191 460.164 400.166 460.249 402.226C460.169 403.543 460.293 404.945 460.214 406.262C459.323 407.234 459.284 407.892 459.447 408.636ZM454.198 609.121C453.223 608.032 452.329 606.753 451.434 605.474C451.069 605.77 450.908 606.151 450.827 606.342C450.908 606.151 450.989 605.96 451.434 605.474C448.467 601.742 445.255 597.455 441.638 592.997C437.329 587.346 432.492 581.246 427.208 574.506C422.127 567.853 416.436 560.941 410.057 553.962C403.677 546.983 396.445 540.318 387.755 534.835C383.41 532.093 378.781 529.456 373.993 528.326C371.598 527.761 369.042 527.577 366.853 528.224C364.663 528.871 362.717 530.071 361.219 531.911C359.721 533.75 358.832 535.848 358.268 538.309C357.784 540.579 357.423 543.126 357.63 545.463C357.755 547.991 358.246 550.224 358.939 552.542C359.183 553.096 359.427 553.649 359.469 554.117C359.672 554.203 359.591 554.394 359.794 554.48C360.932 556.312 362.68 558.403 364.711 560.389C366.743 562.375 369.261 564.342 372.063 566.205C374.865 568.068 377.667 569.93 380.144 571.43C382.621 572.93 384.814 574.535 386.682 575.777C389.89 577.812 392.084 579.416 392.692 579.674C392.084 579.416 390.013 578.088 386.602 575.967C384.734 574.726 382.379 573.502 379.983 571.812C377.506 570.312 374.623 568.64 371.901 566.587C369.099 564.724 366.581 562.756 364.347 560.684C362.64 559.061 361.421 557.419 360.323 556.054C360.812 557.161 361.3 558.268 361.87 559.184C366.346 567.831 373.334 575.068 380.767 580.694C388.2 586.319 396.279 590.419 404.195 593.774C411.908 597.044 419.457 599.569 426.398 601.836C434.231 604.257 441.375 606.61 447.301 608.447C442.71 604.026 437.185 598.984 431.254 593.77C422.438 585.759 414.192 578.663 408.261 573.45C402.655 568.598 399.162 565.543 398.634 565.094C398.959 565.457 402.817 568.217 408.706 572.963C414.799 577.796 423.248 584.977 432.064 592.989C438.645 598.928 444.495 604.333 449.411 609.116C451.522 609.786 453.227 610.284 455.053 611.058C455.215 610.677 455.093 610.4 455.254 610.018C454.646 609.76 454.321 609.397 454.198 609.121ZM461.755 589.6C465.405 588.898 469.825 588.072 474.894 586.846C479.963 585.62 485.803 584.271 491.885 582.349C498.171 580.514 504.779 577.915 511.427 574.659C518.156 571.212 524.925 567.106 531.286 561.703C534.364 558.959 537.321 555.937 539.953 552.553C542.585 549.169 545.094 545.508 546.589 541.417C548.084 537.326 548.766 532.891 547.057 529.017C545.428 524.951 541.812 521.619 537.508 519.345C536.899 519.086 536.574 518.724 535.965 518.465L534.342 517.777L533.53 517.433L532.718 517.089L531.013 516.591C528.619 516.026 526.427 515.547 524.074 515.45C519.368 515.255 514.622 515.718 510.243 517.011C505.864 518.305 501.932 520.238 498.325 522.533C494.718 524.829 491.558 527.764 488.804 530.872C483.296 537.086 479.412 543.989 476.177 550.492C473.064 557.272 470.599 563.652 468.377 569.459C466.558 574.313 464.902 578.786 463.204 582.791C463.285 582.6 463.366 582.409 463.569 582.495C466.323 579.388 469.319 575.708 472.844 572.478C476.449 569.056 480.015 566.293 483.297 563.635C485.039 562.348 486.701 561.253 488.159 560.071C489.821 558.976 491.199 557.985 492.699 557.271C493.995 556.471 495.292 555.67 496.509 555.061C497.725 554.452 498.657 553.947 499.305 553.547C500.886 552.642 501.738 552.328 501.941 552.414C501.941 552.414 501.211 553.005 499.631 553.91C498.982 554.31 497.969 555.005 496.753 555.615C495.74 556.31 494.443 557.11 493.146 557.91C491.849 558.711 490.471 559.701 488.809 560.797C487.148 561.892 485.689 563.074 483.947 564.36C480.665 567.019 477.018 569.973 473.494 573.203C469.97 576.434 466.851 579.837 464.097 582.944C463.206 583.916 462.315 584.888 461.627 585.947C461.061 587.282 460.576 588.426 460.01 589.761C460.7 589.828 461.268 589.619 461.755 589.6ZM455.821 503.617L455.699 503.34C455.332 502.51 454.966 501.679 454.519 501.04C453.419 498.549 452.036 496.163 450.531 493.5C449.962 492.584 449.595 491.753 449.026 490.837C448.579 490.198 448.213 489.367 447.765 488.728C447.318 488.088 446.871 487.449 446.504 486.618C445.61 485.339 444.593 483.784 443.78 482.314C442.682 480.949 441.666 479.393 440.568 478.028C440.121 477.388 439.471 476.663 438.821 475.937C438.17 475.211 437.723 474.572 437.073 473.846C432.074 468.128 426.589 462.428 419.846 456.87C413.225 451.588 405.753 446.621 397.471 442.435C396.456 442.005 395.319 441.298 394.304 440.868C393.289 440.438 392.274 440.008 391.057 439.491C389.027 438.631 386.713 437.875 384.441 437.587C382.25 437.108 379.977 436.82 377.746 436.999C375.515 437.178 373.407 437.634 371.542 438.644C369.961 439.549 368.625 441.007 367.694 442.637C366.764 444.268 366.442 446.156 366.404 447.94C366.366 449.724 366.938 451.766 367.306 453.722C367.958 455.573 368.813 457.51 369.748 459.257C370.684 461.003 371.904 462.645 373.407 464.182C374.707 465.634 376.211 467.171 377.714 468.708C380.599 471.506 383.848 474.008 387.178 476.32C393.636 480.857 400.416 484.631 406.872 488.042C413.327 491.454 419.458 494.502 425.263 497.188C438.742 503.801 449.825 508.724 457.538 511.994C457.415 511.717 457.212 511.631 457.09 511.354C453.798 507.259 448.921 501.817 443.152 496.222C437.464 490.436 432.061 485.671 428.039 482.166C426.13 480.457 424.343 479.024 423.286 478.127C422.23 477.229 421.499 476.694 421.499 476.694C421.499 476.694 422.23 477.229 423.367 477.936C424.626 478.919 426.292 480.075 428.485 481.68C432.668 484.803 438.274 489.654 444.043 495.249C449.732 501.035 454.608 506.477 457.617 510.677C458.064 511.317 458.389 511.68 458.836 512.319C459.039 512.405 459.039 512.405 459.242 512.491C458.305 509.619 457.164 506.661 455.821 503.617ZM452.073 388.187C451.706 387.356 451.137 386.44 450.852 385.419C449.305 382.289 447.475 379.263 445.239 376.065C443.003 372.868 440.483 369.775 437.679 366.786C436.175 365.249 434.875 363.798 433.372 362.261C431.868 360.724 430.365 359.186 428.578 357.754C425.287 354.784 421.632 352.11 417.774 349.349C416.84 348.729 415.703 348.022 414.769 347.401C413.835 346.78 412.698 346.073 411.683 345.643C410.749 345.022 409.531 344.505 408.597 343.885C407.582 343.454 406.445 342.747 405.227 342.231C400.843 340.148 396.093 338.359 391.102 337.143C386.11 335.927 381.159 335.179 376.008 335.47C373.574 335.563 370.856 335.761 368.463 336.322C367.896 336.531 367.206 336.464 366.638 336.673C366.071 336.882 365.3 337.006 364.733 337.215C363.597 337.634 362.462 338.052 361.327 338.471C360.395 338.976 359.178 339.585 358.571 340.453C358.126 340.939 357.761 341.234 357.316 341.721L356.789 342.397C356.708 342.588 356.547 342.969 356.466 343.16C355.374 345.172 354.89 347.442 354.894 349.693C354.82 354.387 356.612 359.196 358.931 363.329C359.42 364.436 360.192 365.438 360.964 366.44C361.737 367.443 362.509 368.445 363.281 369.447C364.054 370.45 364.907 371.261 365.679 372.264C366.532 373.075 367.305 374.078 368.158 374.889C371.49 378.326 375.267 381.277 379.125 384.038C386.842 389.559 394.921 393.658 402.553 397.118C410.185 400.579 417.573 403.485 424.271 406.324C431.05 408.973 437.139 411.554 442.336 413.982C444.163 414.756 445.908 415.721 447.735 416.496C447.938 416.582 448.141 416.668 448.141 416.668C450.902 418.063 453.46 419.372 455.531 420.7C456.14 420.958 456.668 421.407 457.277 421.665C457.48 421.751 457.48 421.751 457.683 421.837C457.763 421.646 457.763 421.646 457.844 421.456C457.762 420.521 457.679 419.586 457.597 418.651C453.735 413.639 448.37 407.09 442.354 399.816C436.339 392.541 430.69 386.097 426.464 381.381C422.563 377.027 420.165 374.211 419.84 373.848C420.165 374.211 422.927 376.732 426.91 380.895C431.217 385.42 437.149 391.76 443.245 398.844C449.016 405.565 453.895 412.132 457.35 416.972C457.349 415.846 457.266 414.911 457.061 413.699C457.02 413.232 456.979 412.764 456.938 412.297C456.814 410.895 456.812 409.769 456.688 408.367C456.317 404.159 455.864 400.143 455.615 396.212C454.232 393.826 453.294 390.954 452.073 388.187ZM447.25 312.573C447.17 312.764 447.373 312.85 447.292 313.041C447.292 313.041 447.211 313.231 447.414 313.317C447.536 313.594 447.455 313.785 447.496 314.252C447.496 314.252 447.416 314.443 447.619 314.529C447.865 316.208 448.313 317.973 448.479 319.843C448.922 318.231 449.244 316.343 449.769 314.541C450.615 310.85 451.623 306.777 453.118 302.686C454.612 298.595 456.513 294.676 458.577 291.501C460.641 288.327 462.746 285.619 464.69 283.293C466.553 281.158 468.051 279.319 469.226 278.242C470.401 277.165 470.927 276.488 470.927 276.488C470.927 276.488 470.401 277.165 469.551 278.604C468.498 279.958 467.081 281.607 465.34 284.019C461.94 288.652 457.122 294.934 454.335 303.202C452.841 307.293 451.833 311.366 450.784 314.971C450.139 317.622 449.371 319.997 448.766 321.99C448.807 322.457 448.849 322.925 448.89 323.392C449.619 322.801 450.348 322.211 451.078 321.62C451.888 320.838 452.698 320.057 453.508 319.275C453.792 319.171 453.954 318.789 454.238 318.685C454.318 318.494 454.602 318.389 454.683 318.199C456.223 316.826 457.762 315.454 459.463 313.7C459.747 313.596 459.909 313.214 460.192 313.109C460.273 312.919 460.557 312.814 460.638 312.623C461.367 312.033 462.177 311.251 462.988 310.47C464.243 309.202 465.418 308.125 466.674 306.858C469.185 304.322 471.858 301.406 474.531 298.489C479.958 292.465 485.83 285.955 491.62 278.51C497.329 271.256 502.348 263.934 506.841 257.289C508.986 253.924 511.05 250.749 512.83 247.679C513.761 246.048 514.61 244.609 515.46 243.169C516.31 241.729 516.956 240.204 517.725 238.955C518.656 237.324 519.506 235.885 520.152 234.359C519.827 233.996 519.502 233.633 519.177 233.27C516.048 229.919 511.5 227.092 506.061 225.236C500.825 223.466 494.617 222.86 488.411 223.379C485.41 223.681 482.246 224.365 479.205 225.326C476.367 226.373 473.489 228.078 470.937 230.146C468.384 232.213 466.157 234.644 464.051 237.351C461.946 240.058 460.247 242.938 458.263 245.922C455.998 250.136 453.936 254.437 452.36 258.718L452.279 258.909C451.471 260.816 450.946 262.619 450.341 264.612C449.897 266.224 449.453 267.835 449.09 269.256C448.767 270.019 448.647 270.868 448.526 271.717C448.406 272.566 448.285 273.415 448.043 273.987C447.439 277.106 447.038 280.311 446.719 283.325C446.086 293.856 446.385 303.882 447.25 312.573ZM444.046 312.79C441.001 311.499 437.551 310.036 434.019 308.764C428.58 306.909 422.371 305.177 415.513 303.844C408.858 302.598 401.635 301.562 393.764 300.925C386.096 300.374 378.063 300.119 369.746 299.968C365.446 299.945 361.349 300.008 356.845 299.899C354.695 299.888 352.545 299.876 350.517 300.142C348.489 300.407 346.786 301.035 345.814 302.198C344.843 303.361 344.602 305.059 344.929 306.547C345.459 308.122 346.475 309.677 347.856 310.938C349.318 312.008 351.145 312.782 353.134 313.175C355.122 313.568 357.191 313.77 359.058 313.886C367.294 314.227 375.61 314.378 383.237 314.461C398.694 314.714 412.527 314.278 424.129 314.021C431.147 313.846 437.272 313.518 442.424 313.227C441.45 313.264 440.274 313.216 438.894 313.081C435.648 312.83 431.226 312.53 426.276 311.781C421.325 311.033 417.064 310.352 413.777 309.633C410.693 309.001 408.705 308.608 408.705 308.608C408.705 308.608 416.698 309.521 426.477 310.742C431.427 311.49 435.769 311.981 439.015 312.232C441.651 312.225 443.437 312.531 444.046 312.79ZM432.926 257.68C431.626 256.229 430.042 254.882 428.255 253.45C426.467 252.017 424.396 250.69 422.042 249.466C417.413 246.829 411.81 244.23 405.437 241.753C392.772 236.609 377.551 231.282 359.979 226.983C355.677 225.835 351.01 224.981 346.627 224.023C344.436 223.544 341.96 223.17 339.688 222.882C337.213 222.508 335.022 222.029 332.669 221.931C330.315 221.834 328.084 222.013 325.976 222.469C323.867 222.925 322.002 223.934 320.788 225.669C320.181 226.537 319.857 227.3 319.453 228.253C319.252 229.293 319.132 230.142 319.133 231.268C319.218 233.328 320.195 235.542 321.252 237.566C322.513 239.675 323.855 241.593 325.481 243.407C326.334 244.219 327.106 245.221 327.959 246.033C328.812 246.845 329.666 247.656 330.722 248.554C334.337 251.886 338.399 254.733 342.418 257.112C346.641 259.577 350.823 261.574 355.085 263.381C359.429 264.997 363.853 266.423 367.952 267.485C369.047 267.725 370.143 267.964 371.239 268.203C372.335 268.443 373.43 268.682 374.323 268.836C376.392 269.038 378.584 269.517 380.653 269.719C384.792 270.124 389.011 270.337 392.824 270.379C400.735 270.357 407.996 269.61 414.444 268.519C421.096 267.514 427.016 265.974 431.883 264.662C432.937 264.434 434.072 264.015 435.127 263.787C434.841 262.766 434.636 261.555 434.351 260.534C431.064 259.815 426.762 258.667 421.932 257.069C417.102 255.472 412.758 253.856 409.511 252.479C406.669 251.275 404.639 250.414 404.436 250.328C404.639 250.414 406.547 250.998 409.753 251.907C412.96 252.816 417.384 254.241 422.214 255.839C426.841 257.35 430.94 258.413 434.065 259.513C434.065 259.513 434.065 259.513 434.146 259.322C434.105 258.855 433.454 258.129 432.926 257.68ZM419.244 197.884C419.285 198.352 419.53 198.905 419.49 199.564C419.409 199.754 419.531 200.031 419.531 200.031C419.45 200.222 419.573 200.499 419.573 200.499C419.492 200.689 419.695 200.775 419.614 200.966C419.655 201.433 419.9 201.987 419.941 202.454C420.063 202.731 419.982 202.922 420.104 203.199C421.124 207.006 422.306 210.431 423.772 213.752C423.894 214.029 424.016 214.306 424.016 214.306C424.749 215.966 425.481 217.627 426.214 219.287C426.857 215.51 428.027 211.057 429.886 206.67C431.342 203.237 433.203 199.977 435.227 197.46C437.252 194.943 439.195 192.618 440.896 190.864C444.177 187.08 446.446 185.117 446.446 185.117C446.649 185.203 444.624 187.719 441.628 191.399C440.129 193.238 438.186 195.564 436.161 198.081C434.34 200.684 432.559 203.754 431.104 207.186C429.083 211.954 427.752 216.79 426.947 220.948C427.68 222.609 428.332 224.46 429.065 226.12L429.187 226.397C429.553 227.227 429.919 228.058 430.083 228.802C430.69 227.934 431.5 227.153 432.107 226.285C433.079 225.122 434.132 223.769 435.104 222.606C435.468 222.31 435.63 221.929 435.995 221.634C436.521 220.957 436.966 220.471 437.493 219.794C439.436 217.468 441.339 214.675 443.444 211.967C447.452 206.467 451.986 200.289 456.276 193.558C460.566 186.827 464.491 180.392 467.971 174.442C469.67 171.563 471.369 168.684 472.785 165.909C474.404 163.22 475.658 160.827 476.912 158.434C478.165 156.041 479.258 154.029 480.066 152.122C480.551 150.977 481.239 149.919 481.643 148.966C479.572 147.638 477.34 146.691 474.62 145.764C467.112 143.706 457.295 144.269 447.971 148.191C438.646 152.113 430.017 159.479 424.555 169.538C421.359 175.383 419.382 181.744 418.864 188.049C418.745 190.023 418.627 191.998 418.792 193.868C418.916 195.27 419.039 196.673 419.244 197.884ZM306.837 149.561C311.674 155.661 318.296 162.068 326.744 168.124C335.191 174.179 345.139 179.521 356.221 184.444C361.621 186.957 367.182 189.09 372.459 191.327C377.817 193.373 382.769 195.247 387.883 196.74C392.794 198.147 397.583 199.277 401.966 200.235C406.429 201.002 410.568 201.406 414.584 201.534C415.558 201.496 416.248 201.564 417.018 201.441C417.018 201.441 417.018 201.441 417.099 201.25C416.936 200.506 416.772 199.761 416.609 199.017C415.594 198.587 414.376 198.071 412.874 197.659C406.907 195.355 399.072 191.809 390.384 187.451C381.777 182.902 374.427 178.212 369.228 174.658C366.629 172.882 364.639 171.363 363.177 170.293C361.918 169.31 361.187 168.775 360.984 168.689C361.187 168.775 361.918 169.31 363.258 170.103C364.801 170.982 366.872 172.31 369.471 174.086C374.75 177.449 382.262 181.758 390.869 186.307C399.274 190.769 407.312 194.401 412.995 196.81C413.604 197.068 414.416 197.413 415.025 197.671C405.031 188.485 391.912 178.199 376.644 169.027C366.533 162.942 356.505 157.791 347.168 153.833C344.732 152.801 342.5 151.854 340.267 150.908C338.034 149.961 335.721 149.206 333.691 148.345C329.348 146.729 325.41 145.285 321.717 144.395C318.024 143.504 314.575 143.167 311.696 143.746C308.817 144.326 306.587 145.631 305.048 147.003L304.967 147.194C305.617 147.919 306.187 148.836 306.837 149.561Z" fill="white"/>
<path d="M423.181 199.328C423.384 199.414 423.589 200.626 423.429 202.133C423.472 203.726 423.19 204.956 423.19 204.956C423.19 204.956 422.782 203.659 422.942 202.152C422.899 200.558 423.181 199.328 423.181 199.328Z" fill="white"/>
<path d="M421.605 97.4164C421.887 96.186 421.885 95.0604 422.289 94.1068C422.451 93.7254 422.613 93.3439 422.774 92.9625C423.259 91.8182 423.705 91.3321 423.908 91.4182C423.908 91.4182 423.22 92.4764 422.979 94.1742C422.859 95.0231 422.577 96.2534 422.578 97.3791C422.499 98.6954 422.217 99.9258 422.057 101.433C421.457 106.803 420.571 111.152 420.329 111.724C420.287 111.257 420.767 106.736 421.367 101.365C421.446 100.049 421.526 98.7327 421.605 97.4164Z" fill="white"/>
<path d="M435.701 478.211C434.359 476.293 433.14 474.651 432.245 473.372C431.473 472.369 430.823 471.644 430.7 471.367C430.903 471.453 431.554 472.179 432.326 473.181C433.301 474.27 434.724 475.997 436.065 477.916C437.407 479.835 438.546 481.667 439.156 483.051C439.767 484.435 440.134 485.265 440.134 485.265C440.134 485.265 438.384 482.049 435.701 478.211Z" fill="white"/>
<path d="M426.191 178.107C427.929 173.443 430.113 169.42 432.421 166.798C433.474 165.445 434.365 164.473 435.094 163.882C435.824 163.291 436.188 162.996 436.188 162.996C436.391 163.082 434.649 164.368 432.827 166.971C430.803 169.487 428.618 173.511 426.881 178.174C425.144 182.837 424.461 187.272 423.777 190.582C423.173 193.701 422.973 195.866 422.973 195.866C422.973 195.866 423.092 193.891 423.574 190.496C423.69 187.396 424.454 182.77 426.191 178.107Z" fill="white"/>
<path d="M439.524 379.94C438.752 378.938 437.655 377.573 436.232 375.845C433.387 372.389 429.364 367.759 424.651 363.061C419.734 358.278 415.185 354.324 411.529 351.65C409.742 350.217 408.28 349.148 407.346 348.527C406.412 347.906 405.884 347.457 405.884 347.457C406.087 347.543 406.615 347.992 407.549 348.613C408.686 349.32 410.148 350.389 411.733 351.736C415.388 354.41 420.221 358.259 424.934 362.957C429.648 367.654 433.874 372.371 436.516 375.74C437.938 377.468 439.036 378.833 439.524 379.94C440.378 380.752 440.825 381.392 440.825 381.392C440.825 381.392 440.297 380.943 439.524 379.94Z" fill="white"/>
<path d="M437.636 101.957C437.839 102.043 437.516 102.806 436.909 103.674C436.301 104.541 435.45 104.855 435.45 104.855C435.45 104.855 435.773 104.093 436.381 103.225C436.907 102.548 437.433 101.871 437.636 101.957Z" fill="white"/>
<path d="M450.316 195.75C450.316 195.75 449.628 196.808 448.495 198.352C447.361 199.897 445.498 202.032 443.352 204.272C441.205 206.511 439.22 208.37 437.68 209.742C436.222 210.924 435.412 211.705 435.128 211.81C435.209 211.619 436.303 210.733 437.355 209.379C438.692 207.921 440.758 205.872 442.904 203.632C445.051 201.392 446.914 199.257 448.25 197.799C449.506 196.531 450.316 195.75 450.316 195.75Z" fill="white"/>
<path d="M442.497 97.274C443.508 95.4529 444.437 92.6969 444.96 89.7687C445.564 86.6499 446.006 83.9124 446.205 81.7472C446.405 79.5819 446.606 78.5423 446.687 78.3516C446.687 78.3516 446.811 79.754 446.692 81.7285C446.573 83.7031 446.253 86.7173 445.65 89.8361C445.046 92.9549 443.914 95.6249 442.7 97.36C442.093 98.2275 441.566 98.9044 441.324 99.4765C441.566 98.9044 442.093 98.2275 442.497 97.274Z" fill="white"/>
<path d="M454.087 273.852C454.29 273.938 453.724 275.273 453.199 277.076C452.878 278.964 452.718 280.471 452.718 280.471C452.718 280.471 452.596 280.194 452.432 279.45C452.472 278.792 452.389 277.857 452.51 277.008C453.034 275.206 453.884 273.766 454.087 273.852Z" fill="white"/>
<path d="M441.876 167.65C442.848 166.487 444.59 165.2 446.738 164.086C448.887 162.972 450.874 162.239 452.373 161.525C453.873 160.811 454.847 160.774 454.847 160.774C454.847 160.774 453.915 161.279 452.699 161.888C451.28 162.411 449.415 163.421 447.266 164.535C445.118 165.649 443.376 166.936 442.282 167.822C441.836 168.308 441.188 168.708 441.026 169.089C440.945 169.28 440.661 169.385 440.581 169.575C440.581 169.575 440.661 169.385 441.026 169.089C440.904 168.813 441.147 168.24 441.876 167.65Z" fill="white"/>
<path d="M461.7 158.728C461.822 159.005 461.174 159.405 460.119 159.633C459.065 159.861 458.172 159.707 458.172 159.707C458.172 159.707 459.024 159.393 459.875 159.079C460.726 158.765 461.497 158.642 461.7 158.728Z" fill="white"/>
<path d="M454.266 153.11C455.563 152.31 457.347 151.491 459.537 150.845C461.726 150.198 463.754 149.933 465.215 149.877C466.675 149.821 467.568 149.974 467.568 149.974C467.487 150.165 463.957 150.019 459.578 151.312C457.388 151.959 455.685 152.587 454.469 153.196C453.253 153.806 452.402 154.12 452.402 154.12C452.402 154.12 453.05 153.72 454.266 153.11Z" fill="white"/>
<path d="M470.833 373.868C471.036 373.954 469.78 375.221 469.256 377.024C468.851 377.977 468.731 378.826 468.489 379.398C468.449 380.057 468.287 380.438 468.287 380.438C468.287 380.438 468.246 379.971 468.002 379.417C468.041 378.759 467.959 377.824 468.363 376.87C469.252 374.772 470.63 373.782 470.833 373.868Z" fill="white"/>
<path d="M476.856 464.163C477.059 464.249 475.884 465.326 475.359 467.128C475.036 467.891 474.915 468.74 474.876 469.398C474.836 470.056 474.675 470.438 474.675 470.438C474.675 470.438 474.552 470.161 474.389 469.417C474.429 468.758 474.346 467.823 474.669 467.061C475.275 465.067 476.653 464.077 476.856 464.163Z" fill="white"/>
<path d="M477.324 557.956C477.405 557.765 477.606 556.726 478.092 555.582C478.657 554.247 479.062 553.293 479.062 553.293C479.265 553.379 479.063 554.419 478.497 555.754C478.215 556.984 477.405 557.765 477.324 557.956Z" fill="white"/>
<path d="M478.55 274.33C479.563 273.635 480.292 273.044 480.495 273.13C480.698 273.216 479.888 273.997 479.078 274.779C478.268 275.56 477.416 275.874 477.132 275.979C477.213 275.788 477.74 275.111 478.55 274.33Z" fill="white"/>
<path d="M465.163 247.716C466.701 245.218 468.238 242.72 469.818 240.69C471.397 238.659 473.098 236.905 474.759 235.81C476.218 234.628 477.799 233.724 478.934 233.305C479.502 233.095 479.785 232.991 480.069 232.886C480.353 232.781 480.556 232.867 480.556 232.867C480.759 232.953 478.083 233.619 475.084 236.173C473.626 237.354 471.925 239.108 470.346 241.138C468.767 243.169 467.229 245.667 465.691 248.165C462.535 253.351 460.23 258.224 458.491 261.761C456.833 265.108 456.147 267.292 456.066 267.483C456.147 267.292 456.914 264.918 458.288 261.675C459.905 257.861 462.29 252.798 465.163 247.716Z" fill="white"/>
<path d="M501.401 570.63C501.604 570.716 500.348 571.983 498.565 572.802C497.632 573.307 496.862 573.43 496.091 573.554C495.321 573.677 495.037 573.782 495.037 573.782C495.037 573.782 496.456 573.258 498.32 572.249C499.901 571.344 501.279 570.353 501.401 570.63Z" fill="white"/>
<path d="M480.203 346.111C481.699 343.145 483.318 340.457 485.058 338.045C486.799 335.633 488.5 333.879 490.121 332.316C491.741 330.753 493.119 329.762 494.132 329.067C494.577 328.581 495.145 328.372 495.226 328.181C495.51 328.076 495.59 327.885 495.59 327.885C495.59 327.885 495.145 328.372 494.132 329.067C493.119 329.762 491.863 331.03 490.243 332.593C488.622 334.156 487.043 336.187 485.384 338.408C483.724 340.629 482.024 343.508 480.812 346.369C478.022 352.386 476.083 358.089 474.872 362.075C473.661 366.061 472.894 368.436 472.936 368.903C473.016 368.713 473.661 366.061 474.589 362.18C475.677 357.917 477.21 352.042 480.203 346.111Z" fill="white"/>
<path d="M479.233 453.466C480.283 449.861 482.101 445.008 485.176 440.012C488.252 435.016 492.344 431.576 495.586 429.576C497.248 428.48 498.667 427.957 499.802 427.538C500.37 427.328 500.653 427.224 500.937 427.119C501.221 427.014 501.424 427.101 501.424 427.101C501.424 427.101 499.154 427.938 495.911 429.938C492.669 431.939 488.78 435.465 485.704 440.461C482.71 445.266 480.608 450.224 479.356 453.743C478.628 455.46 478.265 456.881 477.861 457.834C477.537 458.597 477.295 459.169 477.417 459.446C477.498 459.255 477.66 458.874 477.861 457.834C478.346 456.69 478.709 455.269 479.233 453.466Z" fill="white"/>
<path d="M498.776 368.396C498.979 368.482 498.048 370.112 496.631 371.761C495.821 372.543 495.011 373.324 494.565 373.81C493.917 374.21 493.552 374.506 493.552 374.506C493.552 374.506 494.808 373.238 496.225 371.589C497.52 369.663 498.573 368.31 498.776 368.396Z" fill="white"/>
<path d="M501.437 462.658C501.64 462.744 500.262 463.735 498.682 464.64C497.101 465.545 495.682 466.068 495.398 466.173C495.479 465.982 496.573 465.096 498.154 464.191C499.937 463.372 501.437 462.658 501.437 462.658Z" fill="white"/>
<path d="M494.848 530.732C490.636 535.021 487.316 539.464 485.374 542.915C484.444 544.546 483.594 545.985 482.906 547.044C482.502 547.997 482.056 548.483 482.056 548.483C482.137 548.293 482.379 547.72 482.703 546.958C483.107 546.004 483.957 544.564 484.968 542.743C486.91 539.292 490.027 534.763 494.32 530.284C498.533 525.995 503.192 522.345 506.963 520.794C508.949 520.061 510.572 519.624 511.748 519.673C512.235 519.654 512.722 519.635 513.208 519.617C513.492 519.512 513.695 519.598 513.695 519.598C513.614 519.789 511.139 519.414 507.288 521.157C503.437 522.899 499.061 526.444 494.848 530.732Z" fill="white"/>
<path d="M495.802 255.092C499.041 250.84 501.712 246.798 503.412 243.919C504.261 242.479 505.03 241.23 505.638 240.362C506.245 239.495 506.406 239.113 506.406 239.113C506.406 239.113 506.164 239.686 505.841 240.448C505.436 241.402 504.748 242.46 503.818 244.091C502.037 247.161 499.366 251.203 496.411 255.35C493.172 259.602 489.973 263.195 487.665 265.816C485.437 268.247 483.898 269.619 483.614 269.724C483.695 269.533 485.315 267.97 487.34 265.454C489.567 263.023 492.563 259.344 495.802 255.092Z" fill="white"/>
<path d="M519.076 430.08C517.982 430.966 517.171 431.748 516.442 432.339C515.916 433.015 515.47 433.501 515.47 433.501C515.47 433.501 515.713 432.929 516.239 432.252C516.765 431.576 517.656 430.603 518.547 429.631C520.735 427.859 522.803 426.936 523.006 427.022C522.925 427.212 521.06 428.222 519.076 430.08Z" fill="white"/>
<path d="M514.138 333.278C513.125 333.974 512.476 334.374 512.396 334.564C512.476 334.374 513.125 333.974 513.935 333.192C514.826 332.22 516.285 331.038 517.621 329.58C520.497 326.749 522.522 324.233 522.725 324.319C522.928 324.405 521.025 327.198 518.149 330.029C516.61 331.401 515.232 332.392 514.138 333.278Z" fill="white"/>
<path d="M505.665 363.432C508.338 360.515 511.983 356.435 515.668 351.698C519.352 346.96 522.266 342.345 524.208 338.894C525.138 337.264 525.988 335.824 526.392 334.87C526.796 333.917 527.242 333.431 527.242 333.431C527.242 333.431 526.999 334.003 526.595 334.956C526.191 335.91 525.341 337.35 524.533 339.257C522.591 342.708 519.88 347.409 516.196 352.146C512.511 356.884 508.866 360.964 505.788 363.708C504.248 365.081 503.073 366.158 502.263 366.939C501.534 367.53 501.088 368.016 501.088 368.016C501.169 367.825 501.534 367.53 502.344 366.748C503.073 366.158 504.126 364.804 505.665 363.432Z" fill="white"/>
<path d="M527.717 536.794C526.704 537.489 526.056 537.889 525.975 538.08C526.34 537.785 528.406 535.736 531.201 533.096C534.077 530.265 536.101 527.749 536.304 527.835C536.507 527.921 534.605 530.714 531.729 533.544C530.189 534.917 528.731 536.098 527.717 536.794Z" fill="white"/>
<path d="M521.128 446.707C525.382 442.885 528.784 439.378 531.58 436.738C532.835 435.47 534.01 434.393 534.617 433.526C535.347 432.935 535.792 432.449 535.792 432.449C535.792 432.449 535.347 432.935 534.82 433.612C534.213 434.479 533.038 435.556 531.986 436.91C529.393 439.636 525.91 443.334 521.737 446.965C517.484 450.786 513.675 454.121 510.839 456.294C508.286 458.362 506.544 459.648 506.179 459.943C506.544 459.648 508.083 458.276 510.636 456.208C513.066 453.863 516.956 450.337 521.128 446.707Z" fill="white"/>
<path d="M515.02 563.364C518.059 561.277 521.99 558.219 526.162 554.588C530.335 550.957 533.941 547.536 536.452 545.001C537.708 543.733 538.679 542.57 539.409 541.979C540.138 541.389 540.584 540.903 540.584 540.903C540.584 540.903 540.341 541.475 539.612 542.066C539.005 542.933 538.114 543.905 536.858 545.173C534.55 547.794 530.864 551.406 526.691 555.037C522.518 558.668 518.384 561.64 515.426 563.536C513.845 564.441 512.751 565.327 511.819 565.832C511.17 566.232 510.806 566.527 510.522 566.632C510.603 566.441 511.17 566.232 511.819 565.832C512.264 565.345 513.561 564.545 515.02 563.364Z" fill="white"/>
</svg>
