<svg width="578" height="726" viewBox="0 0 578 726" fill="none" xmlns="http://www.w3.org/2000/svg">
<path d="M129.62 452.665C128.293 450.876 127.337 449.12 126.513 447.455C125.69 445.791 125.103 444.068 124.579 442.828C123.631 440.198 123.045 438.475 123.147 438.325C123.384 438.267 124.176 439.69 125.359 442.262C125.884 443.502 126.573 445.075 127.397 446.74C128.22 448.404 129.279 450.01 130.472 451.708C132.961 454.954 135.624 457.66 137.588 459.665C139.551 461.671 140.683 462.887 140.683 462.887C140.683 462.887 139.213 461.879 137.177 460.265C135.142 458.65 132.14 456.153 129.62 452.665Z" fill="white"/>
<path d="M153.589 495.06C155.028 495.826 155.821 497.25 155.821 497.25C155.821 497.25 154.341 497.116 152.768 496.259C151.329 495.493 150.229 494.519 150.537 494.07C150.876 493.862 152.151 494.295 153.589 495.06Z" fill="white"/>
<path d="M116.432 458.152C116.668 458.094 117.575 461.356 120.763 465.301C122.357 467.274 124.454 469.372 127.055 471.594C129.656 473.816 132.391 476.13 135.598 478.328C142.012 482.723 148.169 486.061 152.927 488.001C155.24 488.925 157.182 489.816 158.456 490.249C159.731 490.682 160.501 490.99 160.501 490.99C160.368 490.898 159.628 490.831 158.354 490.398C156.977 490.115 154.932 489.374 152.517 488.6C147.656 486.81 141.191 483.921 134.777 479.526C131.57 477.329 128.701 474.923 126.203 472.551C123.705 470.179 121.607 468.081 119.982 465.867C118.491 463.745 117.503 461.747 116.978 460.507C116.422 459.026 116.432 458.152 116.432 458.152Z" fill="white"/>
<path d="M114.271 467.898C115.404 471.976 117.112 475.788 118.892 479.209C122.586 486.142 127.47 491.91 132.672 496.355C135.273 498.577 138.079 500.5 140.721 502.09C143.496 503.771 146.21 504.97 148.923 506.169C154.318 508.325 159.385 509.816 163.814 511.09C165.961 511.681 168.109 512.272 170.123 512.771C172.004 513.18 173.884 513.588 175.498 513.813C175.631 513.904 175.867 513.846 176.001 513.937C176.032 514.179 176.166 514.27 176.197 514.512C176.526 515.178 176.722 515.752 177.051 516.418C177.246 516.992 177.411 517.325 177.607 517.899C180.818 525.822 184.07 533.113 187.907 539.264C191.743 545.415 195.59 550.692 198.367 555.236C200.681 559.023 202.461 562.444 203.778 565.107C206.335 577.424 208.83 589.259 211.232 600.37C214.531 615.617 217.572 629.807 220.458 642.79C225.994 668.814 230.037 689.854 232.431 704.701C233.03 708.413 233.566 711.642 233.938 714.538C234.413 717.285 234.723 719.698 235.104 721.721C235.507 724.858 235.889 726.881 235.951 727.363C235.858 726.639 235.61 724.708 235.207 721.571C234.959 719.64 234.649 717.226 234.277 714.33C233.905 711.434 233.369 708.205 232.77 704.493C230.509 689.737 226.806 668.49 221.506 642.407C218.856 629.366 215.815 615.176 212.752 599.871C209.907 586.255 206.937 571.674 204.008 556.46C203.863 554.379 203.789 551.908 203.818 549.286C203.681 543.469 203.994 536.42 205.324 528.747C206.449 521.374 209.094 513.501 213.219 505.762C213.424 505.462 213.629 505.163 213.701 504.772C213.701 504.772 213.701 504.772 213.803 504.622C216.259 504.764 219.116 505.18 222.373 505.871C224.254 506.279 226.237 506.538 228.354 506.888C229.463 506.988 230.573 507.088 231.682 507.188C232.289 507.163 232.792 507.288 233.398 507.263C234.005 507.238 234.508 507.363 235.114 507.338C237.57 507.48 240.2 507.081 242.932 506.532C245.665 505.983 248.438 504.801 251.047 503.287C256.5 500.2 261.367 495.391 265.935 490.157C270.369 484.831 274.978 478.964 278.323 471.791C279.184 469.96 279.81 468.188 280.435 466.415C280.927 464.551 281.522 462.537 281.643 460.64C281.715 460.248 281.756 459.616 281.827 459.225C281.765 458.742 281.94 458.201 281.878 457.719C281.99 456.695 281.866 455.729 281.742 454.764C281.494 452.833 281.01 450.961 280.289 449.146C278.848 445.518 276.39 442.513 273.317 440.407C272.515 439.857 271.744 439.55 270.943 439C270.038 438.601 269.165 438.442 268.26 438.043C266.38 437.635 264.428 437.618 262.538 438.083C260.647 438.549 258.788 439.256 257.196 440.147C255.605 441.037 253.91 442.077 252.586 443.15C249.566 445.264 246.784 447.319 244.165 449.707C238.898 454.242 234.268 458.993 230.141 463.87C226.117 468.596 222.833 473.389 219.887 477.975C217.044 482.41 214.942 486.912 213.753 490.94C212.697 495.059 212.659 498.555 212.661 501.418C212.651 502.291 212.744 503.015 212.837 503.74C212.735 503.889 212.632 504.039 212.529 504.189L212.427 504.339C212.324 504.488 212.324 504.488 212.221 504.638C207.758 512.585 205.072 521.09 203.876 528.855C202.813 536.711 202.633 543.852 202.771 549.669C202.792 550.784 202.813 551.899 202.937 552.865C202.875 552.382 202.68 551.808 202.618 551.325C199.41 533.939 196.345 515.771 193.897 496.704C192.254 483.913 190.95 470.913 190.087 457.556C190.343 455.75 190.804 453.644 191.265 451.539C191.869 448.651 192.781 445.314 193.929 441.919C194.452 440.296 195.077 438.523 195.805 436.601C196.185 435.76 196.431 434.828 196.913 433.838C197.293 432.998 197.775 432.007 198.154 431.167C201.601 423.844 205.962 416.046 211.566 408.441C212.387 407.242 213.208 406.044 214.163 404.937C214.368 404.638 214.574 404.338 214.779 404.038C214.882 403.889 215.087 403.589 215.189 403.439C220.533 404.239 227.017 405.38 234.436 407.162C236.953 407.787 239.605 408.503 242.492 409.161C243.869 409.444 245.277 409.968 246.788 410.343C248.298 410.718 249.809 411.092 251.525 411.167C253.241 411.243 255.028 410.927 256.548 410.428C258.305 409.87 259.794 409.13 261.489 408.09C264.672 406.309 267.66 403.954 270.453 401.025C273.143 398.246 275.771 394.984 277.864 391.356C279.957 387.728 281.516 383.733 282.571 379.614C283.627 375.494 283.911 371.067 283.62 366.906C283.196 362.653 282.166 358.425 280.457 354.613C279.963 353.614 279.603 352.707 279.007 351.858L278.215 350.435L277.32 349.162L276.991 348.496L276.559 347.98L275.664 346.706L274.666 345.583C274.368 345.158 273.967 344.883 273.669 344.459L272.569 343.485C272.168 343.21 271.87 342.786 271.469 342.511C270.77 341.812 269.968 341.263 269.166 340.713C267.563 339.614 265.856 338.666 264.048 337.866C262.136 337.217 260.122 336.717 258.067 336.85C256.012 336.983 253.989 337.357 252.027 338.214C250.168 338.921 248.34 339.87 246.676 341.151C245.896 341.717 244.982 342.191 244.201 342.757C243.76 343.115 243.421 343.323 242.979 343.681C242.538 344.039 242.199 344.247 241.757 344.604C235.678 349.464 230.833 355.388 226.8 360.989C224.85 363.835 222.899 366.681 221.288 369.319C220.498 370.758 219.677 371.957 218.887 373.396C218.682 373.696 218.477 373.995 218.405 374.387C218.2 374.686 218.128 375.077 217.923 375.377C217.717 375.676 217.646 376.068 217.441 376.367C217.235 376.667 217.164 377.058 216.958 377.357C215.717 380.029 214.979 382.825 214.447 385.322C213.915 387.818 213.618 390.257 213.558 392.637C213.315 396.432 213.512 399.869 213.987 402.615C214.018 402.857 214.018 402.857 214.049 403.098C212.889 404.504 211.862 406.002 210.836 407.5C205.365 415.197 200.902 423.145 197.486 430.709C197.004 431.699 196.624 432.54 196.245 433.38C195.865 434.221 195.517 435.303 195.137 436.143C194.512 437.916 193.886 439.688 193.394 441.552C192.38 445.039 191.571 448.227 190.997 451.356C190.68 452.679 190.599 453.944 190.384 455.117C189.979 449.117 189.676 442.967 189.507 436.908C188.823 413.547 189.885 390.503 192.653 368.408C193.614 360.701 194.841 353.178 196.202 345.746C197.515 342.684 199.064 339.563 200.983 336.476C204.514 330.751 209.122 324.884 214.368 319.234C218.423 314.749 222.643 310.597 226.555 306.894C226.894 306.686 227.099 306.386 227.541 306.028C228.178 306.245 228.815 306.461 229.452 306.678C232.504 307.669 235.886 309.325 239.833 311.589C241.806 312.721 243.913 313.945 246.123 315.019C248.467 316.185 250.913 317.2 253.697 318.008C254.335 318.224 255.074 318.291 255.948 318.449C256.318 318.483 256.687 318.516 257.057 318.549C257.427 318.583 257.797 318.616 258.167 318.649C258.907 318.716 259.647 318.783 260.623 318.791C260.993 318.824 261.363 318.858 261.835 318.741C262.205 318.775 262.678 318.658 263.048 318.692C266.315 318.509 269.787 318.027 273.166 316.821C276.679 315.706 280.13 314.108 283.519 312.028C286.908 309.948 290.266 307.627 293.46 304.972C296.653 302.318 299.918 299.272 302.916 296.044C305.913 292.815 308.747 289.254 311.281 285.268C313.816 281.282 315.817 276.929 317.046 272.269L317.292 271.337L317.435 270.555C317.476 269.922 317.65 269.381 317.691 268.749L317.813 266.851L317.884 266.46L317.823 265.977L317.832 265.104C317.873 264.471 317.811 263.988 317.718 263.264C317.522 262.69 317.563 262.058 317.367 261.483C316.976 260.335 316.821 259.128 316.327 258.129C314.557 253.835 311.431 250.372 307.618 248.2C303.907 245.877 299.509 244.845 295.306 244.386C291.001 244.078 286.789 244.493 282.639 245.391C278.489 246.29 274.503 247.521 270.785 248.935C263.246 251.913 256.365 256.223 250.625 260.875C247.771 263.321 245.153 265.709 242.699 268.43C241.508 269.595 240.482 271.093 239.424 272.35C238.911 273.099 238.501 273.698 237.987 274.447C237.474 275.196 237.064 275.795 236.653 276.394C234.939 279.182 233.596 282.003 232.457 284.524C232.252 284.824 232.18 285.215 231.975 285.515C231.903 285.906 231.698 286.205 231.626 286.596C231.349 287.287 231.175 287.828 230.898 288.519C230.447 289.75 229.996 290.982 229.678 292.305C228.346 297.115 227.558 301.418 227.016 304.788C227.016 304.788 227.016 304.788 226.913 304.938C226.811 305.088 226.574 305.146 226.472 305.296C226.369 305.446 226.369 305.446 226.267 305.595C222.118 309.357 217.796 313.659 213.505 318.202C208.259 323.852 203.547 329.868 200.15 335.685C198.95 337.724 197.749 339.763 196.919 341.835C198.516 334.345 200.144 327.097 202.04 320.031C206.712 302.322 212.248 285.645 218.042 270.025C223.385 255.636 228.985 242.305 234.267 230.296C235.294 228.798 236.454 227.392 237.48 225.894C238.506 224.396 239.399 222.807 240.394 221.068C240.907 220.319 241.523 219.42 242.036 218.671C242.55 217.922 243.165 217.023 243.781 216.125C248.533 209.476 254.529 203.019 261.696 197.144C261.799 196.994 262.035 196.936 262.138 196.786C263.36 195.863 264.581 194.939 265.803 194.015C265.527 194.706 265.25 195.397 264.839 195.996C264.562 196.687 264.285 197.377 263.875 197.977C263.875 197.977 263.875 197.977 263.772 198.126C263.906 198.218 264.173 198.401 264.307 198.493C264.841 198.859 265.478 199.075 266.147 199.533C266.681 199.899 267.185 200.024 267.822 200.241C268.089 200.424 268.459 200.457 268.726 200.64C268.993 200.824 269.363 200.857 269.764 201.131C272.477 202.33 276.167 203.538 280.4 204.237C282.517 204.587 284.87 204.879 287.326 205.021C289.884 205.013 292.576 205.096 295.339 204.789C298.103 204.481 301.205 203.966 304.143 203.117C307.215 202.36 310.358 201.212 313.47 199.823C319.828 197.136 326.298 193.425 333.138 189.747C336.558 187.908 339.947 185.828 343.541 183.449C346.899 181.127 350.462 178.506 353.46 175.278C356.458 172.049 359.26 168.246 360.757 163.769C361.454 161.605 361.986 159.108 361.81 156.787C361.789 155.671 361.397 154.523 361.14 153.466C360.748 152.317 360.255 151.319 359.761 150.32C357.446 146.533 353.807 143.819 349.851 142.429C345.791 141.188 341.62 140.971 337.408 141.387C329.22 142.16 321.351 144.472 314.182 147.484C312.457 148.283 310.731 149.081 309.006 149.88C307.414 150.77 305.586 151.719 303.994 152.609C302.402 153.499 300.841 154.631 299.249 155.521C298.469 156.087 297.791 156.503 297.011 157.069C296.23 157.634 295.552 158.051 294.772 158.616C293.314 159.598 291.989 160.672 290.664 161.745C290.018 162.402 289.34 162.818 288.796 163.326C288.251 163.834 287.605 164.491 287.061 164.999C286.516 165.506 285.87 166.163 285.325 166.671C284.781 167.179 284.134 167.836 283.59 168.344C282.533 169.6 281.445 170.615 280.49 171.722C280.285 172.022 279.946 172.23 279.74 172.529C279.535 172.829 279.33 173.128 278.991 173.336C278.58 173.935 278.036 174.443 277.626 175.042C276.671 176.149 275.716 177.256 274.998 178.304C273.458 180.551 271.888 182.556 270.585 184.745C269.866 185.794 269.384 186.784 268.768 187.683C268.152 188.581 267.67 189.571 267.188 190.562C267.085 190.712 266.983 190.861 266.777 191.161C264.775 192.65 262.773 194.14 260.668 195.779C253.398 201.803 247.331 208.652 242.579 215.301C241.963 216.199 241.45 216.948 240.834 217.847C240.218 218.746 239.705 219.495 239.325 220.335C238.33 222.074 237.437 223.664 236.411 225.162C236.103 225.611 235.898 225.911 235.59 226.36C241.18 213.902 246.32 202.676 251.039 192.923C253.45 187.972 255.758 183.17 257.758 178.818C259.892 174.557 261.687 170.504 263.442 167.084C265.062 163.572 266.714 160.302 267.955 157.631C268.643 156.341 269.197 154.959 269.781 153.819C269.884 153.669 269.884 153.669 269.987 153.52C270.192 153.22 270.366 152.679 270.572 152.38C271.946 149.8 273.228 146.496 274.51 143.192C274.613 143.043 274.613 143.042 274.716 142.893C274.992 142.202 275.238 141.27 275.618 140.429L275.721 140.28C281.091 135.595 288.678 128.247 296.335 117.646C300.163 112.345 303.899 106.32 307.14 99.2966C310.146 92.3312 312.791 84.4588 313.525 75.9368C313.84 71.7508 313.888 67.3815 313.33 63.0372C312.772 58.6928 311.608 54.3734 309.766 50.47C307.924 46.5666 305.476 42.6881 301.94 39.8247C300.172 38.393 298.198 37.2608 296.019 36.4283C293.841 35.5958 291.488 35.3041 289.063 35.4037C284.214 35.6027 279.479 37.641 275.577 40.4701C273.574 41.9595 271.705 43.5405 270.104 45.3046C268.502 47.0687 266.932 49.0741 265.598 51.0213C263.063 55.0074 260.929 59.2682 259.401 63.504C257.873 67.7399 256.582 71.9175 255.526 76.0369C253.416 84.2757 252.487 92.2234 252.338 99.6052C252.33 103.342 252.662 106.871 253.198 110.1C253.735 113.329 254.508 116.5 255.619 119.463C256.597 122.334 258.017 124.848 259.508 126.97C261 129.092 262.594 131.065 264.157 132.796C267.282 136.259 270.182 138.906 272.649 141.036L272.783 141.128C272.916 141.22 273.184 141.403 273.215 141.644C273.348 141.736 273.482 141.827 273.482 141.827C272.682 144.141 271.882 146.454 271.052 148.526C270.703 149.608 270.324 150.449 269.841 151.439C269.667 151.98 269.39 152.671 268.98 153.27C268.395 154.41 267.707 155.7 267.154 157.081C266.846 157.531 266.774 157.922 266.466 158.371C265.194 160.801 263.953 163.472 262.373 166.352C260.516 169.922 258.689 173.733 256.453 178.143C254.319 182.404 252.011 187.206 249.6 192.157C244.675 202.21 239.331 213.736 233.432 226.643C232.571 228.473 231.843 230.396 230.878 232.376C228.15 238.651 225.319 245.075 222.55 251.983C222.724 251.442 222.765 250.809 222.836 250.418C223.051 249.245 223.266 248.071 223.584 246.748C223.901 245.425 223.982 244.16 224.269 242.595C224.341 242.204 224.412 241.813 224.381 241.572C224.453 241.18 224.525 240.789 224.494 240.548C224.637 239.766 224.544 239.042 224.687 238.259C224.83 237.477 224.737 236.753 224.747 235.879C224.757 235.005 224.9 234.223 224.91 233.349C224.845 230.004 224.75 226.417 224.388 222.647C223.985 219.509 223.582 216.372 222.912 213.051C222.912 213.051 222.778 212.959 222.881 212.81C222.716 212.477 222.788 212.085 222.623 211.753C222.767 210.97 222.776 210.096 222.786 209.223C223.163 205.519 223.417 200.85 223.711 195.549C224.005 190.248 224.073 184.131 224.181 177.382C224.053 170.69 223.729 163.425 222.84 155.552C222.592 153.621 222.344 151.69 221.962 149.668C221.581 147.646 221.333 145.715 220.951 143.692C220.188 139.648 219.157 135.42 217.315 131.516C216.461 129.61 215.237 127.671 213.911 125.882C212.584 124.092 210.816 122.661 208.945 121.379C205.101 118.965 200.672 117.691 196.171 116.808C191.67 115.925 186.861 115.492 181.909 115.84C179.382 116.09 176.988 116.431 174.523 117.163C172.058 117.895 169.624 118.868 167.22 120.083C164.817 121.297 162.578 122.845 160.638 124.817C158.666 126.548 156.86 128.612 155.32 130.859C153.781 133.105 152.642 135.627 151.873 138.182C151.105 140.736 150.706 143.325 150.646 145.705C150.483 148.235 150.793 150.648 151.206 152.912C151.361 154.119 151.752 155.267 152.01 156.324C152.205 156.899 152.401 157.473 152.463 157.956C152.659 158.53 152.854 159.104 152.916 159.587C154.553 163.79 156.867 167.577 159.253 170.973C161.876 174.31 164.57 177.257 167.366 180.053C170.163 182.85 173.031 185.256 175.663 187.719C181.163 192.589 186.365 197.034 190.93 201.262C193.264 203.301 195.464 205.249 197.767 207.047C199.936 208.753 202.31 210.16 204.52 211.234C206.73 212.308 209.011 212.991 211.025 213.49C213.142 213.84 215.228 213.949 217.046 213.874C218.628 213.858 220.046 213.508 221.33 213.067C221.361 213.309 221.494 213.4 221.525 213.642C221.618 214.366 221.845 215.181 221.938 215.905C222.351 218.169 222.763 220.433 222.94 222.755C223.302 226.525 223.5 229.962 223.564 233.307C223.554 234.181 223.544 235.055 223.504 235.688C223.494 236.561 223.587 237.286 223.444 238.068C223.3 238.85 223.393 239.574 223.25 240.356C223.178 240.747 223.107 241.139 223.138 241.38C223.066 241.771 222.995 242.162 223.026 242.404C222.842 243.818 222.658 245.233 222.577 246.498C222.362 247.672 222.28 248.937 222.065 250.11C221.851 251.283 221.738 252.307 221.492 253.239C221.349 254.021 221.175 254.562 221.032 255.345C219.165 259.788 217.432 264.324 215.596 269.009C209.771 284.388 204.133 301.215 199.358 319.074C198.794 321.329 198.128 323.734 197.565 325.989C197.491 323.518 197.088 320.38 196.284 316.968C195.058 312.166 192.66 306.781 189.728 301.03C187.485 296.852 184.708 292.307 181.592 287.971C181.592 287.971 181.592 287.971 181.694 287.821C181.797 287.671 181.663 287.58 181.766 287.43C181.869 287.28 181.838 287.039 182.043 286.739C182.535 284.875 182.893 282.919 183.354 280.814C183.569 279.64 183.681 278.617 183.998 277.294C184.213 276.12 184.295 274.855 184.612 273.532C185.276 268.264 185.745 262.422 185.647 255.972C185.55 249.522 184.888 242.465 183.588 235.191C182.753 231.537 182.155 227.826 180.58 224.105C179.859 222.291 179.005 220.385 177.71 218.837C176.517 217.139 174.882 215.799 173.042 214.758C169.362 212.677 165.334 211.678 161.029 211.369C156.724 211.061 152.142 211.443 147.653 212.549C143.164 213.655 138.603 215.153 134.238 217.225C129.873 219.296 125.436 221.759 121.463 224.979C119.491 226.71 117.653 228.532 115.98 230.687C114.512 232.543 113.445 234.673 112.615 236.746C112.512 236.895 112.44 237.286 112.338 237.436C110.605 241.972 109.848 246.516 109.697 251.035C109.728 251.276 109.759 251.517 109.687 251.908C109.447 261.429 111.807 270.309 116.106 277.218C118.153 280.821 120.745 283.918 123.613 286.323C124.312 287.022 125.114 287.572 125.782 288.03C126.584 288.579 127.386 289.128 128.054 289.586C128.455 289.861 128.856 290.136 129.257 290.41C129.657 290.685 130.161 290.81 130.428 290.993C130.829 291.268 131.333 291.393 131.6 291.576L132.134 291.942L132.771 292.158C133.542 292.466 134.447 292.866 135.218 293.174C135.988 293.482 136.862 293.64 137.766 294.04C138.27 294.165 138.537 294.348 139.04 294.473C139.41 294.506 139.914 294.631 140.284 294.665C141.157 294.823 141.928 295.131 142.801 295.289C144.415 295.514 146.161 295.83 147.641 295.964C148.381 296.03 149.254 296.189 150.097 296.106C150.837 296.172 151.679 296.089 152.419 296.156C153.158 296.223 154.001 296.14 154.843 296.056C155.686 295.973 156.292 295.948 157.134 295.865C157.843 295.691 158.583 295.757 159.292 295.583C160.001 295.408 160.74 295.475 161.449 295.3C164.315 294.843 166.914 294.202 169.246 293.379C170.53 292.938 171.711 292.647 172.625 292.172C173.2 291.906 173.673 291.79 174.248 291.523C174.484 291.465 174.823 291.257 175.06 291.199C175.296 291.141 175.635 290.933 175.871 290.874C176.785 290.4 177.833 290.018 178.747 289.543C179.425 289.127 180.236 288.803 180.914 288.387C181.048 288.478 181.078 288.72 181.078 288.72C181.243 289.053 181.51 289.236 181.541 289.477C184.493 293.481 186.941 297.359 189.05 301.446C192.085 307.047 194.483 312.432 195.812 317.084C196.976 321.404 197.338 325.174 197.443 327.887C195.189 336.908 193.336 346.204 191.884 355.774C187.865 381.415 186.117 408.612 186.99 436.283C187.254 445.929 187.856 455.367 188.562 464.655C186.82 457.738 184.082 449.699 180.88 440.902C177.905 432.92 174.364 424.331 171.101 415.051C170.741 414.144 170.38 413.237 170.02 412.329C168.29 407.402 166.828 402.658 165.366 397.915C165.201 397.582 165.139 397.099 164.974 396.766C164.841 396.674 164.944 396.525 164.81 396.433C165.189 395.593 165.672 394.602 166.051 393.762C167.087 391.39 168.462 388.81 169.436 385.956C170.544 383.193 171.487 380.097 171.895 376.635C171.967 376.244 172.038 375.853 171.976 375.37C172.048 374.979 171.986 374.497 172.058 374.105C172.067 373.232 172.211 372.449 172.22 371.575C172.23 370.702 172.239 369.828 172.383 369.045C172.392 368.172 172.402 367.298 172.412 366.424C172.45 362.929 172.355 359.342 171.993 355.572C171.402 348.123 169.773 340.183 166.254 332.709C162.735 325.235 156.884 318.585 149.154 314.39L148.486 313.932C148.219 313.749 147.983 313.807 147.716 313.624L146.174 313.008C145.773 312.733 145.033 312.666 144.632 312.392C144.129 312.267 143.492 312.05 142.988 311.925C140.84 311.334 138.59 310.893 136.134 310.751C133.781 310.459 131.388 310.8 128.994 311.141C128.388 311.166 127.813 311.432 127.206 311.457C126.498 311.632 126.025 311.748 125.316 311.923C124.135 312.214 122.985 312.746 121.834 313.279C119.534 314.344 117.295 315.891 115.457 317.714C113.62 319.536 112.08 321.783 111.044 324.155C110.008 326.526 109.342 328.931 108.809 331.428C108.38 333.775 108.217 336.305 108.157 338.685C108.274 343.387 109.335 347.856 111.074 351.91C112.68 355.871 114.861 359.567 117.349 362.813C122.193 369.213 128.063 374.116 133.912 377.903C139.658 381.841 145.414 384.904 150.564 387.992C155.446 390.897 159.691 393.586 163.228 396.45C163.29 396.932 163.485 397.507 163.65 397.84C165.01 402.733 166.739 407.66 168.366 412.737C171.99 422.924 176.025 432.512 179.226 441.309C182.664 450.048 185.403 458.088 187.144 465.004C187.628 466.876 188.082 468.508 188.401 470.047C189.178 478.944 190.16 487.541 191.245 495.988C193.694 515.055 196.892 533.315 200.1 550.7C200.801 554.263 201.502 557.825 202.204 561.387C201.185 559.148 199.765 556.634 198.181 553.788C195.373 549.002 191.66 543.817 187.926 537.516C184.223 531.457 180.837 524.075 177.76 516.243C177.266 515.244 176.874 514.096 176.381 513.097C176.247 513.005 176.35 512.856 176.216 512.764C176.185 512.523 176.051 512.431 176.02 512.19C176.231 505.291 176.132 495.978 174.47 484.934C172.55 472.833 168.667 458.726 161.382 444.71C159.469 441.198 157.319 437.744 154.728 434.648C153.432 433.1 152.136 431.552 150.604 430.062C149.072 428.572 147.438 427.232 145.701 426.041C142.226 423.661 137.971 421.846 133.327 421.745C131.005 421.695 128.509 422.186 126.177 423.009C125.027 423.542 123.877 424.074 122.86 424.698C121.843 425.322 120.857 426.188 119.872 427.053C118.886 427.918 118.034 428.875 117.182 429.832C116.464 430.881 115.612 431.838 115.027 432.978C113.723 435.166 112.687 437.538 112.021 439.943C110.555 444.662 110.333 449.572 110.655 453.974C110.831 456.296 111.11 458.468 111.625 460.582C111.883 461.639 112.14 462.696 112.398 463.753C113.653 465.934 113.911 466.991 114.271 467.898ZM163.638 395.85C160.235 393.079 156.36 390.423 151.879 387.793C146.832 384.555 141.179 381.342 135.535 377.254C132.729 375.332 129.758 373.076 127.126 370.612C124.36 368.057 121.934 365.293 119.579 362.139C117.223 358.984 115.31 355.472 113.602 351.66C112.13 347.79 111.099 343.562 111.014 339.102C110.971 336.871 111.165 334.583 111.492 332.386C111.707 331.212 112.024 329.889 112.373 328.807C112.537 329.14 112.733 329.714 113.093 330.621C113.258 330.954 113.422 331.287 113.587 331.62C113.752 331.953 114.05 332.378 114.215 332.71C114.678 333.468 115.171 334.467 115.799 335.557C116.097 335.981 116.426 336.647 116.858 337.163C117.29 337.679 117.619 338.345 118.051 338.861C118.813 340.043 119.81 341.167 120.838 342.532C122.864 345.02 125.26 347.542 127.923 350.247C130.688 352.803 133.392 354.875 136.065 356.707C137.401 357.622 138.604 358.446 139.909 359.121C140.443 359.487 141.214 359.795 141.749 360.161C142.283 360.528 142.92 360.744 143.455 361.11C144.493 361.601 145.531 362.093 146.436 362.492C146.836 362.767 147.34 362.892 147.607 363.075C147.977 363.108 148.378 363.383 148.645 363.566C149.786 363.907 150.321 364.274 150.557 364.216C150.423 364.124 149.786 363.907 148.614 363.325C148.347 363.142 147.977 363.108 147.576 362.834C147.175 362.559 146.908 362.376 146.405 362.251C145.603 361.701 144.698 361.302 143.527 360.719C142.992 360.353 142.458 359.987 141.821 359.77C141.286 359.404 140.751 359.038 140.083 358.58C138.881 357.756 137.678 356.932 136.342 356.016C133.905 354.127 131.068 351.962 128.436 349.499C125.804 347.035 123.408 344.513 121.383 342.024C120.385 340.901 119.49 339.627 118.493 338.503C118.061 337.987 117.629 337.471 117.3 336.805C116.868 336.289 116.672 335.715 116.241 335.199C113.823 331.562 112.435 329.29 112.003 328.774C112.249 327.842 112.731 326.851 113.11 326.011C114.044 323.789 115.378 321.842 117.011 320.319C118.746 318.646 120.645 317.307 122.843 316.392C123.994 315.859 125.042 315.476 126.089 315.094C126.664 314.828 127.271 314.803 127.743 314.686C128.216 314.57 128.924 314.395 129.397 314.279C131.554 313.996 133.845 313.805 136.065 314.005C138.15 314.113 140.401 314.555 142.415 315.054C142.918 315.179 143.422 315.304 143.823 315.579C144.326 315.704 144.83 315.829 145.231 316.103L146.772 316.72C147.04 316.903 147.276 316.844 147.543 317.028L148.211 317.485C155.54 321.406 161.329 327.574 164.581 334.865C167.935 342.006 169.533 349.704 170.36 357.094C170.723 360.864 170.92 364.302 170.882 367.797C170.872 368.671 170.863 369.545 170.853 370.418C170.843 371.292 170.834 372.166 170.69 372.948C170.681 373.822 170.537 374.605 170.528 375.478C170.456 375.87 170.518 376.352 170.447 376.743C170.375 377.135 170.303 377.526 170.231 377.917C169.895 380.988 168.952 384.083 168.08 386.788C167.106 389.642 165.968 392.164 164.932 394.536C164.758 395.077 164.45 395.526 164.275 396.067C163.142 391.989 161.906 388.06 160.702 384.374C157.839 375.368 154.864 367.387 151.736 361.062C148.608 354.736 145.564 350.009 143.106 347.004C142.808 346.579 142.509 346.155 142.242 345.972C141.944 345.547 141.676 345.364 141.512 345.031C141.676 345.364 142.078 345.639 142.242 345.972C142.407 346.305 142.705 346.729 143.003 347.154C145.358 350.308 148.403 355.036 151.295 361.419C154.186 367.803 157.161 375.784 159.788 384.848C161.269 387.844 162.269 391.831 163.638 395.85ZM114.805 239.567C115.371 240.175 116.07 240.874 116.933 241.906C117.797 242.938 118.764 243.82 119.864 244.794C120.429 245.402 121.097 245.86 121.663 246.467C122.228 247.075 122.897 247.533 123.596 248.232C124.963 249.389 126.464 250.637 127.965 251.886C131.203 254.325 134.709 256.947 138.686 259.453C142.664 261.958 146.58 263.981 150.229 265.821C152.038 266.62 153.847 267.419 155.522 268.127C156.293 268.435 157.197 268.834 157.968 269.142C158.739 269.45 159.509 269.759 160.147 269.975C161.555 270.5 162.829 270.932 164.103 271.365C165.244 271.707 166.251 271.956 167.022 272.265C167.155 272.356 167.392 272.298 167.525 272.389C170.847 276.426 174.436 280.646 178.055 285.107C178.95 286.381 180.081 287.596 180.976 288.87C180.298 289.286 179.62 289.702 178.809 290.026C177.895 290.5 176.847 290.883 175.933 291.357C175.697 291.415 175.358 291.623 175.122 291.682C174.885 291.74 174.649 291.798 174.31 292.006C173.735 292.272 173.262 292.389 172.687 292.655C171.64 293.038 170.458 293.329 169.174 293.77C166.709 294.502 164.213 294.992 161.347 295.45C160.638 295.624 160.032 295.649 159.189 295.732C158.48 295.907 157.741 295.84 157.032 296.015C156.292 295.948 155.583 296.123 154.843 296.056C154.104 295.99 153.395 296.164 152.655 296.098C151.915 296.031 151.073 296.114 150.333 296.047C149.593 295.981 148.853 295.914 147.98 295.756C146.5 295.622 144.754 295.306 143.243 294.931C142.37 294.773 141.732 294.556 140.859 294.398C140.489 294.365 139.986 294.24 139.718 294.057C139.348 294.024 138.947 293.749 138.577 293.715C137.807 293.407 136.933 293.249 136.163 292.941C135.392 292.633 134.621 292.325 133.717 291.925L133.079 291.709L132.545 291.343C132.144 291.068 131.877 290.885 131.373 290.76C130.972 290.485 130.705 290.302 130.201 290.177C129.698 290.052 129.533 289.72 129.132 289.445C128.464 288.987 127.662 288.438 126.861 287.888C126.059 287.339 125.493 286.731 124.692 286.182C122.06 283.718 119.602 280.713 117.586 277.351C113.821 270.809 111.554 262.653 111.784 254.006C112.052 254.189 112.185 254.281 112.453 254.464C113.686 255.529 115.166 255.663 115.166 255.663C115.166 255.663 114.507 254.331 113.274 253.265C112.739 252.899 112.205 252.533 111.804 252.258C111.986 247.981 112.671 243.828 114.199 239.592C114.774 239.326 114.671 239.476 114.805 239.567ZM181.797 287.671C180.902 286.398 180.038 285.366 179.144 284.092C176.058 279.997 172.902 276.293 169.776 272.831C168.48 271.283 167.184 269.735 165.92 268.428C161.765 263.6 157.94 259.439 154.578 256.034C151.319 252.48 148.656 249.775 146.826 247.861C145.129 246.038 144.029 245.064 143.895 244.972C144.029 245.064 145.026 246.188 146.723 248.011C148.451 250.075 151.011 252.93 154.27 256.484C157.293 260.096 161.016 264.407 165.17 269.235C165.9 270.175 166.631 271.116 167.597 271.998L167.463 271.907C166.693 271.599 165.788 271.199 164.514 270.766C163.476 270.275 162.068 269.751 160.66 269.226C159.889 268.918 159.252 268.702 158.45 268.152C157.679 267.844 157.011 267.386 156.107 266.987C154.432 266.279 152.725 265.33 151.019 264.381C147.37 262.541 143.557 260.369 139.713 257.955C135.735 255.449 132.127 252.977 128.889 250.538C127.388 249.289 125.784 248.191 124.417 247.034C123.749 246.576 123.05 245.877 122.381 245.419C121.713 244.961 121.148 244.353 120.48 243.896C117.879 241.673 115.946 239.909 114.815 238.693C115.748 236.471 116.815 234.341 118.283 232.485C119.617 230.538 121.352 228.866 123.221 227.285C126.959 224.123 131.293 221.81 135.555 219.888C139.818 217.966 144.111 216.285 148.497 215.329C152.884 214.373 157.199 213.807 161.267 214.174C165.336 214.541 169.334 215.299 172.51 217.255C175.788 219.061 177.907 222.274 179.317 225.661C180.625 229.198 181.459 232.852 182.294 236.506C183.697 243.63 184.462 250.538 184.662 256.838C184.862 263.138 184.527 269.071 183.965 274.189C183.884 275.454 183.669 276.628 183.588 277.893C183.373 279.066 183.158 280.24 183.046 281.263C182.719 283.46 182.36 285.416 181.869 287.28C181.869 287.28 181.766 287.43 181.797 287.671ZM222.275 212.834C221.094 213.125 219.542 213.383 217.96 213.4C216.142 213.474 214.292 213.308 212.042 212.866C210.028 212.367 207.849 211.534 205.639 210.46C203.429 209.386 201.291 207.921 199.122 206.215C196.953 204.509 194.753 202.561 192.522 200.372C187.957 196.143 182.858 191.549 177.594 186.621C172.196 181.602 166.531 176.4 161.657 169.758C159.27 166.362 157.223 162.758 155.618 158.797C155.422 158.222 155.36 157.74 155.062 157.315C154.866 156.741 154.804 156.258 154.609 155.684C154.351 154.627 154.093 153.57 153.938 152.363C153.526 150.099 153.349 147.777 153.543 145.489C153.603 143.109 154.033 140.762 154.73 138.598C155.53 136.285 156.463 134.063 157.9 131.966C160.671 127.921 164.614 124.46 168.948 122.147C173.385 119.684 178.11 118.52 182.692 118.138C187.274 117.755 191.949 118.097 196.45 118.98C200.817 119.771 205.01 121.103 208.587 123.334C212.03 125.474 214.55 128.961 216.361 132.623C218.069 136.435 219.068 140.421 219.934 144.316C220.316 146.339 220.697 148.361 221.048 150.142C221.296 152.073 221.678 154.095 221.926 156.026C222.918 163.749 223.344 170.865 223.472 177.556C223.6 184.247 223.635 190.214 223.475 195.607C223.283 200.759 223.132 205.278 222.889 209.073C221.982 205.81 221.178 202.398 220.035 199.194C217.297 191.154 213.942 184.013 210.444 177.654C208.696 174.475 206.978 171.537 205.291 168.84C204.067 166.901 202.874 165.203 201.681 163.505C201.557 162.54 201.433 161.574 201.175 160.517C200.35 155.99 198.599 149.948 195.163 144.072C191.963 138.137 188.282 133.193 185.659 129.856C182.903 126.427 181.176 124.362 181.073 124.512C180.971 124.662 182.462 126.784 184.879 130.422C187.399 133.909 190.844 138.911 194.044 144.845C197.243 150.78 199.436 156.464 200.466 160.692C200.559 161.416 200.755 161.99 200.95 162.565C200.652 162.14 200.488 161.807 200.22 161.624C197.104 157.288 194.348 153.859 192.353 151.611C191.356 150.488 190.626 149.547 190.06 148.939C189.628 148.423 189.33 147.999 189.33 147.999C189.464 148.09 190.492 149.456 192.117 151.669C194.009 154.067 196.529 157.554 199.543 162.04C200.139 162.889 200.602 163.646 201.198 164.495C201.26 164.978 201.322 165.461 201.384 165.944C201.477 166.668 201.539 167.15 201.57 167.392C201.642 167 201.58 166.518 201.621 165.885C201.59 165.644 201.559 165.403 201.528 165.161C202.422 166.435 203.348 167.95 204.274 169.464C205.961 172.161 207.679 175.099 209.191 178.337C212.556 184.604 215.807 191.895 218.413 199.843C219.782 203.863 220.884 207.699 221.75 211.594C222.017 211.777 222.213 212.352 222.275 212.834ZM274.191 141.653C274.057 141.561 273.79 141.378 273.759 141.137L273.625 141.045C271.26 138.764 268.464 135.968 265.574 132.447C264.011 130.716 262.551 128.835 261.162 126.562C259.671 124.44 258.488 121.868 257.407 119.147C256.429 116.275 255.687 113.346 255.253 109.967C254.716 106.738 254.621 103.151 254.66 99.6554C254.706 92.4233 256.005 84.5091 258.147 76.5116C259.202 72.3922 260.391 68.3644 262.052 64.2201C263.611 60.2256 265.509 56.0231 268.075 52.2785C270.641 48.5338 273.607 45.0638 277.541 42.4761C281.237 39.9466 285.633 38.1163 289.979 37.7923C294.325 37.4684 298.415 38.9503 301.551 41.539C304.686 44.1276 307.206 47.6151 308.914 51.427C310.622 55.2388 311.756 59.3169 312.283 63.4199C312.809 67.5229 312.864 71.7422 312.517 75.687C311.855 83.8178 309.549 91.4824 306.41 98.3561C303.374 105.08 299.638 111.105 295.944 116.497C288.933 126.441 282.055 133.614 276.819 138.391C278.213 134.063 279.442 129.403 280.538 124.651C282.914 113.732 284.438 103.771 285.46 96.5472C285.971 92.9354 286.339 90.106 286.563 88.0587C286.788 86.0114 286.9 84.9878 286.767 84.8962C286.767 84.8962 286.418 85.978 286.06 87.9337C285.702 89.8894 285.231 92.8687 284.586 96.389C283.43 103.521 281.671 113.541 279.161 124.368C277.922 129.902 276.621 134.953 275.155 139.672L275.052 139.822C274.878 140.363 274.807 140.754 274.632 141.295C274.53 141.445 274.53 141.445 274.561 141.686C274.191 141.653 274.191 141.653 274.191 141.653ZM266.954 193.483C267.159 193.183 267.467 192.734 267.539 192.343C272.899 188.532 278.353 185.445 283.529 183.049C290.667 179.796 297.354 177.775 302.994 176.136C308.633 174.497 313.256 173.483 316.327 172.726C317.981 172.318 319.162 172.027 319.974 171.703C320.785 171.378 321.258 171.262 321.258 171.262C321.258 171.262 320.888 171.228 319.943 171.461C319.1 171.544 317.919 171.836 316.265 172.243C313.06 172.908 308.54 173.773 302.767 175.32C297.097 176.718 290.41 178.739 283.035 182.05C278.434 184.18 273.525 186.759 268.811 189.913C269.119 189.464 269.396 188.773 269.704 188.323C270.319 187.425 270.935 186.526 271.654 185.478C272.854 183.439 274.559 181.525 276.098 179.278C276.816 178.23 277.771 177.123 278.726 176.016C279.136 175.417 279.68 174.909 280.091 174.31C280.296 174.011 280.502 173.711 280.84 173.503C281.046 173.203 281.385 172.995 281.59 172.696C282.678 171.681 283.633 170.574 284.824 169.409C285.368 168.901 285.912 168.394 286.559 167.736C287.103 167.229 287.75 166.572 288.294 166.064C288.838 165.556 289.485 164.899 290.163 164.483C290.707 163.975 291.488 163.41 292.032 162.902C293.356 161.829 294.681 160.755 296.139 159.773C296.817 159.357 297.598 158.792 298.378 158.226C299.158 157.66 299.836 157.244 300.617 156.678C302.075 155.696 303.667 154.806 305.259 153.916C306.85 153.025 308.442 152.135 310.168 151.337C311.893 150.538 313.619 149.739 315.344 148.94C322.277 145.987 330.043 143.824 337.995 143.11C341.971 142.752 345.906 143.028 349.595 144.235C353.284 145.442 356.523 147.881 358.539 151.243C359.002 152.001 359.496 153 359.722 153.815C360.082 154.722 360.206 155.688 360.33 156.653C360.476 158.734 360.118 160.689 359.523 162.703C359.175 163.785 358.795 164.626 358.313 165.616C357.831 166.606 357.215 167.505 356.702 168.254C356.086 169.153 355.47 170.051 354.823 170.709C354.074 171.516 353.458 172.415 352.811 173.072C349.916 176.151 346.589 178.714 343.365 181.127C340.007 183.448 336.618 185.528 333.198 187.367C326.389 191.286 320.052 195.088 313.931 197.717C310.819 199.107 307.676 200.255 304.738 201.103C301.8 201.952 298.831 202.559 296.067 202.866C293.304 203.174 290.643 203.332 288.085 203.34C285.629 203.198 283.307 203.147 281.19 202.798C276.957 202.098 273.298 201.132 270.483 200.083C270.215 199.9 269.846 199.867 269.445 199.592C269.177 199.409 268.808 199.375 268.54 199.192C267.903 198.976 267.369 198.61 266.865 198.485C266.094 198.177 265.56 197.81 264.923 197.594C265.199 196.903 265.61 196.304 265.887 195.613C266.061 195.072 266.441 194.232 266.954 193.483ZM228.188 305.371C228.834 304.714 229.615 304.148 230.159 303.64C232.675 301.402 235.119 299.555 237.562 297.707C238.784 296.784 239.904 296.01 241.023 295.236C241.598 294.97 242.142 294.462 242.718 294.196C243.293 293.93 243.734 293.572 244.412 293.156C248.582 290.51 252.269 288.855 254.703 287.881C255.853 287.349 256.901 286.966 257.61 286.791C258.319 286.617 258.658 286.409 258.658 286.409C258.658 286.409 258.288 286.375 257.579 286.55C256.87 286.725 255.925 286.958 254.538 287.548C251.971 288.43 248.15 289.994 243.847 292.549C243.271 292.815 242.83 293.173 242.152 293.589C241.577 293.855 241.033 294.362 240.458 294.629C239.338 295.402 238.219 296.176 236.863 297.008C234.522 298.706 231.975 300.703 229.46 302.941C229.018 303.299 228.577 303.657 228.135 304.014C228.811 300.736 229.661 296.916 230.922 292.497C231.27 291.415 231.721 290.183 232.172 288.952C232.449 288.261 232.624 287.72 232.901 287.029C233.106 286.73 233.178 286.339 233.383 286.039C233.588 285.739 233.66 285.348 233.865 285.049C235.003 282.527 236.378 279.947 238.092 277.16C238.503 276.561 239.016 275.812 239.426 275.212C239.837 274.613 240.35 273.864 240.761 273.265C241.818 272.009 242.875 270.752 243.933 269.496C246.284 266.924 248.902 264.536 251.654 262.24C257.291 257.738 263.966 253.728 271.372 250.658C275.09 249.244 278.839 248.071 282.887 247.322C286.934 246.574 290.91 246.217 295.082 246.433C299.151 246.8 303.179 247.799 306.622 249.939C310.066 252.078 312.893 255.116 314.499 259.078C314.859 259.985 315.117 261.042 315.374 262.099L315.591 263.788C315.653 264.271 315.715 264.754 315.675 265.386L315.665 266.26L315.727 266.743L315.655 267.134L315.503 268.79C315.462 269.423 315.39 269.814 315.216 270.355L315.073 271.137L314.929 271.919C313.905 276.28 311.874 280.391 309.678 284.169C304.916 291.692 298.921 298.149 292.534 303.458C289.34 306.112 286.116 308.525 282.83 310.455C279.543 312.386 276.226 314.075 272.949 315.131C269.57 316.337 266.365 317.003 263.231 317.277C262.861 317.244 262.389 317.36 262.019 317.327C261.649 317.293 261.177 317.41 260.807 317.376C260.067 317.31 259.327 317.243 258.485 317.326C258.115 317.293 257.745 317.259 257.375 317.226C257.005 317.193 256.635 317.159 256.265 317.126C255.526 317.059 254.786 316.993 254.149 316.776C251.497 316.06 248.815 315.103 246.605 314.029C244.396 312.955 242.186 311.881 240.212 310.749C236.163 308.634 232.679 307.128 229.627 306.137C229.328 305.712 228.691 305.496 228.188 305.371ZM214.87 401.9C214.632 399.095 214.465 395.899 214.842 392.196C215.036 389.907 215.363 387.71 215.998 385.064C216.531 382.567 217.299 380.012 218.541 377.341C218.746 377.041 218.818 376.65 219.023 376.351C219.228 376.051 219.433 375.752 219.505 375.36C219.71 375.061 219.916 374.761 219.987 374.37C220.192 374.071 220.398 373.771 220.603 373.471C221.29 372.182 222.214 370.833 223.138 369.485C224.852 366.698 226.699 364.001 228.649 361.155C232.58 355.705 237.323 349.93 243.196 345.37C243.535 345.162 243.977 344.804 244.316 344.596C244.655 344.388 245.096 344.031 245.435 343.823C246.215 343.257 246.996 342.691 247.91 342.217C249.604 341.177 251.196 340.286 252.819 339.637C254.442 338.989 256.332 338.523 258.151 338.448C259.969 338.373 261.613 338.84 263.391 339.398C265.066 340.105 266.639 340.963 268.242 342.061C269.044 342.611 269.713 343.069 270.412 343.768C270.813 344.042 271.111 344.467 271.512 344.742L272.612 345.715C273.013 345.99 273.311 346.415 273.609 346.839L274.607 347.963L275.368 349.145L275.8 349.661L276.129 350.327L276.89 351.508L277.548 352.84C278.145 353.689 278.505 354.596 278.865 355.503C280.44 359.224 281.542 363.06 281.936 367.072C282.329 371.083 282.013 375.269 281.03 378.998C280.077 382.967 278.723 386.662 276.733 390.141C274.742 393.619 272.453 396.673 269.763 399.452C267.074 402.232 264.188 404.437 261.374 406.25C258.427 407.973 255.181 409.271 252.253 409.245C249.191 409.128 246.375 408.079 243.621 407.513C240.734 406.855 238.082 406.139 235.462 405.664C228.074 404.124 221.621 403.224 216.412 402.516C220.713 397.099 225.209 392.256 229.665 388.045C235.517 382.37 241.155 377.868 246.073 374.415C247.295 373.492 248.548 372.81 249.668 372.036C250.787 371.262 251.906 370.488 252.923 369.864C254.956 368.616 256.651 367.576 258.243 366.686C259.732 365.945 260.851 365.171 261.663 364.847C262.341 364.431 262.782 364.073 262.782 364.073C262.782 364.073 262.31 364.19 261.498 364.514C260.687 364.839 259.537 365.371 258.047 366.111C256.558 366.852 254.863 367.892 252.696 369.048C251.68 369.672 250.56 370.446 249.41 370.979C248.291 371.753 247.038 372.435 245.816 373.358C240.763 376.72 234.89 381.28 229.038 386.955C223.904 391.581 219.274 396.333 214.87 401.9ZM214.111 504.172C215.209 502.283 216.441 500.486 217.57 498.838C218.802 497.041 220.27 495.185 221.666 493.721C223.031 492.015 224.561 490.642 226.06 489.028C226.943 488.312 227.59 487.655 228.37 487.089C229.15 486.523 229.9 485.716 230.68 485.15C233.905 482.737 236.924 480.624 239.974 478.751C242.89 476.788 245.704 474.974 248.045 473.276C252.964 469.823 256.537 466.328 258.621 463.574C259.134 462.825 259.545 462.226 259.955 461.627C260.366 461.028 260.674 460.578 260.879 460.279C261.392 459.53 261.566 458.989 261.566 458.989C261.566 458.989 261.258 459.438 260.612 460.096C260.406 460.395 259.996 460.994 259.688 461.444C259.277 462.043 258.733 462.551 258.323 463.15C256.105 465.813 252.501 469.066 247.583 472.519C245.241 474.216 242.294 475.939 239.377 477.902C236.327 479.775 233.174 481.796 229.95 484.209C229.17 484.775 228.287 485.491 227.506 486.057C226.726 486.622 225.976 487.43 225.093 488.145C223.563 489.518 222.065 491.133 220.566 492.747C219.067 494.361 217.733 496.308 216.367 498.014C215.444 499.362 214.52 500.71 213.627 502.3C213.699 501.909 213.534 501.576 213.606 501.185C213.737 498.413 213.776 494.918 215.098 490.982C216.318 487.195 218.452 482.935 221.295 478.499C226.878 469.778 234.864 459.842 245.327 451.164C247.977 449.017 250.626 446.87 253.645 444.757C256.561 442.793 259.714 440.771 262.919 440.106C264.573 439.698 266.155 439.682 267.799 440.148C268.673 440.306 269.31 440.523 270.081 440.831C270.852 441.139 271.52 441.597 272.188 442.055C274.861 443.886 277.051 446.707 278.327 450.003C279.017 451.576 279.368 453.357 279.718 455.138C279.842 456.104 279.833 456.978 279.823 457.851C279.885 458.334 279.813 458.725 279.742 459.116C279.67 459.508 279.732 459.99 279.558 460.531C279.302 462.337 278.913 464.051 278.421 465.915C277.796 467.688 277.17 469.461 276.411 471.142C273.375 477.866 269.002 483.674 264.568 489C260.133 494.325 255.472 498.835 250.388 501.956C245.305 505.076 239.973 506.265 235.093 506.223C234.487 506.248 233.881 506.272 233.377 506.148C232.771 506.172 232.267 506.047 231.661 506.072C230.551 505.972 229.442 505.872 228.332 505.772C226.113 505.572 224.13 505.314 222.383 504.997C219.393 504.489 216.567 504.314 214.111 504.172ZM116.13 467.191C115.873 466.134 115.512 465.227 115.255 464.17C114.997 463.113 114.873 462.147 114.615 461.091C114.234 459.068 113.955 456.896 113.676 454.724C113.354 450.321 113.639 445.894 114.899 441.475C115.596 439.311 116.427 437.239 117.628 435.2C118.11 434.21 118.962 433.253 119.578 432.354C120.327 431.547 121.179 430.59 121.929 429.783C122.812 429.067 123.695 428.352 124.578 427.636C125.595 427.012 126.509 426.538 127.556 426.155C129.652 425.39 131.675 425.016 133.864 424.974C138.138 425.042 141.889 426.732 145.333 428.871C148.674 431.16 151.47 433.957 154.061 437.053C156.519 440.058 158.669 443.512 160.552 446.783C162.434 450.054 163.978 453.532 165.521 457.011C166.931 460.399 168.105 463.844 169.382 467.14C171.462 473.848 173.007 480.19 174.152 486.257C175.865 495.795 176.343 504.267 176.44 510.717C174.145 505.182 171.881 499.889 169.679 495.078C166.52 488.512 162.879 482.935 159.527 478.657C157.799 476.593 156.102 474.77 154.57 473.28C153.738 472.489 153.038 471.79 152.37 471.332C151.569 470.783 151.003 470.175 150.468 469.809C149.8 469.351 149.266 468.985 148.865 468.71C148.33 468.344 147.93 468.069 147.662 467.886C147.128 467.52 146.727 467.245 146.727 467.245C146.861 467.337 147.128 467.52 147.662 467.886C147.93 468.069 148.33 468.344 148.865 468.71C149.399 469.076 149.934 469.443 150.366 469.959C151.034 470.417 151.6 471.024 152.165 471.632C152.864 472.331 153.563 473.03 154.263 473.729C155.794 475.219 157.255 477.1 158.982 479.165C162.335 483.443 165.606 488.986 168.662 495.702C171.296 501.029 173.654 507.046 176.042 513.305C176.042 513.305 175.908 513.213 175.805 513.363C174.192 513.138 172.312 512.73 170.534 512.172C168.52 511.673 166.608 511.023 164.327 510.341C159.898 509.067 154.934 507.426 149.641 505.12C147.062 504.013 144.317 502.573 141.676 500.983C139.034 499.393 136.464 497.412 133.863 495.19C128.897 490.687 124.28 485.102 120.72 478.26C118.807 474.748 117.366 471.119 116.13 467.191Z" fill="white"/>
<path d="M144.16 440.613C144.859 441.312 145.692 442.103 146.422 443.044C147.152 443.984 148.016 445.016 148.879 446.048C150.504 448.262 152.294 450.809 153.878 453.656C155.462 456.502 156.677 459.315 157.86 461.887C158.282 463.277 158.807 464.517 159.199 465.665C159.59 466.814 159.981 467.963 160.239 469.02C160.496 470.077 160.754 471.133 160.847 471.858C161.073 472.673 161.166 473.397 161.259 474.121C161.517 475.178 161.476 475.811 161.61 475.902C161.476 475.811 161.383 475.087 161.023 474.18C160.828 473.605 160.735 472.881 160.374 471.974C160.148 471.158 159.787 470.251 159.53 469.194C159.17 468.287 158.778 467.139 158.254 465.898C157.862 464.75 157.337 463.51 156.679 462.178C155.495 459.606 154.179 456.943 152.594 454.097C151.01 451.25 149.354 448.795 147.729 446.581C146.865 445.549 146.104 444.367 145.374 443.426C144.644 442.486 143.914 441.545 143.215 440.846C140.49 437.658 138.69 435.985 138.793 435.836C139.091 436.26 141.096 437.633 144.16 440.613Z" fill="white"/>
<path d="M163.026 472.686C162.964 472.203 162.933 471.962 163.036 471.812C163.005 471.571 163.107 471.421 163.107 471.421C163.107 471.421 163.343 471.363 163.508 471.696C163.775 471.879 163.837 472.362 164.002 472.695C164.228 473.51 164.383 474.717 164.672 476.015C165.013 478.67 164.686 480.867 164.686 480.867C164.686 480.867 163.698 478.87 163.357 476.215C163.069 474.916 163.15 473.651 163.026 472.686Z" fill="white"/>
<path d="M140.026 363.821C139.83 363.247 139.768 362.764 140.004 362.706C140.343 362.498 141.207 363.53 142.441 364.595C143.006 365.203 143.674 365.661 143.973 366.085C144.271 366.51 144.672 366.784 144.672 366.784C144.672 366.784 144.302 366.751 143.696 366.776C143.192 366.651 142.185 366.401 141.62 365.794C140.787 365.003 140.324 364.246 140.026 363.821Z" fill="white"/>
<path d="M129.599 323.441C129.198 323.166 128.663 322.8 128.263 322.525C125.024 320.086 122.784 318.771 122.886 318.621C122.989 318.472 125.301 319.396 128.776 321.776C129.177 322.051 129.711 322.417 130.112 322.692C130.647 323.058 131.047 323.333 131.582 323.699C132.651 324.432 133.617 325.314 134.687 326.047C136.753 327.903 138.953 329.851 140.979 332.339C143.107 334.678 144.897 337.225 146.419 339.589C147.18 340.77 147.808 341.861 148.435 342.951C148.631 343.525 149.063 344.041 149.259 344.616C149.454 345.19 149.752 345.615 149.948 346.189C150.442 347.188 150.802 348.095 151.131 348.761C151.461 349.426 151.687 350.242 151.883 350.816C152.274 351.965 152.47 352.539 152.47 352.539C152.47 352.539 152.141 351.873 151.647 350.874C151.451 350.3 151.122 349.634 150.659 348.877C150.196 348.12 149.836 347.212 149.239 346.363C148.941 345.939 148.745 345.365 148.447 344.94C148.149 344.516 147.82 343.85 147.521 343.425C146.894 342.335 146.164 341.395 145.403 340.213C143.778 337.999 142.019 335.693 139.891 333.354C137.762 331.015 135.665 328.918 133.732 327.153C132.765 326.271 131.799 325.389 130.73 324.656C130.534 324.082 130 323.716 129.599 323.441Z" fill="white"/>
<path d="M146.734 335.406C146.734 335.406 146.467 335.223 146.138 334.557C145.706 334.041 145.377 333.375 144.914 332.618C144.224 331.045 143.669 329.564 144.007 329.356C144.346 329.148 145.344 330.271 146.167 331.936C146.527 332.843 146.754 333.659 146.713 334.291C146.672 334.924 146.734 335.406 146.734 335.406Z" fill="white"/>
<path d="M163.941 374.488C164.207 371.809 164.061 369.728 164.4 369.52C164.739 369.312 165.388 371.517 165.154 374.439C164.97 375.853 164.755 377.027 164.273 378.017C163.893 378.857 163.719 379.398 163.719 379.398C163.719 379.398 163.759 378.766 163.769 377.892C163.779 377.018 163.86 375.753 163.941 374.488Z" fill="white"/>
<path d="M158.983 351.055C159.808 355.582 160.232 359.835 160.132 362.848C160.081 364.354 160.134 365.711 159.99 366.493C159.981 367.367 159.909 367.758 159.909 367.758C159.909 367.758 159.847 367.275 159.857 366.401C159.866 365.527 159.711 364.321 159.525 362.873C159.153 359.976 158.626 355.873 157.699 351.496C155.946 342.591 153.157 336.057 153.495 335.849C153.598 335.699 154.524 337.214 155.738 340.027C156.819 342.749 158.157 346.527 158.983 351.055Z" fill="white"/>
<path d="M167.619 373.706C167.71 371.567 167.81 368.554 167.777 365.45C167.68 359 166.793 353.99 167.132 353.782C167.368 353.724 167.759 354.872 168.275 356.986C168.656 359.009 169.162 361.996 169.092 365.25C169.156 368.596 168.686 371.575 168.225 373.681C168.01 374.854 167.867 375.636 167.693 376.177C167.518 376.718 167.447 377.109 167.447 377.109C167.447 377.109 167.518 376.718 167.456 376.235C167.497 375.603 167.507 374.729 167.619 373.706Z" fill="white"/>
<path d="M238.664 499.863C242.773 499.597 245.947 498.69 246.112 499.023C246.277 499.356 242.928 500.804 238.583 501.128C236.528 501.261 234.545 501.002 233.301 500.811C232.664 500.594 232.161 500.47 231.791 500.436C231.421 500.403 231.287 500.311 231.287 500.311C231.287 500.311 232.263 500.32 233.476 500.27C234.791 500.07 236.609 499.996 238.664 499.863Z" fill="white"/>
<path d="M156.448 284.833C159.942 285.466 162.932 285.974 165.521 286.208C168.111 286.441 170.268 286.159 171.686 285.809C173.103 285.46 173.915 285.135 174.048 285.227C174.048 285.227 173.268 285.793 171.748 286.292C170.227 286.791 167.967 287.223 165.275 287.14C162.584 287.056 159.357 286.606 155.997 286.065C152.503 285.432 148.742 284.616 144.95 283.558C137.13 281.502 130.255 279.212 125.394 277.422C120.667 275.724 117.717 274.583 117.45 274.4C117.584 274.492 120.738 275.333 125.671 276.731C130.737 278.222 137.581 280.27 145.268 282.235C149.296 283.234 152.954 284.2 156.448 284.833Z" fill="white"/>
<path d="M161.509 250.218C161.798 251.516 162.056 252.573 162.211 253.78C162.468 254.837 162.592 255.802 162.583 256.676C162.809 257.492 162.8 258.366 162.862 258.848C162.883 259.963 163.078 260.538 162.976 260.688C162.945 260.446 162.883 259.963 162.625 258.907C162.43 258.332 162.337 257.608 162.11 256.793C161.883 255.977 161.759 255.012 161.502 253.955C161.244 252.898 160.987 251.841 160.595 250.692C160.204 249.544 159.915 248.245 159.391 247.005C158.443 244.375 157.465 241.504 156.117 238.599C154.769 235.694 153.452 233.031 152.166 230.609C151.405 229.427 150.778 228.337 150.15 227.247C149.523 226.156 148.926 225.307 148.329 224.458C145.943 221.063 144.349 219.09 144.586 219.032C144.688 218.882 146.621 220.647 149.11 223.893C149.706 224.742 150.437 225.682 151.167 226.623C151.897 227.563 152.524 228.653 153.286 229.835C154.674 232.108 156.125 234.862 157.473 237.767C158.821 240.672 159.799 243.543 160.644 246.323C160.932 247.621 161.221 248.919 161.509 250.218Z" fill="white"/>
<path d="M166.89 259.848C166.89 259.848 165.613 256.552 164.685 252.174C163.758 247.796 163.426 244.268 163.765 244.06C164.104 243.852 165.042 247.356 165.969 251.733C166.764 256.019 166.89 259.848 166.89 259.848Z" fill="white"/>
<path d="M176.243 278.578C176.243 278.578 176.15 277.854 176.097 276.498C175.942 275.291 175.828 273.452 175.816 271.463C175.69 267.634 175.657 264.53 175.996 264.322C176.232 264.264 177.108 267.285 177.131 271.263C177.143 273.252 176.887 275.058 176.806 276.323C176.386 277.796 176.243 278.578 176.243 278.578Z" fill="white"/>
<path d="M225.932 497.524C226.405 497.408 226.775 497.441 227.247 497.324C228.326 497.183 229.405 497.042 230.586 496.751C231.295 496.576 231.901 496.551 232.61 496.377C233.318 496.202 234.027 496.027 234.736 495.852C236.154 495.503 237.674 495.004 239.297 494.355C242.44 493.207 245.891 491.61 249.413 489.621C252.802 487.541 255.924 485.278 258.542 482.89C259.733 481.725 261.058 480.651 262.115 479.395C262.659 478.887 263.204 478.38 263.614 477.78C264.025 477.181 264.569 476.674 264.979 476.075C265.831 475.118 266.55 474.069 267.299 473.262C267.607 472.813 267.915 472.363 268.254 472.155C268.562 471.706 268.767 471.406 268.973 471.107C269.794 469.908 270.307 469.159 270.44 469.251C270.574 469.343 270.061 470.092 269.373 471.381C269.168 471.681 268.963 471.981 268.789 472.521C268.481 472.971 268.275 473.27 267.968 473.72C267.352 474.619 266.633 475.667 265.781 476.624C265.371 477.223 264.826 477.731 264.416 478.33C264.005 478.929 263.461 479.437 262.814 480.094C261.757 481.35 260.433 482.424 259.139 483.739C256.521 486.127 253.296 488.54 249.805 490.77C246.179 492.908 242.595 494.414 239.452 495.562C237.798 495.969 236.175 496.618 234.624 496.876C233.915 497.051 233.206 497.225 232.497 497.4C231.789 497.575 231.182 497.6 230.576 497.624C229.261 497.824 228.049 497.874 227.206 497.957C226.734 498.073 226.231 497.949 225.758 498.065C225.388 498.032 225.018 497.998 224.648 497.965C223.436 498.015 222.696 497.948 222.562 497.856C222.799 497.798 223.405 497.773 224.617 497.724C225.09 497.607 225.562 497.491 225.932 497.524Z" fill="white"/>
<path d="M247.295 401.004C247.223 401.395 244.46 401.702 241.059 401.793C237.658 401.884 234.771 401.226 234.771 401.226C234.771 401.226 237.606 400.528 241.007 400.437C244.51 400.196 247.233 400.521 247.295 401.004Z" fill="white"/>
<path d="M178.149 273.514C178.467 272.19 178.825 270.235 178.885 267.854C178.945 265.474 178.943 262.611 178.437 259.624C178.034 256.486 177.262 253.315 176.56 249.753C174.953 242.928 172.729 237.003 170.723 232.766C168.85 228.622 167.327 226.258 167.43 226.108C167.533 225.958 169.394 228.114 171.503 232.201C173.715 236.137 176.072 242.155 177.813 249.071C178.617 252.483 179.185 255.954 179.588 259.091C179.991 262.229 179.89 265.241 179.594 267.68C179.298 270.118 178.806 271.982 178.386 273.455C178.109 274.146 177.934 274.687 177.729 274.986C177.627 275.136 177.658 275.378 177.555 275.527C177.555 275.527 177.658 275.378 177.729 274.986C177.801 274.595 177.975 274.054 178.149 273.514Z" fill="white"/>
<path d="M231.139 379.587C231.693 378.206 232.554 376.375 233.652 374.486C235.982 370.799 238.302 367.987 238.569 368.17C238.836 368.353 236.917 371.44 234.69 374.977C233.592 376.866 232.463 378.514 231.642 379.712C230.924 380.76 230.411 381.509 230.308 381.659C230.442 381.751 230.688 380.819 231.139 379.587Z" fill="white"/>
<path d="M249.081 455.714C247.007 457.595 244.964 459.717 243.496 461.572C241.925 463.578 240.694 465.375 239.565 467.023C238.569 468.762 237.748 469.96 237.132 470.859C236.619 471.608 236.311 472.057 236.075 472.116C236.178 471.966 236.486 471.517 236.865 470.676C237.347 469.686 238.035 468.396 238.897 466.565C239.892 464.826 240.959 462.696 242.529 460.69C244.1 458.685 246.009 456.471 248.32 454.532C252.807 450.563 257.613 448.134 261.229 446.869C262.04 446.545 262.985 446.312 263.694 446.137C264.403 445.963 265.112 445.788 265.615 445.913C266.119 446.038 266.52 446.313 266.787 446.496C266.952 446.829 266.849 446.978 266.849 446.978C266.849 446.978 266.715 446.887 266.582 446.795C266.448 446.704 266.181 446.52 265.575 446.545C265.102 446.662 264.496 446.687 263.921 446.953C263.212 447.128 262.401 447.452 261.589 447.776C258.138 449.374 253.465 451.895 249.081 455.714Z" fill="white"/>
<path d="M161.383 160.986C159.954 159.346 159.264 157.773 159.47 157.474C159.809 157.266 161.042 158.331 162.369 160.12C163.798 161.76 164.282 163.633 164.282 163.633C164.282 163.633 162.812 162.626 161.383 160.986Z" fill="white"/>
<path d="M276.411 385.743C276.411 385.743 275.867 386.25 274.881 387.116C273.762 387.89 272.304 388.871 270.239 389.878C266.244 391.983 260.297 394.071 253.691 394.828C247.085 395.584 241.064 395.2 236.964 394.592C234.848 394.242 233.234 394.017 231.991 393.826C230.984 393.576 230.378 393.601 230.244 393.509C230.378 393.601 230.984 393.576 232.094 393.676C233.203 393.776 235.053 393.943 237.139 394.051C241.31 394.268 247.3 394.411 253.772 393.563C260.244 392.715 266.12 391.018 270.146 389.154C273.905 387.107 276.38 385.501 276.411 385.743Z" fill="white"/>
<path d="M239.301 371.974C241.261 368.255 244.144 363.187 248.404 358.402C250.519 355.889 252.696 353.859 255.037 352.161C257.142 350.522 259.412 349.216 261.24 348.267C264.896 346.37 267.29 346.029 267.424 346.121C267.455 346.362 265.123 347.186 261.6 349.174C259.906 350.214 257.872 351.462 255.767 353.102C253.662 354.741 251.486 356.771 249.474 359.134C245.449 363.861 242.299 368.746 239.938 372.191C237.711 375.727 236.274 377.825 236.274 377.825C236.274 377.825 236.551 377.134 237.033 376.144C237.413 375.303 238.203 373.863 239.301 371.974Z" fill="white"/>
<path d="M172.866 127.031C171.704 125.574 170.809 124.301 171.251 123.943C171.456 123.643 172.792 124.559 173.954 126.015C175.116 127.472 175.57 129.103 175.57 129.103C175.57 129.103 174.131 128.337 172.866 127.031Z" fill="white"/>
<path d="M241.836 282.587C240.645 283.752 239.865 284.318 239.762 284.468C239.865 284.318 240.48 283.419 241.538 282.163C242.698 280.756 244.299 278.992 246.271 277.262C250.45 273.742 254.106 271.845 254.271 272.178C254.435 272.511 250.975 274.982 246.898 278.352C244.896 279.841 243.263 281.364 241.836 282.587Z" fill="white"/>
<path d="M196.346 174.156C195.708 173.94 194.835 173.782 194.064 173.474C192.42 173.007 190.878 172.391 189.101 171.833C185.75 170.418 181.999 168.728 178.422 166.497C174.845 164.266 171.709 161.678 168.944 159.122C167.679 157.816 166.312 156.659 165.283 155.294C164.718 154.686 164.152 154.078 163.72 153.562C163.288 153.046 162.723 152.439 162.394 151.773C161.53 150.741 160.769 149.559 160.172 148.71C159.874 148.285 159.576 147.861 159.277 147.436C158.979 147.012 158.815 146.679 158.65 146.346C157.858 144.923 157.395 144.166 157.631 144.107C157.734 143.958 158.197 144.715 159.091 145.988C159.256 146.321 159.554 146.746 159.822 146.929C160.12 147.353 160.418 147.778 160.716 148.202C161.313 149.051 162.177 150.083 163.04 151.116C163.472 151.632 163.904 152.148 164.47 152.755C164.902 153.271 165.467 153.879 166.033 154.486C167.164 155.702 168.397 156.767 169.662 158.074C172.397 160.388 175.532 162.977 179.109 165.207C182.686 167.438 186.201 169.186 189.449 170.752C191.124 171.459 192.666 172.075 194.208 172.691C194.978 172.999 195.749 173.307 196.386 173.524C197.023 173.74 197.897 173.899 198.534 174.115C199.808 174.548 201.052 174.74 202.192 175.081C202.696 175.206 203.199 175.331 203.703 175.456C204.206 175.581 204.576 175.614 204.946 175.647C206.323 175.93 207.063 175.997 207.33 176.18C207.197 176.089 206.221 176.08 204.977 175.889C204.607 175.855 204.104 175.73 203.734 175.697C203.23 175.572 202.727 175.447 202.121 175.472C201.011 175.372 199.768 175.18 198.493 174.748C197.856 174.531 197.085 174.223 196.346 174.156Z" fill="white"/>
<path d="M221.141 178.378C221.51 178.412 221.379 181.183 221.679 184.471C221.763 186.068 221.948 187.516 222.103 188.723C222.125 189.838 222.218 190.562 222.218 190.562C222.218 190.562 221.786 190.046 221.528 188.989C221.034 187.991 220.612 186.601 220.498 184.762C220.033 181.141 220.771 178.345 221.141 178.378Z" fill="white"/>
<path d="M217.038 174.911C216.934 172.198 216.767 169.003 216.097 165.682C215.529 162.211 214.355 158.766 212.914 155.137C211.371 151.658 209.591 148.237 208.007 145.391C206.525 142.395 205.074 139.64 203.922 137.309C201.617 132.649 200.403 129.835 200.505 129.686C200.742 129.627 202.295 132.232 204.702 136.743C205.957 138.924 207.408 141.679 208.992 144.525C210.474 147.522 212.357 150.793 214.034 154.363C214.754 156.178 215.475 157.992 215.959 159.865C216.443 161.737 216.794 163.518 217.145 165.299C217.712 168.77 217.643 172.024 217.511 174.795C217.379 177.566 217.288 179.705 217.238 181.211C217.054 182.626 217.045 183.5 217.045 183.5C217.045 183.5 217.054 182.626 217.105 181.12C217.155 179.614 217.246 177.475 217.038 174.911Z" fill="white"/>
<path d="M291.712 289.467C292.452 289.533 293.192 289.6 293.798 289.575C294.404 289.55 294.877 289.434 295.113 289.376C295.349 289.317 295.554 289.018 295.554 289.018C295.554 289.018 295.719 289.351 295.411 289.8C295.103 290.249 294.528 290.516 293.819 290.69C293.449 290.657 293.11 290.865 292.74 290.832C292.371 290.798 291.898 290.915 291.528 290.881C290.686 290.965 289.71 290.956 288.836 290.798C286.884 290.781 285.137 290.464 283.997 290.123C282.856 289.782 282.116 289.715 281.983 289.624C282.219 289.565 285.352 289.291 289.02 289.383C289.996 289.392 290.839 289.308 291.712 289.467Z" fill="white"/>
<path d="M269.702 286.054C270.442 286.121 271.315 286.279 272.291 286.288C273.268 286.296 274.377 286.396 275.353 286.404C276.463 286.505 277.675 286.455 278.888 286.405C281.446 286.397 284.107 286.239 287.004 286.023C289.901 285.807 292.767 285.35 295.264 284.859C296.579 284.66 297.76 284.369 298.941 284.078C300.123 283.786 301.068 283.554 302.013 283.321C305.793 282.389 308.125 281.566 308.156 281.807C308.187 282.048 305.886 283.113 302.137 284.286C301.192 284.519 300.144 284.902 298.963 285.193C297.781 285.484 296.6 285.775 295.419 286.066C292.922 286.557 290.056 287.014 287.056 287.38C284.159 287.596 281.365 287.662 278.673 287.578C277.327 287.537 276.217 287.437 275.107 287.337C273.998 287.236 272.991 286.987 272.015 286.978C271.141 286.82 270.268 286.662 269.528 286.595C268.788 286.528 268.151 286.312 267.648 286.187C266.774 286.029 266.271 285.904 266.137 285.812C266.271 285.904 266.877 285.879 267.75 286.037C268.223 285.921 268.86 286.137 269.702 286.054Z" fill="white"/>
<path d="M249.841 270.904C249.164 271.32 248.62 271.828 247.942 272.244C246.72 273.167 245.6 273.941 244.717 274.657C244.276 275.014 243.834 275.372 243.393 275.73C242.951 276.088 242.612 276.296 242.273 276.504C240.949 277.577 240.168 278.143 240.168 278.143C240.168 278.143 240.815 277.486 242.14 276.412C242.479 276.204 242.787 275.755 243.228 275.397C243.67 275.039 244.111 274.682 244.553 274.324C245.436 273.608 246.524 272.593 247.746 271.669C248.29 271.162 248.968 270.746 249.512 270.238C250.19 269.822 250.837 269.165 251.515 268.749C252.973 267.767 254.534 266.635 256.228 265.595C259.617 263.515 263.345 261.227 267.474 259.214C271.603 257.2 275.526 255.486 279.142 254.222C281.001 253.515 282.757 252.957 284.411 252.55C285.223 252.225 286.065 252.142 286.877 251.818C287.585 251.643 288.294 251.469 289.003 251.294C290.421 250.945 291.736 250.745 292.783 250.362C293.256 250.246 293.862 250.221 294.335 250.105C294.807 249.988 295.28 249.872 295.649 249.905C297.201 249.647 298.043 249.564 298.177 249.656C298.208 249.897 294.633 250.529 289.23 252.109C288.521 252.284 287.812 252.459 287.001 252.783C286.292 252.958 285.48 253.282 284.669 253.607C283.015 254.014 281.29 254.813 279.533 255.37C275.917 256.635 271.994 258.349 267.999 260.454C263.87 262.467 260.245 264.606 256.958 266.536C255.264 267.576 253.672 268.466 252.214 269.448C251.197 270.072 250.519 270.488 249.841 270.904Z" fill="white"/>
<path d="M294.625 168.859C292.418 170.648 290.446 172.379 289.019 173.602C287.592 174.825 286.842 175.632 286.606 175.691C286.606 175.691 286.811 175.391 287.119 174.942C287.427 174.492 287.838 173.893 288.587 173.086C289.85 171.53 291.554 169.616 293.864 167.677C298.382 163.95 302.747 161.878 302.778 162.119C302.974 162.693 299.143 165.131 294.625 168.859Z" fill="white"/>
<path d="M305.672 186.559C306.176 186.684 306.341 187.016 306.269 187.408C306.197 187.799 305.725 187.915 305.221 187.79C304.718 187.665 304.625 186.941 304.625 186.941C304.625 186.941 305.169 186.434 305.672 186.559Z" fill="white"/>
<path d="M275.749 79.7734C276.119 79.8067 276.151 82.9109 276.616 86.5312C277.081 90.1515 277.484 93.2891 277.484 93.2891C277.484 93.2891 277.155 92.6233 276.528 91.5329C276.136 90.3844 275.447 88.8114 275.199 86.8806C274.703 83.0189 275.379 79.7401 275.749 79.7734Z" fill="white"/>
<path d="M319.08 185.615C324.884 184.309 329.28 182.479 329.444 182.812C329.609 183.145 325.172 185.608 319.235 186.822C316.266 187.429 313.605 187.587 311.653 187.57C310.677 187.561 309.937 187.495 309.331 187.52C308.827 187.395 308.591 187.453 308.591 187.453C308.827 187.395 309.906 187.253 311.694 186.937C313.615 186.713 316.347 186.164 319.08 185.615Z" fill="white"/>
<path d="M279.566 87.6694C278.423 84.4652 277.095 79.8129 276.413 74.5031C275.731 69.1934 275.82 64.1917 276.094 60.6381C276.104 59.7642 276.247 58.9819 276.391 58.1996C276.431 57.5671 276.472 56.9347 276.41 56.452C276.286 55.4865 275.988 55.0621 275.988 55.0621C275.988 55.0621 276.121 55.1536 276.255 55.2452C276.522 55.4283 276.687 55.7612 276.749 56.2439C276.811 56.7266 276.904 57.4508 276.863 58.0832C276.823 58.7157 276.813 59.5895 276.803 60.4634C276.765 63.9587 276.912 68.9023 277.563 73.9707C278.245 79.2804 279.204 83.8993 279.977 87.0702C280.203 87.8859 280.43 88.7015 280.625 89.2757C280.821 89.85 280.914 90.5741 281.079 90.907C281.439 91.8142 281.501 92.2969 281.501 92.2969C281.501 92.2969 281.203 91.8724 280.843 90.9652C280.678 90.6323 280.349 89.9665 280.153 89.3922C280.122 89.1509 279.895 88.3353 279.566 87.6694Z" fill="white"/>
<path d="M335.664 174.308C335.593 174.699 333.908 174.865 331.956 174.848C329.87 174.74 328.431 173.974 328.431 173.974C328.431 173.974 330.188 173.416 332.037 173.583C334.226 173.542 335.767 174.158 335.664 174.308Z" fill="white"/>
<path d="M301.243 170.095C299.61 171.617 298.45 173.024 297.598 173.981C298.317 172.932 299.343 171.434 300.944 169.67C302.546 167.906 304.384 166.084 306.828 164.236C309.272 162.389 311.983 160.725 315.064 159.094C321.257 156.074 327.03 154.527 331.283 153.479C335.536 152.431 338.063 152.182 338.197 152.273C338.228 152.515 335.629 153.155 331.407 154.445C327.288 155.584 321.546 157.373 315.455 160.243C309.498 163.205 304.477 166.808 301.243 170.095Z" fill="white"/>
<path d="M302.937 83.6543C304.116 80.5003 305.059 77.4045 305.726 74.9995C307.16 70.0396 308.103 66.9438 308.237 67.0354C308.237 67.0354 308.227 67.9092 307.91 69.2324C307.767 70.0147 307.623 70.7969 307.377 71.729C307.131 72.661 306.917 73.8345 306.599 75.1577C306.067 77.6543 304.99 80.6585 303.944 83.904C302.899 87.1496 301.412 90.753 299.924 94.3564C298.335 98.1095 296.683 101.38 295.031 104.65C293.348 107.679 291.871 110.409 290.465 112.747C289.88 113.887 289.161 114.936 288.546 115.835C287.93 116.733 287.417 117.482 287.006 118.081C286.288 119.13 285.877 119.729 285.775 119.879C285.877 119.729 286.288 119.13 286.873 117.99C287.283 117.391 287.663 116.55 288.278 115.652C288.761 114.661 289.376 113.762 289.961 112.622C291.131 110.342 292.608 107.613 294.158 104.492C295.707 101.371 297.225 98.0095 298.815 94.2563C300.404 90.5032 301.789 87.0496 302.937 83.6543Z" fill="white"/>
<path d="M302.014 57.4832C302.014 57.4832 301.52 56.4844 301.869 55.4025C302.084 54.2291 302.7 53.3304 302.967 53.5135C303.337 53.5469 303.461 54.5123 303.112 55.5942C302.897 56.7676 302.014 57.4832 302.014 57.4832Z" fill="white"/>
<path d="M299.721 54.8164C299.721 54.8164 299.731 53.9425 299.709 52.8273C299.688 51.7121 299.707 49.9645 299.727 48.2168C299.765 44.7214 299.629 41.767 299.866 41.7088C300.205 41.5008 300.946 44.4303 300.939 48.167C300.92 49.9147 300.664 51.7206 300.213 52.9523C299.998 54.1257 299.721 54.8164 299.721 54.8164Z" fill="white"/>
<path d="M334.376 169.024C336.605 168.35 339.543 167.502 342.82 166.445C344.443 165.796 345.963 165.297 347.35 164.707C348.736 164.116 349.989 163.434 350.903 162.959C352.834 161.861 354.056 160.937 354.189 161.029C354.323 161.121 353.266 162.377 351.366 163.717C350.483 164.432 349.23 165.115 347.741 165.855C346.252 166.596 344.865 167.186 343.109 167.744C339.729 168.95 336.627 169.465 334.469 169.748C332.312 170.031 331.1 170.081 330.863 170.139C330.863 170.139 332.281 169.789 334.376 169.024Z" fill="white"/>
</svg>
