<svg width="686" height="193" viewBox="0 0 686 193" fill="none" xmlns="http://www.w3.org/2000/svg">
<path d="M483.27 -270.692C469.261 -271.209 455.029 -271.187 441.143 -269.747C383.36 -263.86 337.745 -238.999 306.397 -209.883C290.784 -221.944 273.587 -233.25 253.607 -242.802C219.255 -258.963 175.324 -268.792 131.486 -266.634C79.1998 -264.141 39.0112 -242.84 18.3758 -214.403C-15.3897 -167.954 1.40799 -114.102 36.2008 -69.8237C87.1486 -4.19765 177.629 44.9338 247.724 102.49C184.437 42.6487 99.1677 -8.44554 53.753 -74.5828C23.8929 -118.096 10.0879 -171.578 51.5972 -213.856C90.3289 -253.074 161.229 -253.476 218.94 -229.203C244.915 -217.982 265.125 -202.464 283.169 -186.593C288.494 -181.929 304.498 -165.898 309.699 -160.886L327.414 -180.889L328.202 -181.78C356.31 -211.605 403.616 -241.724 463.309 -241.66C577.871 -240.665 647.668 -183.965 626.72 -116.527C614.551 -75.6598 576.14 -39.152 531.717 -8.15391C492.225 19.4247 438.404 36.9149 398.415 64.6723C282.024 145.462 321.155 193 321.155 193C329.124 179.954 338.527 167.4 349.87 155.625C384.784 118.131 440.647 91.9854 494.71 64.4279C523.393 49.6513 552.168 33.4087 577.001 15.7756C593.812 3.85055 609.404 -8.71235 623.437 -21.9261C651.843 -48.9031 674.03 -78.8646 682.447 -110.848C693.939 -152.105 677.816 -197.502 630.245 -228.844C592.937 -254.026 538.53 -268.676 483.27 -270.692Z" fill="#F46969" fill-opacity="0.1"/>
</svg>
