<svg width="465" height="1029" viewBox="0 0 465 1029" fill="none" xmlns="http://www.w3.org/2000/svg">
<path d="M249.484 328.606C247.559 352.785 244.121 378.493 239.375 405.442C230.085 459.049 215.027 517.455 198.09 578.215C181.399 638.932 163.953 696.735 153.967 750.716C148.728 777.749 145.579 803.661 144.478 828.205C143.334 852.503 144.239 875.434 146.774 896.054C149.064 916.717 152.246 935.196 155.046 951.458C157.846 967.72 160.222 981.518 162.216 993.098C165.78 1013.8 167.902 1026.11 168.241 1028.09C167.859 1025.87 166.231 1013.46 163.202 992.929C161.497 981.552 159.571 967.423 157.017 951.119C154.71 934.772 152.02 916.208 150.02 895.749C148.019 875.291 147.65 852.521 149.083 828.427C150.762 804.29 154.2 778.582 159.77 752C170.376 698.673 188.111 641.074 205.005 580.068C221.942 519.309 236.712 460.699 245.916 406.598C250.374 379.446 253.523 353.534 255.448 329.355C256.411 317.266 256.634 305.303 257.232 294.038C257.54 282.569 257.194 271.719 256.686 261.405C256.179 251.091 255.221 241.108 254.144 231.906C252.778 222.501 251.293 213.877 249.4 205.831C245.614 189.739 240.732 176.119 235.62 165.583C234.872 164.19 234.414 163 233.709 161.853C233.004 160.706 232.545 159.516 231.841 158.369C230.677 156.033 229.31 153.985 228.477 152.098C226.031 148.207 224.206 144.97 222.261 142.514C218.617 137.56 216.672 135.104 216.425 135.146C216.179 135.189 217.963 138.18 221.114 143.219C222.566 145.759 224.434 149.243 226.591 152.931C227.424 154.817 228.587 157.154 229.708 159.244C230.166 160.433 230.871 161.581 231.33 162.77C231.788 163.96 232.289 165.395 232.994 166.543C237.614 177.163 241.918 190.376 245.458 206.51C247.351 214.556 248.589 223.222 249.624 232.177C250.701 241.379 251.37 251.158 251.631 261.514C251.892 271.871 251.949 282.516 251.599 293.739C250.959 304.759 250.693 316.474 249.484 328.606Z" fill="white"/>
<path d="M202.213 129.225C204.37 132.913 206.111 135.658 206.986 137.79C208.107 139.881 208.566 141.07 208.566 141.07C208.566 141.07 207.861 139.923 206.536 138.121C205.211 136.32 203.427 133.329 200.82 129.973C196.097 123.175 188.733 114.295 181.565 103.606C174.397 92.9161 169.531 82.3375 167.596 74.0451C166.628 69.8989 166.076 66.6958 165.898 64.1894C165.763 61.9295 165.797 60.6554 166.044 60.6129C166.536 60.5281 166.688 65.8294 169.278 73.5018C171.663 81.463 176.734 91.7528 183.613 102.238C191.274 112.843 197.941 122.096 202.213 129.225Z" fill="white"/>
<path d="M203.035 60.3215C202.983 65.9118 203.304 72.199 203.668 78.7325C204.642 91.757 206.636 103.337 208.572 111.63C209.539 115.776 210.38 119.183 211.051 121.605C211.636 123.533 211.848 124.765 211.933 125.258C211.891 125.012 211.432 123.822 210.6 121.936C209.725 119.803 208.639 116.439 207.425 112.335C204.997 104.127 202.221 92.4276 201.204 79.1567C200.594 72.6657 200.519 66.3362 200.775 60.457C200.827 54.8667 201.414 49.4379 202.214 45.241C203.26 41.0018 204.475 37.7482 205.861 35.48C207 33.2543 208.104 32.303 208.147 32.5494C208.436 32.7534 205.418 37.3321 204.066 45.6834C203.47 49.5914 203.087 54.7312 203.035 60.3215Z" fill="white"/>
<path d="M208.77 56.8047C208.77 56.8047 208.516 55.3264 208.627 53.024C208.491 50.764 208.721 47.6803 209.402 44.2651C210.763 37.4346 212.913 32.244 213.695 32.3631C214.476 32.4822 213.15 38.0381 211.993 44.5798C210.386 51.4527 208.77 56.8047 208.77 56.8047Z" fill="white"/>
<path d="M251.341 69.7704C250.694 71.9113 249.964 73.5595 249.394 74.6723C248.825 75.7852 248.663 76.3203 248.663 76.3203C248.663 76.3203 248.782 75.5388 249.105 74.4684C249.386 73.1516 249.871 71.5459 250.27 69.4475C251.07 65.2506 252.065 59.2442 252.976 52.745C254.508 39.5426 253.176 28.8628 253.915 28.7355C254.654 28.6083 257.014 39.3649 255.524 52.8136C254.699 59.8056 252.922 65.6927 251.341 69.7704Z" fill="white"/>
<path d="M250.809 131.505C249.874 133.442 249.143 135.09 248.82 136.16C248.497 137.231 248.132 138.055 248.132 138.055C248.132 138.055 248.251 137.273 248.328 136.245C248.608 134.928 248.846 133.365 249.493 131.224C250.827 127.189 253.921 121.582 258.127 116.545C266.541 106.471 273.857 98.8684 274.435 99.2763C275.013 99.6842 268.605 108.145 260.192 118.219C256.189 122.968 252.926 127.589 250.809 131.505Z" fill="white"/>
<path d="M301.866 109.773C297.345 117.401 291.252 123.271 285.074 128.647C279.1 133.735 272.999 138.084 267.68 142.551C262.36 147.019 257.576 151.648 253.863 156.601C250.149 161.553 247.463 166.582 246.094 171.892C244.682 176.955 244.834 182.257 244.901 187.065C244.917 190.107 245.138 192.86 245.358 195.612C245.443 196.105 245.57 196.844 245.409 197.379C245.451 197.626 245.493 197.872 245.536 198.119C245.833 199.844 246.13 201.568 246.384 203.047C246.978 206.496 247.241 209.495 247.504 212.494C247.13 211.798 246.961 210.812 246.587 210.115C245.712 207.983 244.795 205.603 243.878 203.224C243.547 202.774 243.42 202.035 243.088 201.584C241.798 198.509 240.549 195.679 239.012 192.646C236.982 189.697 234.706 186.791 232.472 184.132C230.196 181.225 227.673 178.362 225.193 175.745C219.944 170.306 213.913 164.748 207.432 159.522C194.715 149.027 179.085 139.287 165.979 125.053C164.407 123.294 162.794 121.289 161.222 119.53C159.855 117.482 158.241 115.477 156.873 113.429C154.139 109.333 151.812 104.66 150.182 99.6132C146.717 89.8081 146.533 78.4235 149.313 68.0505C150.682 62.7409 152.875 57.7968 155.561 52.7677C158.289 47.9851 161.595 43.6104 165.436 39.3972C169.32 35.4305 173.492 31.6676 178.284 28.5591C182.38 25.8243 186.765 23.2934 191.234 21.2553C191.931 20.8817 192.423 20.797 193.12 20.4233C193.366 20.3809 193.57 20.0918 194.063 20.0069C199.025 17.884 204.115 16.5005 209.204 15.1167C214.582 13.937 220.292 13.2074 225.551 12.8092C236.647 12.4208 247.504 13.5957 257.716 16.9113C258.497 17.0304 259.075 17.4381 259.856 17.5572C261.462 18.0418 263.11 18.773 264.758 19.504C272.378 22.5047 279.429 26.6182 285.375 31.6831C289.257 35.0738 292.935 38.7533 296.162 42.764C299.144 46.8172 301.921 51.1592 303.959 55.6285C305.997 60.0978 307.338 64.9409 308.391 69.5799C309.197 74.2614 309.757 78.9853 309.577 83.8364C309.355 88.4412 308.641 93.1307 307.637 97.6164C305.81 101.737 303.982 105.857 301.866 109.773ZM182.013 34.0059C177.713 37.0295 173.949 40.2146 170.516 43.8502C167.083 47.4857 164.227 51.5291 161.661 55.7765C159.34 59.9815 157.351 64.637 156.101 69.165C153.644 78.4676 153.531 88.1274 156.58 96.9894C157.836 101.34 159.832 105.562 162.278 109.454C163.399 111.544 164.97 113.303 166.049 115.147C167.62 116.906 168.945 118.708 170.516 120.467C176.513 127.299 183.368 133.222 190.427 138.856C197.239 144.533 204.214 149.674 210.737 155.147C217.261 160.62 223.088 166.466 228.38 172.151C229 172.806 229.662 173.706 230.282 174.361C227.293 168.787 224.304 163.213 221.068 157.681C215.548 147.723 209.662 138.588 204.022 129.412C198.383 120.235 193.033 111.262 189.16 102.034C185.288 92.807 182.894 83.3251 181.902 74.6165C180.868 65.6615 181.235 57.4798 182.222 49.9526C183.252 42.6718 184.986 36.5382 186.805 30.8973C184.961 31.9759 183.364 33.0121 182.013 34.0059ZM266.98 35.3578C266.471 32.4011 265.716 29.4867 264.51 26.9037C261.503 25.6457 258.495 24.3876 255.284 23.4184C245.939 20.7147 235.821 19.4129 225.507 19.9204C220.494 20.2762 215.277 20.9206 210.392 22.0155C205.26 23.1529 200.46 24.7407 195.497 26.8636C193.611 27.6958 191.521 28.8167 189.635 29.6489C187.611 35.5787 185.8 42.7403 184.898 50.7603C183.085 65.2795 184.662 83.2744 192.279 100.99C196.109 109.971 201.417 118.698 207.014 127.628C212.653 136.805 218.581 146.186 224.347 156.102C229.74 165.321 234.641 174.625 239.006 183.768C237.953 179.129 236.858 174.243 235.763 169.358C234.159 161.516 232.963 153.096 233.16 143.929C233.604 134.719 236.308 125.374 240.082 116.352C243.856 107.331 248.658 98.3854 253.46 89.4401C258.262 80.4949 262.283 71.4305 264.783 62.3744C267.444 52.783 268.423 43.7351 266.98 35.3578ZM297.272 58.0484C291.863 45.7876 281.492 35.6499 268.919 28.9354C269.505 30.8641 270.048 32.5463 270.388 34.5174C272.204 43.5915 271.352 53.3786 268.937 62.9275C266.276 72.5189 262.298 81.8298 257.496 90.775C252.736 99.9666 247.891 108.665 244.075 117.441C240.258 126.216 237.716 135.026 237.145 143.496C236.863 152.171 238.017 160.344 239.332 167.982C239.841 170.939 240.308 173.649 241.021 176.317C241.217 174.508 241.37 172.452 241.77 170.353C243.054 164.551 245.859 158.74 249.734 153.252C253.609 147.765 258.598 142.847 264.121 138.09C269.644 133.334 275.457 128.781 281.184 123.736C286.911 118.69 292.554 113.152 296.421 106.144C304.571 93.0703 304.881 74.2433 297.272 58.0484Z" fill="white"/>
<path d="M288.889 88.9187C287.35 93.2428 284.664 98.2719 281.197 103.182C277.729 108.092 273.276 113.171 268.62 118.54C263.92 123.662 259.714 128.699 256.246 133.609C252.779 138.519 250.586 143.463 248.758 147.583C246.931 151.703 245.758 155.203 244.908 157.633C244.261 159.774 243.734 161.133 243.531 161.422C243.488 161.175 244.015 159.816 244.415 157.718C245.019 155.331 246.149 151.584 247.688 147.26C249.227 142.936 251.377 137.745 254.556 132.632C257.734 127.518 262.145 122.192 266.844 117.07C271.544 111.948 275.997 106.868 279.506 102.204C283.016 97.5409 285.744 92.7581 287.326 88.6804C290.734 80.4826 290.455 74.4419 290.99 74.6034C290.99 74.6034 291.491 76.0394 291.423 78.5882C291.023 80.6866 290.427 84.5946 288.889 88.9187Z" fill="white"/>
</svg>
