<svg width="530" height="575" viewBox="0 0 530 575" fill="none" xmlns="http://www.w3.org/2000/svg">
<path d="M512.858 0.382034C497.991 -0.259512 482.888 -0.231246 468.152 1.55257C406.831 8.84782 358.423 39.6567 325.156 75.7372C308.587 60.7908 290.338 46.7803 269.134 34.9438C232.679 14.917 186.059 2.73672 139.536 5.40992C84.0487 8.49954 41.3996 34.8968 19.5009 70.1359C-16.3319 127.697 1.49419 194.432 38.4171 249.302C92.4842 330.628 188.504 391.513 262.891 462.838C195.729 388.681 105.239 325.364 57.044 243.405C25.3557 189.482 10.7056 123.207 54.7562 70.8138C95.8592 22.2138 171.101 21.7156 232.344 51.7961C259.91 65.7006 281.357 84.9314 300.506 104.599C306.157 110.379 323.14 130.245 328.66 136.456L347.46 111.668L348.296 110.564C378.125 73.6036 428.328 36.2793 491.675 36.3586C613.251 37.5917 687.321 107.856 665.091 191.427C652.177 242.07 611.414 287.312 564.272 325.725C522.361 359.901 465.245 381.576 422.808 415.973C299.291 516.09 340.818 575 340.818 575C349.275 558.833 359.253 543.276 371.291 528.683C408.342 482.221 467.626 449.82 524.998 415.67C555.437 397.359 585.974 377.231 612.327 355.379C630.168 340.601 646.715 325.033 661.606 308.658C691.752 275.228 715.297 238.099 724.229 198.464C736.425 147.338 719.315 91.0803 668.832 52.2413C629.24 21.0347 571.501 2.87957 512.858 0.382034Z" fill="white" fill-opacity="0.29"/>
</svg>
